%TF.GenerationSoftware,KiCad,Pcbnew,(5.1.6)-1*%
%TF.CreationDate,2022-03-23T15:28:11-04:00*%
%TF.ProjectId,MPPT_picoShield,4d505054-5f70-4696-936f-536869656c64,rev?*%
%TF.SameCoordinates,Original*%
%TF.FileFunction,Legend,Bot*%
%TF.FilePolarity,Positive*%
%FSLAX46Y46*%
G04 Gerber Fmt 4.6, Leading zero omitted, Abs format (unit mm)*
G04 Created by KiCad (PCBNEW (5.1.6)-1) date 2022-03-23 15:28:11*
%MOMM*%
%LPD*%
G01*
G04 APERTURE LIST*
%ADD10C,0.120000*%
%ADD11C,0.100000*%
%ADD12C,0.200000*%
%ADD13C,0.150000*%
%ADD14C,0.254000*%
G04 APERTURE END LIST*
D10*
%TO.C,C33*%
X81240000Y-25624721D02*
X81240000Y-25950279D01*
X82260000Y-25624721D02*
X82260000Y-25950279D01*
%TO.C,C32*%
X82260000Y-21625279D02*
X82260000Y-21299721D01*
X81240000Y-21625279D02*
X81240000Y-21299721D01*
%TO.C,C31*%
X87124721Y-14510000D02*
X87450279Y-14510000D01*
X87124721Y-13490000D02*
X87450279Y-13490000D01*
%TO.C,R35*%
X14624721Y-35260000D02*
X14950279Y-35260000D01*
X14624721Y-34240000D02*
X14950279Y-34240000D01*
%TO.C,R34*%
X11087221Y-35260000D02*
X11412779Y-35260000D01*
X11087221Y-34240000D02*
X11412779Y-34240000D01*
%TO.C,R33*%
X14624721Y-40340000D02*
X14950279Y-40340000D01*
X14624721Y-39320000D02*
X14950279Y-39320000D01*
%TO.C,R32*%
X11124721Y-40340000D02*
X11450279Y-40340000D01*
X11124721Y-39320000D02*
X11450279Y-39320000D01*
%TO.C,R31*%
X15760000Y-5875279D02*
X15760000Y-5549721D01*
X14740000Y-5875279D02*
X14740000Y-5549721D01*
%TO.C,R30*%
X15760000Y-9125279D02*
X15760000Y-8799721D01*
X14740000Y-9125279D02*
X14740000Y-8799721D01*
%TO.C,R13*%
X41624721Y-42002501D02*
X41950279Y-42002501D01*
X41624721Y-40982501D02*
X41950279Y-40982501D01*
%TO.C,R6*%
X54240000Y-31374721D02*
X54240000Y-31700279D01*
X55260000Y-31374721D02*
X55260000Y-31700279D01*
%TO.C,Q3*%
X62380000Y-32510000D02*
X61450000Y-32510000D01*
X59220000Y-32510000D02*
X60150000Y-32510000D01*
X59220000Y-32510000D02*
X59220000Y-30350000D01*
X62380000Y-32510000D02*
X62380000Y-31050000D01*
D11*
%TO.C,J4*%
X68325000Y-5937000D02*
X68325000Y-4687000D01*
X68325000Y-11938000D02*
X68325000Y-7937000D01*
X68325000Y-17512000D02*
X68325000Y-14438000D01*
X80750000Y-1363000D02*
X69500000Y-1363000D01*
X82175000Y-17512000D02*
X82175000Y-3687000D01*
X80750000Y-17512000D02*
X82175000Y-17512000D01*
D12*
X78050000Y-18637000D02*
X78050000Y-18637000D01*
X78050000Y-18537000D02*
X78050000Y-18537000D01*
X78050000Y-18637000D02*
X78050000Y-18637000D01*
X78050000Y-18537000D02*
G75*
G03*
X78050000Y-18637000I0J-50000D01*
G01*
X78050000Y-18637000D02*
G75*
G03*
X78050000Y-18537000I0J50000D01*
G01*
X78050000Y-18537000D02*
G75*
G03*
X78050000Y-18637000I0J-50000D01*
G01*
D10*
%TO.C,C11*%
X73700279Y-18740000D02*
X73374721Y-18740000D01*
X73700279Y-19760000D02*
X73374721Y-19760000D01*
%TO.C,C33*%
D13*
X80142857Y-26107142D02*
X80190476Y-26154761D01*
X80333333Y-26202380D01*
X80428571Y-26202380D01*
X80571428Y-26154761D01*
X80666666Y-26059523D01*
X80714285Y-25964285D01*
X80761904Y-25773809D01*
X80761904Y-25630952D01*
X80714285Y-25440476D01*
X80666666Y-25345238D01*
X80571428Y-25250000D01*
X80428571Y-25202380D01*
X80333333Y-25202380D01*
X80190476Y-25250000D01*
X80142857Y-25297619D01*
X79809523Y-25202380D02*
X79190476Y-25202380D01*
X79523809Y-25583333D01*
X79380952Y-25583333D01*
X79285714Y-25630952D01*
X79238095Y-25678571D01*
X79190476Y-25773809D01*
X79190476Y-26011904D01*
X79238095Y-26107142D01*
X79285714Y-26154761D01*
X79380952Y-26202380D01*
X79666666Y-26202380D01*
X79761904Y-26154761D01*
X79809523Y-26107142D01*
X78857142Y-25202380D02*
X78238095Y-25202380D01*
X78571428Y-25583333D01*
X78428571Y-25583333D01*
X78333333Y-25630952D01*
X78285714Y-25678571D01*
X78238095Y-25773809D01*
X78238095Y-26011904D01*
X78285714Y-26107142D01*
X78333333Y-26154761D01*
X78428571Y-26202380D01*
X78714285Y-26202380D01*
X78809523Y-26154761D01*
X78857142Y-26107142D01*
%TO.C,C32*%
X80142857Y-21857142D02*
X80190476Y-21904761D01*
X80333333Y-21952380D01*
X80428571Y-21952380D01*
X80571428Y-21904761D01*
X80666666Y-21809523D01*
X80714285Y-21714285D01*
X80761904Y-21523809D01*
X80761904Y-21380952D01*
X80714285Y-21190476D01*
X80666666Y-21095238D01*
X80571428Y-21000000D01*
X80428571Y-20952380D01*
X80333333Y-20952380D01*
X80190476Y-21000000D01*
X80142857Y-21047619D01*
X79809523Y-20952380D02*
X79190476Y-20952380D01*
X79523809Y-21333333D01*
X79380952Y-21333333D01*
X79285714Y-21380952D01*
X79238095Y-21428571D01*
X79190476Y-21523809D01*
X79190476Y-21761904D01*
X79238095Y-21857142D01*
X79285714Y-21904761D01*
X79380952Y-21952380D01*
X79666666Y-21952380D01*
X79761904Y-21904761D01*
X79809523Y-21857142D01*
X78809523Y-21047619D02*
X78761904Y-21000000D01*
X78666666Y-20952380D01*
X78428571Y-20952380D01*
X78333333Y-21000000D01*
X78285714Y-21047619D01*
X78238095Y-21142857D01*
X78238095Y-21238095D01*
X78285714Y-21380952D01*
X78857142Y-21952380D01*
X78238095Y-21952380D01*
%TO.C,C31*%
X87930357Y-13107142D02*
X87977976Y-13154761D01*
X88120833Y-13202380D01*
X88216071Y-13202380D01*
X88358928Y-13154761D01*
X88454166Y-13059523D01*
X88501785Y-12964285D01*
X88549404Y-12773809D01*
X88549404Y-12630952D01*
X88501785Y-12440476D01*
X88454166Y-12345238D01*
X88358928Y-12250000D01*
X88216071Y-12202380D01*
X88120833Y-12202380D01*
X87977976Y-12250000D01*
X87930357Y-12297619D01*
X87597023Y-12202380D02*
X86977976Y-12202380D01*
X87311309Y-12583333D01*
X87168452Y-12583333D01*
X87073214Y-12630952D01*
X87025595Y-12678571D01*
X86977976Y-12773809D01*
X86977976Y-13011904D01*
X87025595Y-13107142D01*
X87073214Y-13154761D01*
X87168452Y-13202380D01*
X87454166Y-13202380D01*
X87549404Y-13154761D01*
X87597023Y-13107142D01*
X86025595Y-13202380D02*
X86597023Y-13202380D01*
X86311309Y-13202380D02*
X86311309Y-12202380D01*
X86406547Y-12345238D01*
X86501785Y-12440476D01*
X86597023Y-12488095D01*
%TO.C,R35*%
X15430357Y-36632380D02*
X15763690Y-36156190D01*
X16001785Y-36632380D02*
X16001785Y-35632380D01*
X15620833Y-35632380D01*
X15525595Y-35680000D01*
X15477976Y-35727619D01*
X15430357Y-35822857D01*
X15430357Y-35965714D01*
X15477976Y-36060952D01*
X15525595Y-36108571D01*
X15620833Y-36156190D01*
X16001785Y-36156190D01*
X15097023Y-35632380D02*
X14477976Y-35632380D01*
X14811309Y-36013333D01*
X14668452Y-36013333D01*
X14573214Y-36060952D01*
X14525595Y-36108571D01*
X14477976Y-36203809D01*
X14477976Y-36441904D01*
X14525595Y-36537142D01*
X14573214Y-36584761D01*
X14668452Y-36632380D01*
X14954166Y-36632380D01*
X15049404Y-36584761D01*
X15097023Y-36537142D01*
X13573214Y-35632380D02*
X14049404Y-35632380D01*
X14097023Y-36108571D01*
X14049404Y-36060952D01*
X13954166Y-36013333D01*
X13716071Y-36013333D01*
X13620833Y-36060952D01*
X13573214Y-36108571D01*
X13525595Y-36203809D01*
X13525595Y-36441904D01*
X13573214Y-36537142D01*
X13620833Y-36584761D01*
X13716071Y-36632380D01*
X13954166Y-36632380D01*
X14049404Y-36584761D01*
X14097023Y-36537142D01*
%TO.C,R34*%
X11892857Y-36632380D02*
X12226190Y-36156190D01*
X12464285Y-36632380D02*
X12464285Y-35632380D01*
X12083333Y-35632380D01*
X11988095Y-35680000D01*
X11940476Y-35727619D01*
X11892857Y-35822857D01*
X11892857Y-35965714D01*
X11940476Y-36060952D01*
X11988095Y-36108571D01*
X12083333Y-36156190D01*
X12464285Y-36156190D01*
X11559523Y-35632380D02*
X10940476Y-35632380D01*
X11273809Y-36013333D01*
X11130952Y-36013333D01*
X11035714Y-36060952D01*
X10988095Y-36108571D01*
X10940476Y-36203809D01*
X10940476Y-36441904D01*
X10988095Y-36537142D01*
X11035714Y-36584761D01*
X11130952Y-36632380D01*
X11416666Y-36632380D01*
X11511904Y-36584761D01*
X11559523Y-36537142D01*
X10083333Y-35965714D02*
X10083333Y-36632380D01*
X10321428Y-35584761D02*
X10559523Y-36299047D01*
X9940476Y-36299047D01*
%TO.C,R33*%
X15430357Y-41712380D02*
X15763690Y-41236190D01*
X16001785Y-41712380D02*
X16001785Y-40712380D01*
X15620833Y-40712380D01*
X15525595Y-40760000D01*
X15477976Y-40807619D01*
X15430357Y-40902857D01*
X15430357Y-41045714D01*
X15477976Y-41140952D01*
X15525595Y-41188571D01*
X15620833Y-41236190D01*
X16001785Y-41236190D01*
X15097023Y-40712380D02*
X14477976Y-40712380D01*
X14811309Y-41093333D01*
X14668452Y-41093333D01*
X14573214Y-41140952D01*
X14525595Y-41188571D01*
X14477976Y-41283809D01*
X14477976Y-41521904D01*
X14525595Y-41617142D01*
X14573214Y-41664761D01*
X14668452Y-41712380D01*
X14954166Y-41712380D01*
X15049404Y-41664761D01*
X15097023Y-41617142D01*
X14144642Y-40712380D02*
X13525595Y-40712380D01*
X13858928Y-41093333D01*
X13716071Y-41093333D01*
X13620833Y-41140952D01*
X13573214Y-41188571D01*
X13525595Y-41283809D01*
X13525595Y-41521904D01*
X13573214Y-41617142D01*
X13620833Y-41664761D01*
X13716071Y-41712380D01*
X14001785Y-41712380D01*
X14097023Y-41664761D01*
X14144642Y-41617142D01*
%TO.C,R32*%
X11930357Y-41712380D02*
X12263690Y-41236190D01*
X12501785Y-41712380D02*
X12501785Y-40712380D01*
X12120833Y-40712380D01*
X12025595Y-40760000D01*
X11977976Y-40807619D01*
X11930357Y-40902857D01*
X11930357Y-41045714D01*
X11977976Y-41140952D01*
X12025595Y-41188571D01*
X12120833Y-41236190D01*
X12501785Y-41236190D01*
X11597023Y-40712380D02*
X10977976Y-40712380D01*
X11311309Y-41093333D01*
X11168452Y-41093333D01*
X11073214Y-41140952D01*
X11025595Y-41188571D01*
X10977976Y-41283809D01*
X10977976Y-41521904D01*
X11025595Y-41617142D01*
X11073214Y-41664761D01*
X11168452Y-41712380D01*
X11454166Y-41712380D01*
X11549404Y-41664761D01*
X11597023Y-41617142D01*
X10597023Y-40807619D02*
X10549404Y-40760000D01*
X10454166Y-40712380D01*
X10216071Y-40712380D01*
X10120833Y-40760000D01*
X10073214Y-40807619D01*
X10025595Y-40902857D01*
X10025595Y-40998095D01*
X10073214Y-41140952D01*
X10644642Y-41712380D01*
X10025595Y-41712380D01*
%TO.C,R31*%
X13642857Y-6164880D02*
X13976190Y-5688690D01*
X14214285Y-6164880D02*
X14214285Y-5164880D01*
X13833333Y-5164880D01*
X13738095Y-5212500D01*
X13690476Y-5260119D01*
X13642857Y-5355357D01*
X13642857Y-5498214D01*
X13690476Y-5593452D01*
X13738095Y-5641071D01*
X13833333Y-5688690D01*
X14214285Y-5688690D01*
X13309523Y-5164880D02*
X12690476Y-5164880D01*
X13023809Y-5545833D01*
X12880952Y-5545833D01*
X12785714Y-5593452D01*
X12738095Y-5641071D01*
X12690476Y-5736309D01*
X12690476Y-5974404D01*
X12738095Y-6069642D01*
X12785714Y-6117261D01*
X12880952Y-6164880D01*
X13166666Y-6164880D01*
X13261904Y-6117261D01*
X13309523Y-6069642D01*
X11738095Y-6164880D02*
X12309523Y-6164880D01*
X12023809Y-6164880D02*
X12023809Y-5164880D01*
X12119047Y-5307738D01*
X12214285Y-5402976D01*
X12309523Y-5450595D01*
%TO.C,R30*%
X13642857Y-9414880D02*
X13976190Y-8938690D01*
X14214285Y-9414880D02*
X14214285Y-8414880D01*
X13833333Y-8414880D01*
X13738095Y-8462500D01*
X13690476Y-8510119D01*
X13642857Y-8605357D01*
X13642857Y-8748214D01*
X13690476Y-8843452D01*
X13738095Y-8891071D01*
X13833333Y-8938690D01*
X14214285Y-8938690D01*
X13309523Y-8414880D02*
X12690476Y-8414880D01*
X13023809Y-8795833D01*
X12880952Y-8795833D01*
X12785714Y-8843452D01*
X12738095Y-8891071D01*
X12690476Y-8986309D01*
X12690476Y-9224404D01*
X12738095Y-9319642D01*
X12785714Y-9367261D01*
X12880952Y-9414880D01*
X13166666Y-9414880D01*
X13261904Y-9367261D01*
X13309523Y-9319642D01*
X12071428Y-8414880D02*
X11976190Y-8414880D01*
X11880952Y-8462500D01*
X11833333Y-8510119D01*
X11785714Y-8605357D01*
X11738095Y-8795833D01*
X11738095Y-9033928D01*
X11785714Y-9224404D01*
X11833333Y-9319642D01*
X11880952Y-9367261D01*
X11976190Y-9414880D01*
X12071428Y-9414880D01*
X12166666Y-9367261D01*
X12214285Y-9319642D01*
X12261904Y-9224404D01*
X12309523Y-9033928D01*
X12309523Y-8795833D01*
X12261904Y-8605357D01*
X12214285Y-8510119D01*
X12166666Y-8462500D01*
X12071428Y-8414880D01*
%TO.C,R13*%
X42467857Y-40444881D02*
X42801190Y-39968691D01*
X43039285Y-40444881D02*
X43039285Y-39444881D01*
X42658333Y-39444881D01*
X42563095Y-39492501D01*
X42515476Y-39540120D01*
X42467857Y-39635358D01*
X42467857Y-39778215D01*
X42515476Y-39873453D01*
X42563095Y-39921072D01*
X42658333Y-39968691D01*
X43039285Y-39968691D01*
X41515476Y-40444881D02*
X42086904Y-40444881D01*
X41801190Y-40444881D02*
X41801190Y-39444881D01*
X41896428Y-39587739D01*
X41991666Y-39682977D01*
X42086904Y-39730596D01*
X41182142Y-39444881D02*
X40563095Y-39444881D01*
X40896428Y-39825834D01*
X40753571Y-39825834D01*
X40658333Y-39873453D01*
X40610714Y-39921072D01*
X40563095Y-40016310D01*
X40563095Y-40254405D01*
X40610714Y-40349643D01*
X40658333Y-40397262D01*
X40753571Y-40444881D01*
X41039285Y-40444881D01*
X41134523Y-40397262D01*
X41182142Y-40349643D01*
%TO.C,R6*%
X53166666Y-31989880D02*
X53500000Y-31513690D01*
X53738095Y-31989880D02*
X53738095Y-30989880D01*
X53357142Y-30989880D01*
X53261904Y-31037500D01*
X53214285Y-31085119D01*
X53166666Y-31180357D01*
X53166666Y-31323214D01*
X53214285Y-31418452D01*
X53261904Y-31466071D01*
X53357142Y-31513690D01*
X53738095Y-31513690D01*
X52309523Y-30989880D02*
X52500000Y-30989880D01*
X52595238Y-31037500D01*
X52642857Y-31085119D01*
X52738095Y-31227976D01*
X52785714Y-31418452D01*
X52785714Y-31799404D01*
X52738095Y-31894642D01*
X52690476Y-31942261D01*
X52595238Y-31989880D01*
X52404761Y-31989880D01*
X52309523Y-31942261D01*
X52261904Y-31894642D01*
X52214285Y-31799404D01*
X52214285Y-31561309D01*
X52261904Y-31466071D01*
X52309523Y-31418452D01*
X52404761Y-31370833D01*
X52595238Y-31370833D01*
X52690476Y-31418452D01*
X52738095Y-31466071D01*
X52785714Y-31561309D01*
%TO.C,Q3*%
X58095238Y-32297619D02*
X58190476Y-32250000D01*
X58285714Y-32154761D01*
X58428571Y-32011904D01*
X58523809Y-31964285D01*
X58619047Y-31964285D01*
X58571428Y-32202380D02*
X58666666Y-32154761D01*
X58761904Y-32059523D01*
X58809523Y-31869047D01*
X58809523Y-31535714D01*
X58761904Y-31345238D01*
X58666666Y-31250000D01*
X58571428Y-31202380D01*
X58380952Y-31202380D01*
X58285714Y-31250000D01*
X58190476Y-31345238D01*
X58142857Y-31535714D01*
X58142857Y-31869047D01*
X58190476Y-32059523D01*
X58285714Y-32154761D01*
X58380952Y-32202380D01*
X58571428Y-32202380D01*
X57809523Y-31202380D02*
X57190476Y-31202380D01*
X57523809Y-31583333D01*
X57380952Y-31583333D01*
X57285714Y-31630952D01*
X57238095Y-31678571D01*
X57190476Y-31773809D01*
X57190476Y-32011904D01*
X57238095Y-32107142D01*
X57285714Y-32154761D01*
X57380952Y-32202380D01*
X57666666Y-32202380D01*
X57761904Y-32154761D01*
X57809523Y-32107142D01*
%TO.C,J4*%
D14*
X75673333Y-9304523D02*
X75673333Y-10211666D01*
X75733809Y-10393095D01*
X75854761Y-10514047D01*
X76036190Y-10574523D01*
X76157142Y-10574523D01*
X74524285Y-9727857D02*
X74524285Y-10574523D01*
X74826666Y-9244047D02*
X75129047Y-10151190D01*
X74342857Y-10151190D01*
%TO.C,C11*%
D13*
X74180357Y-21107142D02*
X74227976Y-21154761D01*
X74370833Y-21202380D01*
X74466071Y-21202380D01*
X74608928Y-21154761D01*
X74704166Y-21059523D01*
X74751785Y-20964285D01*
X74799404Y-20773809D01*
X74799404Y-20630952D01*
X74751785Y-20440476D01*
X74704166Y-20345238D01*
X74608928Y-20250000D01*
X74466071Y-20202380D01*
X74370833Y-20202380D01*
X74227976Y-20250000D01*
X74180357Y-20297619D01*
X73227976Y-21202380D02*
X73799404Y-21202380D01*
X73513690Y-21202380D02*
X73513690Y-20202380D01*
X73608928Y-20345238D01*
X73704166Y-20440476D01*
X73799404Y-20488095D01*
X72275595Y-21202380D02*
X72847023Y-21202380D01*
X72561309Y-21202380D02*
X72561309Y-20202380D01*
X72656547Y-20345238D01*
X72751785Y-20440476D01*
X72847023Y-20488095D01*
%TD*%
M02*
