%TF.GenerationSoftware,KiCad,Pcbnew,(5.1.6)-1*%
%TF.CreationDate,2022-03-23T15:28:11-04:00*%
%TF.ProjectId,MPPT_picoShield,4d505054-5f70-4696-936f-536869656c64,rev?*%
%TF.SameCoordinates,Original*%
%TF.FileFunction,Copper,L2,Bot*%
%TF.FilePolarity,Positive*%
%FSLAX46Y46*%
G04 Gerber Fmt 4.6, Leading zero omitted, Abs format (unit mm)*
G04 Created by KiCad (PCBNEW (5.1.6)-1) date 2022-03-23 15:28:11*
%MOMM*%
%LPD*%
G01*
G04 APERTURE LIST*
%TA.AperFunction,ComponentPad*%
%ADD10C,1.500000*%
%TD*%
%TA.AperFunction,ComponentPad*%
%ADD11R,1.500000X1.500000*%
%TD*%
%TA.AperFunction,ComponentPad*%
%ADD12C,2.000000*%
%TD*%
%TA.AperFunction,ComponentPad*%
%ADD13O,2.000000X1.905000*%
%TD*%
%TA.AperFunction,ComponentPad*%
%ADD14R,2.000000X1.905000*%
%TD*%
%TA.AperFunction,SMDPad,CuDef*%
%ADD15R,0.800000X0.900000*%
%TD*%
%TA.AperFunction,ComponentPad*%
%ADD16O,1.700000X1.700000*%
%TD*%
%TA.AperFunction,ComponentPad*%
%ADD17R,1.700000X1.700000*%
%TD*%
%TA.AperFunction,SMDPad,CuDef*%
%ADD18R,1.300000X1.900000*%
%TD*%
%TA.AperFunction,SMDPad,CuDef*%
%ADD19R,1.000000X2.800000*%
%TD*%
%TA.AperFunction,SMDPad,CuDef*%
%ADD20R,1.000000X0.800000*%
%TD*%
%TA.AperFunction,SMDPad,CuDef*%
%ADD21R,1.000000X1.200000*%
%TD*%
%TA.AperFunction,SMDPad,CuDef*%
%ADD22R,0.700000X1.200000*%
%TD*%
%TA.AperFunction,ComponentPad*%
%ADD23C,3.000000*%
%TD*%
%TA.AperFunction,ComponentPad*%
%ADD24R,3.000000X3.000000*%
%TD*%
%TA.AperFunction,ComponentPad*%
%ADD25R,2.000000X2.000000*%
%TD*%
%TA.AperFunction,ComponentPad*%
%ADD26C,1.200000*%
%TD*%
%TA.AperFunction,ViaPad*%
%ADD27C,5.500000*%
%TD*%
%TA.AperFunction,ViaPad*%
%ADD28C,0.800000*%
%TD*%
%TA.AperFunction,Conductor*%
%ADD29C,0.500000*%
%TD*%
%TA.AperFunction,Conductor*%
%ADD30C,0.250000*%
%TD*%
%TA.AperFunction,Conductor*%
%ADD31C,0.254000*%
%TD*%
G04 APERTURE END LIST*
%TO.P,C33,2*%
%TO.N,MPPT_out-*%
%TA.AperFunction,SMDPad,CuDef*%
G36*
G01*
X81493750Y-26137500D02*
X82006250Y-26137500D01*
G75*
G02*
X82225000Y-26356250I0J-218750D01*
G01*
X82225000Y-26793750D01*
G75*
G02*
X82006250Y-27012500I-218750J0D01*
G01*
X81493750Y-27012500D01*
G75*
G02*
X81275000Y-26793750I0J218750D01*
G01*
X81275000Y-26356250D01*
G75*
G02*
X81493750Y-26137500I218750J0D01*
G01*
G37*
%TD.AperFunction*%
%TO.P,C33,1*%
%TO.N,VCell2_sense*%
%TA.AperFunction,SMDPad,CuDef*%
G36*
G01*
X81493750Y-24562500D02*
X82006250Y-24562500D01*
G75*
G02*
X82225000Y-24781250I0J-218750D01*
G01*
X82225000Y-25218750D01*
G75*
G02*
X82006250Y-25437500I-218750J0D01*
G01*
X81493750Y-25437500D01*
G75*
G02*
X81275000Y-25218750I0J218750D01*
G01*
X81275000Y-24781250D01*
G75*
G02*
X81493750Y-24562500I218750J0D01*
G01*
G37*
%TD.AperFunction*%
%TD*%
%TO.P,C32,2*%
%TO.N,MPPT_out-*%
%TA.AperFunction,SMDPad,CuDef*%
G36*
G01*
X82006250Y-21112500D02*
X81493750Y-21112500D01*
G75*
G02*
X81275000Y-20893750I0J218750D01*
G01*
X81275000Y-20456250D01*
G75*
G02*
X81493750Y-20237500I218750J0D01*
G01*
X82006250Y-20237500D01*
G75*
G02*
X82225000Y-20456250I0J-218750D01*
G01*
X82225000Y-20893750D01*
G75*
G02*
X82006250Y-21112500I-218750J0D01*
G01*
G37*
%TD.AperFunction*%
%TO.P,C32,1*%
%TO.N,VCell1_sense*%
%TA.AperFunction,SMDPad,CuDef*%
G36*
G01*
X82006250Y-22687500D02*
X81493750Y-22687500D01*
G75*
G02*
X81275000Y-22468750I0J218750D01*
G01*
X81275000Y-22031250D01*
G75*
G02*
X81493750Y-21812500I218750J0D01*
G01*
X82006250Y-21812500D01*
G75*
G02*
X82225000Y-22031250I0J-218750D01*
G01*
X82225000Y-22468750D01*
G75*
G02*
X82006250Y-22687500I-218750J0D01*
G01*
G37*
%TD.AperFunction*%
%TD*%
%TO.P,C31,2*%
%TO.N,MPPT_out-*%
%TA.AperFunction,SMDPad,CuDef*%
G36*
G01*
X87637500Y-14256250D02*
X87637500Y-13743750D01*
G75*
G02*
X87856250Y-13525000I218750J0D01*
G01*
X88293750Y-13525000D01*
G75*
G02*
X88512500Y-13743750I0J-218750D01*
G01*
X88512500Y-14256250D01*
G75*
G02*
X88293750Y-14475000I-218750J0D01*
G01*
X87856250Y-14475000D01*
G75*
G02*
X87637500Y-14256250I0J218750D01*
G01*
G37*
%TD.AperFunction*%
%TO.P,C31,1*%
%TO.N,Vpv_sense*%
%TA.AperFunction,SMDPad,CuDef*%
G36*
G01*
X86062500Y-14256250D02*
X86062500Y-13743750D01*
G75*
G02*
X86281250Y-13525000I218750J0D01*
G01*
X86718750Y-13525000D01*
G75*
G02*
X86937500Y-13743750I0J-218750D01*
G01*
X86937500Y-14256250D01*
G75*
G02*
X86718750Y-14475000I-218750J0D01*
G01*
X86281250Y-14475000D01*
G75*
G02*
X86062500Y-14256250I0J218750D01*
G01*
G37*
%TD.AperFunction*%
%TD*%
D10*
%TO.P,U1,43*%
%TO.N,Net-(U1-Pad43)*%
X77680000Y-49790000D03*
%TO.P,U1,41*%
%TO.N,Net-(U1-Pad41)*%
X72600000Y-49790000D03*
%TO.P,U1,42*%
%TO.N,MPPT_out-*%
X75140000Y-49790000D03*
%TO.P,U1,38*%
X84030000Y-7080000D03*
%TO.P,U1,40*%
%TO.N,+5V*%
X84030000Y-2000000D03*
%TO.P,U1,34*%
%TO.N,Vpv_sense*%
X84030000Y-17240000D03*
%TO.P,U1,26*%
%TO.N,GP20*%
X84030000Y-37560000D03*
%TO.P,U1,25*%
%TO.N,GP19*%
X84030000Y-40100000D03*
%TO.P,U1,31*%
%TO.N,VCell2_sense*%
X84030000Y-24860000D03*
%TO.P,U1,32*%
%TO.N,VCell1_sense*%
X84030000Y-22320000D03*
%TO.P,U1,39*%
%TO.N,+5V*%
X84030000Y-4540000D03*
%TO.P,U1,33*%
%TO.N,MPPT_out-*%
X84030000Y-19780000D03*
%TO.P,U1,37*%
%TO.N,VCC*%
X84030000Y-9620000D03*
%TO.P,U1,35*%
X84030000Y-14700000D03*
%TO.P,U1,36*%
X84030000Y-12160000D03*
%TO.P,U1,21*%
%TO.N,GP16*%
X84030000Y-50260000D03*
%TO.P,U1,30*%
%TO.N,RESET_SW*%
X84030000Y-27400000D03*
%TO.P,U1,29*%
%TO.N,Net-(U1-Pad29)*%
X84030000Y-29940000D03*
%TO.P,U1,24*%
%TO.N,GP18*%
X84030000Y-42640000D03*
%TO.P,U1,23*%
%TO.N,MPPT_out-*%
X84030000Y-45180000D03*
%TO.P,U1,27*%
%TO.N,GP21*%
X84030000Y-35020000D03*
%TO.P,U1,22*%
%TO.N,GP17*%
X84030000Y-47720000D03*
%TO.P,U1,28*%
%TO.N,MPPT_out-*%
X84030000Y-32480000D03*
%TO.P,U1,13*%
X66250000Y-32480000D03*
%TO.P,U1,11*%
%TO.N,SPI_MISO*%
X66250000Y-27400000D03*
%TO.P,U1,17*%
%TO.N,CRITICAL*%
X66250000Y-42640000D03*
%TO.P,U1,20*%
%TO.N,GP15*%
X66250000Y-50260000D03*
%TO.P,U1,19*%
%TO.N,WARNING*%
X66250000Y-47720000D03*
%TO.P,U1,12*%
%TO.N,SPI_CS*%
X66250000Y-29940000D03*
%TO.P,U1,18*%
%TO.N,MPPT_out-*%
X66250000Y-45180000D03*
%TO.P,U1,14*%
%TO.N,SPI_SCK*%
X66250000Y-35020000D03*
%TO.P,U1,16*%
%TO.N,TC*%
X66250000Y-40100000D03*
%TO.P,U1,15*%
%TO.N,SPI_MOSI*%
X66250000Y-37560000D03*
%TO.P,U1,9*%
%TO.N,Buzzer*%
X66250000Y-22320000D03*
%TO.P,U1,10*%
%TO.N,SD_DETECT*%
X66250000Y-24860000D03*
%TO.P,U1,7*%
%TO.N,I2C0_SCL*%
X66250000Y-17240000D03*
%TO.P,U1,8*%
%TO.N,MPPT_out-*%
X66250000Y-19780000D03*
%TO.P,U1,5*%
%TO.N,OV_LED*%
X66250000Y-12160000D03*
%TO.P,U1,6*%
%TO.N,I2C0_SDA*%
X66250000Y-14700000D03*
%TO.P,U1,3*%
%TO.N,MPPT_out-*%
X66250000Y-7080000D03*
%TO.P,U1,4*%
%TO.N,UV_LED*%
X66250000Y-9620000D03*
%TO.P,U1,2*%
%TO.N,SIG_LED*%
X66250000Y-4540000D03*
D11*
%TO.P,U1,1*%
%TO.N,PWM1*%
X66250000Y-2000000D03*
%TD*%
D12*
%TO.P,SW1,1*%
%TO.N,MPPT_out-*%
X87500000Y-16750000D03*
%TO.P,SW1,2*%
%TO.N,RESET_SW*%
X92000000Y-16750000D03*
%TO.P,SW1,1*%
%TO.N,MPPT_out-*%
X87500000Y-23250000D03*
%TO.P,SW1,2*%
%TO.N,RESET_SW*%
X92000000Y-23250000D03*
%TD*%
D13*
%TO.P,U10,3*%
%TO.N,+5V*%
X23500000Y-45580000D03*
%TO.P,U10,2*%
%TO.N,MPPT_out-*%
X23500000Y-43040000D03*
D14*
%TO.P,U10,1*%
%TO.N,Vbat*%
X23500000Y-40500000D03*
%TD*%
%TO.P,R35,2*%
%TO.N,MPPT_out-*%
%TA.AperFunction,SMDPad,CuDef*%
G36*
G01*
X15137500Y-35006250D02*
X15137500Y-34493750D01*
G75*
G02*
X15356250Y-34275000I218750J0D01*
G01*
X15793750Y-34275000D01*
G75*
G02*
X16012500Y-34493750I0J-218750D01*
G01*
X16012500Y-35006250D01*
G75*
G02*
X15793750Y-35225000I-218750J0D01*
G01*
X15356250Y-35225000D01*
G75*
G02*
X15137500Y-35006250I0J218750D01*
G01*
G37*
%TD.AperFunction*%
%TO.P,R35,1*%
%TO.N,VCell2_sense*%
%TA.AperFunction,SMDPad,CuDef*%
G36*
G01*
X13562500Y-35006250D02*
X13562500Y-34493750D01*
G75*
G02*
X13781250Y-34275000I218750J0D01*
G01*
X14218750Y-34275000D01*
G75*
G02*
X14437500Y-34493750I0J-218750D01*
G01*
X14437500Y-35006250D01*
G75*
G02*
X14218750Y-35225000I-218750J0D01*
G01*
X13781250Y-35225000D01*
G75*
G02*
X13562500Y-35006250I0J218750D01*
G01*
G37*
%TD.AperFunction*%
%TD*%
%TO.P,R34,2*%
%TO.N,VCell2_sense*%
%TA.AperFunction,SMDPad,CuDef*%
G36*
G01*
X11600000Y-35006250D02*
X11600000Y-34493750D01*
G75*
G02*
X11818750Y-34275000I218750J0D01*
G01*
X12256250Y-34275000D01*
G75*
G02*
X12475000Y-34493750I0J-218750D01*
G01*
X12475000Y-35006250D01*
G75*
G02*
X12256250Y-35225000I-218750J0D01*
G01*
X11818750Y-35225000D01*
G75*
G02*
X11600000Y-35006250I0J218750D01*
G01*
G37*
%TD.AperFunction*%
%TO.P,R34,1*%
%TO.N,Net-(D13-Pad1)*%
%TA.AperFunction,SMDPad,CuDef*%
G36*
G01*
X10025000Y-35006250D02*
X10025000Y-34493750D01*
G75*
G02*
X10243750Y-34275000I218750J0D01*
G01*
X10681250Y-34275000D01*
G75*
G02*
X10900000Y-34493750I0J-218750D01*
G01*
X10900000Y-35006250D01*
G75*
G02*
X10681250Y-35225000I-218750J0D01*
G01*
X10243750Y-35225000D01*
G75*
G02*
X10025000Y-35006250I0J218750D01*
G01*
G37*
%TD.AperFunction*%
%TD*%
%TO.P,R33,2*%
%TO.N,MPPT_out-*%
%TA.AperFunction,SMDPad,CuDef*%
G36*
G01*
X15137500Y-40086250D02*
X15137500Y-39573750D01*
G75*
G02*
X15356250Y-39355000I218750J0D01*
G01*
X15793750Y-39355000D01*
G75*
G02*
X16012500Y-39573750I0J-218750D01*
G01*
X16012500Y-40086250D01*
G75*
G02*
X15793750Y-40305000I-218750J0D01*
G01*
X15356250Y-40305000D01*
G75*
G02*
X15137500Y-40086250I0J218750D01*
G01*
G37*
%TD.AperFunction*%
%TO.P,R33,1*%
%TO.N,VCell1_sense*%
%TA.AperFunction,SMDPad,CuDef*%
G36*
G01*
X13562500Y-40086250D02*
X13562500Y-39573750D01*
G75*
G02*
X13781250Y-39355000I218750J0D01*
G01*
X14218750Y-39355000D01*
G75*
G02*
X14437500Y-39573750I0J-218750D01*
G01*
X14437500Y-40086250D01*
G75*
G02*
X14218750Y-40305000I-218750J0D01*
G01*
X13781250Y-40305000D01*
G75*
G02*
X13562500Y-40086250I0J218750D01*
G01*
G37*
%TD.AperFunction*%
%TD*%
%TO.P,R32,2*%
%TO.N,VCell1_sense*%
%TA.AperFunction,SMDPad,CuDef*%
G36*
G01*
X11637500Y-40086250D02*
X11637500Y-39573750D01*
G75*
G02*
X11856250Y-39355000I218750J0D01*
G01*
X12293750Y-39355000D01*
G75*
G02*
X12512500Y-39573750I0J-218750D01*
G01*
X12512500Y-40086250D01*
G75*
G02*
X12293750Y-40305000I-218750J0D01*
G01*
X11856250Y-40305000D01*
G75*
G02*
X11637500Y-40086250I0J218750D01*
G01*
G37*
%TD.AperFunction*%
%TO.P,R32,1*%
%TO.N,Net-(J2-Pad2)*%
%TA.AperFunction,SMDPad,CuDef*%
G36*
G01*
X10062500Y-40086250D02*
X10062500Y-39573750D01*
G75*
G02*
X10281250Y-39355000I218750J0D01*
G01*
X10718750Y-39355000D01*
G75*
G02*
X10937500Y-39573750I0J-218750D01*
G01*
X10937500Y-40086250D01*
G75*
G02*
X10718750Y-40305000I-218750J0D01*
G01*
X10281250Y-40305000D01*
G75*
G02*
X10062500Y-40086250I0J218750D01*
G01*
G37*
%TD.AperFunction*%
%TD*%
%TO.P,R31,2*%
%TO.N,MPPT_out-*%
%TA.AperFunction,SMDPad,CuDef*%
G36*
G01*
X15506250Y-5362500D02*
X14993750Y-5362500D01*
G75*
G02*
X14775000Y-5143750I0J218750D01*
G01*
X14775000Y-4706250D01*
G75*
G02*
X14993750Y-4487500I218750J0D01*
G01*
X15506250Y-4487500D01*
G75*
G02*
X15725000Y-4706250I0J-218750D01*
G01*
X15725000Y-5143750D01*
G75*
G02*
X15506250Y-5362500I-218750J0D01*
G01*
G37*
%TD.AperFunction*%
%TO.P,R31,1*%
%TO.N,Vpv_sense*%
%TA.AperFunction,SMDPad,CuDef*%
G36*
G01*
X15506250Y-6937500D02*
X14993750Y-6937500D01*
G75*
G02*
X14775000Y-6718750I0J218750D01*
G01*
X14775000Y-6281250D01*
G75*
G02*
X14993750Y-6062500I218750J0D01*
G01*
X15506250Y-6062500D01*
G75*
G02*
X15725000Y-6281250I0J-218750D01*
G01*
X15725000Y-6718750D01*
G75*
G02*
X15506250Y-6937500I-218750J0D01*
G01*
G37*
%TD.AperFunction*%
%TD*%
%TO.P,R30,2*%
%TO.N,Vpv_sense*%
%TA.AperFunction,SMDPad,CuDef*%
G36*
G01*
X15506250Y-8612500D02*
X14993750Y-8612500D01*
G75*
G02*
X14775000Y-8393750I0J218750D01*
G01*
X14775000Y-7956250D01*
G75*
G02*
X14993750Y-7737500I218750J0D01*
G01*
X15506250Y-7737500D01*
G75*
G02*
X15725000Y-7956250I0J-218750D01*
G01*
X15725000Y-8393750D01*
G75*
G02*
X15506250Y-8612500I-218750J0D01*
G01*
G37*
%TD.AperFunction*%
%TO.P,R30,1*%
%TO.N,Net-(C1-Pad1)*%
%TA.AperFunction,SMDPad,CuDef*%
G36*
G01*
X15506250Y-10187500D02*
X14993750Y-10187500D01*
G75*
G02*
X14775000Y-9968750I0J218750D01*
G01*
X14775000Y-9531250D01*
G75*
G02*
X14993750Y-9312500I218750J0D01*
G01*
X15506250Y-9312500D01*
G75*
G02*
X15725000Y-9531250I0J-218750D01*
G01*
X15725000Y-9968750D01*
G75*
G02*
X15506250Y-10187500I-218750J0D01*
G01*
G37*
%TD.AperFunction*%
%TD*%
%TO.P,R13,2*%
%TO.N,Net-(R13-Pad2)*%
%TA.AperFunction,SMDPad,CuDef*%
G36*
G01*
X42137500Y-41748751D02*
X42137500Y-41236251D01*
G75*
G02*
X42356250Y-41017501I218750J0D01*
G01*
X42793750Y-41017501D01*
G75*
G02*
X43012500Y-41236251I0J-218750D01*
G01*
X43012500Y-41748751D01*
G75*
G02*
X42793750Y-41967501I-218750J0D01*
G01*
X42356250Y-41967501D01*
G75*
G02*
X42137500Y-41748751I0J218750D01*
G01*
G37*
%TD.AperFunction*%
%TO.P,R13,1*%
%TO.N,Net-(R13-Pad1)*%
%TA.AperFunction,SMDPad,CuDef*%
G36*
G01*
X40562500Y-41748751D02*
X40562500Y-41236251D01*
G75*
G02*
X40781250Y-41017501I218750J0D01*
G01*
X41218750Y-41017501D01*
G75*
G02*
X41437500Y-41236251I0J-218750D01*
G01*
X41437500Y-41748751D01*
G75*
G02*
X41218750Y-41967501I-218750J0D01*
G01*
X40781250Y-41967501D01*
G75*
G02*
X40562500Y-41748751I0J218750D01*
G01*
G37*
%TD.AperFunction*%
%TD*%
%TO.P,R6,2*%
%TO.N,Net-(BZ1-Pad1)*%
%TA.AperFunction,SMDPad,CuDef*%
G36*
G01*
X54493750Y-31887500D02*
X55006250Y-31887500D01*
G75*
G02*
X55225000Y-32106250I0J-218750D01*
G01*
X55225000Y-32543750D01*
G75*
G02*
X55006250Y-32762500I-218750J0D01*
G01*
X54493750Y-32762500D01*
G75*
G02*
X54275000Y-32543750I0J218750D01*
G01*
X54275000Y-32106250D01*
G75*
G02*
X54493750Y-31887500I218750J0D01*
G01*
G37*
%TD.AperFunction*%
%TO.P,R6,1*%
%TO.N,Vbat*%
%TA.AperFunction,SMDPad,CuDef*%
G36*
G01*
X54493750Y-30312500D02*
X55006250Y-30312500D01*
G75*
G02*
X55225000Y-30531250I0J-218750D01*
G01*
X55225000Y-30968750D01*
G75*
G02*
X55006250Y-31187500I-218750J0D01*
G01*
X54493750Y-31187500D01*
G75*
G02*
X54275000Y-30968750I0J218750D01*
G01*
X54275000Y-30531250D01*
G75*
G02*
X54493750Y-30312500I218750J0D01*
G01*
G37*
%TD.AperFunction*%
%TD*%
D15*
%TO.P,Q3,3*%
%TO.N,MPPT_out-*%
X60800000Y-32750000D03*
%TO.P,Q3,2*%
%TO.N,Buzzer*%
X61750000Y-30750000D03*
%TO.P,Q3,1*%
%TO.N,Net-(BZ1-Pad2)*%
X59850000Y-30750000D03*
%TD*%
D13*
%TO.P,Q1,3*%
%TO.N,QS1*%
X35750000Y-12250000D03*
%TO.P,Q1,2*%
%TO.N,Net-(D12-Pad1)*%
X35750000Y-14790000D03*
D14*
%TO.P,Q1,1*%
%TO.N,Drive1*%
X35750000Y-17330000D03*
%TD*%
D16*
%TO.P,J5,7*%
%TO.N,GP15*%
X90000000Y-52620000D03*
%TO.P,J5,6*%
%TO.N,GP16*%
X90000000Y-50080000D03*
%TO.P,J5,5*%
%TO.N,GP17*%
X90000000Y-47540000D03*
%TO.P,J5,4*%
%TO.N,GP18*%
X90000000Y-45000000D03*
%TO.P,J5,3*%
%TO.N,GP19*%
X90000000Y-42460000D03*
%TO.P,J5,2*%
%TO.N,GP20*%
X90000000Y-39920000D03*
D17*
%TO.P,J5,1*%
%TO.N,GP21*%
X90000000Y-37380000D03*
%TD*%
D18*
%TO.P,J4,MP6*%
%TO.N,N/C*%
X81925000Y-2312000D03*
D19*
%TO.P,J4,MP5*%
X68425000Y-2763000D03*
D20*
%TO.P,J4,10*%
%TO.N,MPPT_out-*%
X68425000Y-6913000D03*
D21*
%TO.P,J4,MP3*%
%TO.N,N/C*%
X68425000Y-13112000D03*
D22*
%TO.P,J4,9*%
%TO.N,SD_DETECT*%
X69375000Y-17412000D03*
D21*
%TO.P,J4,MP1*%
%TO.N,N/C*%
X79575000Y-17412000D03*
D22*
%TO.P,J4,8*%
%TO.N,Net-(J4-Pad8)*%
X70325000Y-17412000D03*
%TO.P,J4,7*%
%TO.N,SPI_MISO*%
X71425000Y-17412000D03*
%TO.P,J4,6*%
%TO.N,MPPT_out-*%
X72525000Y-17412000D03*
%TO.P,J4,5*%
%TO.N,SPI_SCK*%
X73625000Y-17412000D03*
%TO.P,J4,4*%
%TO.N,VCC*%
X74725000Y-17412000D03*
%TO.P,J4,3*%
%TO.N,SPI_MOSI*%
X75825000Y-17412000D03*
%TO.P,J4,2*%
%TO.N,SPI_CS*%
X76925000Y-17412000D03*
%TO.P,J4,1*%
%TO.N,Net-(J4-Pad1)*%
X78025000Y-17412000D03*
%TD*%
D23*
%TO.P,J3,4*%
%TO.N,MPPT_out-*%
X29740000Y-60000000D03*
D24*
%TO.P,J3,1*%
%TO.N,Vbat*%
X14500000Y-60000000D03*
D23*
%TO.P,J3,3*%
%TO.N,VCC*%
X24660000Y-60000000D03*
%TO.P,J3,2*%
%TO.N,+5V*%
X19580000Y-60000000D03*
%TD*%
%TO.P,J2,3*%
%TO.N,Net-(D13-Pad1)*%
X5500000Y-34750000D03*
%TO.P,J2,2*%
%TO.N,Net-(J2-Pad2)*%
X5500000Y-39830000D03*
D24*
%TO.P,J2,1*%
%TO.N,MPPT_out-*%
X5500000Y-44910000D03*
%TD*%
D23*
%TO.P,J1,2*%
%TO.N,Net-(C1-Pad1)*%
X5500000Y-12170000D03*
D24*
%TO.P,J1,1*%
%TO.N,Net-(C1-Pad2)*%
X5500000Y-17250000D03*
%TD*%
%TO.P,C11,2*%
%TO.N,MPPT_out-*%
%TA.AperFunction,SMDPad,CuDef*%
G36*
G01*
X73187500Y-18993750D02*
X73187500Y-19506250D01*
G75*
G02*
X72968750Y-19725000I-218750J0D01*
G01*
X72531250Y-19725000D01*
G75*
G02*
X72312500Y-19506250I0J218750D01*
G01*
X72312500Y-18993750D01*
G75*
G02*
X72531250Y-18775000I218750J0D01*
G01*
X72968750Y-18775000D01*
G75*
G02*
X73187500Y-18993750I0J-218750D01*
G01*
G37*
%TD.AperFunction*%
%TO.P,C11,1*%
%TO.N,VCC*%
%TA.AperFunction,SMDPad,CuDef*%
G36*
G01*
X74762500Y-18993750D02*
X74762500Y-19506250D01*
G75*
G02*
X74543750Y-19725000I-218750J0D01*
G01*
X74106250Y-19725000D01*
G75*
G02*
X73887500Y-19506250I0J218750D01*
G01*
X73887500Y-18993750D01*
G75*
G02*
X74106250Y-18775000I218750J0D01*
G01*
X74543750Y-18775000D01*
G75*
G02*
X74762500Y-18993750I0J-218750D01*
G01*
G37*
%TD.AperFunction*%
%TD*%
D12*
%TO.P,C5,2*%
%TO.N,+5V*%
X19000000Y-47500000D03*
D25*
%TO.P,C5,1*%
%TO.N,MPPT_out-*%
X14000000Y-47500000D03*
%TD*%
D12*
%TO.P,C2,2*%
%TO.N,MPPT_out-*%
X44250000Y-29750000D03*
D25*
%TO.P,C2,1*%
%TO.N,MPPT_out+*%
X44250000Y-24750000D03*
%TD*%
D12*
%TO.P,C1,2*%
%TO.N,Net-(C1-Pad2)*%
X15250000Y-17250000D03*
D25*
%TO.P,C1,1*%
%TO.N,Net-(C1-Pad1)*%
X15250000Y-12250000D03*
%TD*%
D26*
%TO.P,BZ1,2*%
%TO.N,Net-(BZ1-Pad2)*%
X59750000Y-35750000D03*
%TO.P,BZ1,1*%
%TO.N,Net-(BZ1-Pad1)*%
X54750000Y-35750000D03*
%TD*%
D27*
%TO.N,*%
X5000000Y-5000000D03*
X5000000Y-60000000D03*
X90000000Y-5000000D03*
X90000000Y-60000000D03*
D28*
%TO.N,MPPT_out-*%
X36750000Y-45750000D03*
X62250000Y-4750000D03*
X31500000Y-20500000D03*
X33750000Y-44250000D03*
X39250000Y-43500000D03*
X72750000Y-20500000D03*
X33500000Y-32750000D03*
X33500000Y-37000000D03*
X75250000Y-3250000D03*
%TO.N,MPPT_out+*%
X21000000Y-29250000D03*
X22000000Y-29250000D03*
X23000000Y-29250000D03*
X23000000Y-30250000D03*
X22000000Y-30250000D03*
X21000000Y-30250000D03*
X31250000Y-25500000D03*
X31250000Y-24500000D03*
X31250000Y-23500000D03*
X32250000Y-23500000D03*
X32250000Y-24500000D03*
X32250000Y-25500000D03*
%TO.N,VCC*%
X35000000Y-47250000D03*
X74325000Y-20500000D03*
X41750000Y-46000000D03*
X41750000Y-37675000D03*
%TO.N,SD_DETECT*%
X69425000Y-15575000D03*
%TO.N,SPI_MISO*%
X71350000Y-27400000D03*
%TO.N,SPI_SCK*%
X73480000Y-35020000D03*
%TO.N,SPI_MOSI*%
X75690000Y-37560000D03*
%TO.N,SPI_CS*%
X76925000Y-29825000D03*
%TO.N,PWM1*%
X28000000Y-20250000D03*
%TO.N,I2C0_SDA*%
X39500000Y-50000000D03*
%TO.N,I2C0_SCL*%
X38750000Y-50750000D03*
%TO.N,Net-(R13-Pad2)*%
X42750000Y-44000000D03*
%TO.N,Net-(R13-Pad1)*%
X37387500Y-41492501D03*
%TO.N,TC*%
X45362500Y-39362500D03*
X48887500Y-39362500D03*
%TD*%
D29*
%TO.N,Net-(BZ1-Pad2)*%
X59750000Y-30850000D02*
X59850000Y-30750000D01*
X59750000Y-35750000D02*
X59750000Y-30850000D01*
%TO.N,Net-(BZ1-Pad1)*%
X54750000Y-35750000D02*
X54750000Y-32325000D01*
D30*
%TO.N,Net-(C1-Pad1)*%
X15250000Y-12250000D02*
X15250000Y-9750000D01*
%TO.N,MPPT_out-*%
X72525000Y-18775000D02*
X72750000Y-19000000D01*
X72525000Y-17162000D02*
X72525000Y-18775000D01*
X72750000Y-19000000D02*
X72750000Y-20250000D01*
X72750000Y-20250000D02*
X72750000Y-20250000D01*
D29*
%TO.N,Vbat*%
X23500000Y-40500000D02*
X23500000Y-38727460D01*
X23500000Y-38727460D02*
X39977460Y-22250000D01*
X54750000Y-30750000D02*
X46250000Y-22250000D01*
X39977460Y-22250000D02*
X46250000Y-22250000D01*
%TO.N,+5V*%
X55497497Y-5740001D02*
X19000000Y-42237498D01*
X82829999Y-5740001D02*
X55497497Y-5740001D01*
X19000000Y-42237498D02*
X19000000Y-47500000D01*
X84030000Y-4540000D02*
X82829999Y-5740001D01*
D30*
%TO.N,VCC*%
X74725000Y-18600000D02*
X74325000Y-19000000D01*
X74725000Y-17162000D02*
X74725000Y-18600000D01*
X74325000Y-19000000D02*
X74325000Y-20175000D01*
X74325000Y-20175000D02*
X74325000Y-20175000D01*
D29*
X24660000Y-60000000D02*
X24660000Y-54840000D01*
X32250000Y-47250000D02*
X35000000Y-47250000D01*
X24660000Y-54840000D02*
X32250000Y-47250000D01*
D30*
X41762510Y-45987490D02*
X41750000Y-46000000D01*
X41750000Y-37675000D02*
X41762510Y-37687510D01*
X41762510Y-37687510D02*
X41762510Y-45987490D01*
D29*
X40500000Y-47250000D02*
X41750000Y-46000000D01*
X35000000Y-47250000D02*
X40500000Y-47250000D01*
D30*
%TO.N,Net-(D13-Pad1)*%
X5500000Y-34750000D02*
X10462500Y-34750000D01*
%TO.N,Net-(J2-Pad2)*%
X5500000Y-39830000D02*
X10500000Y-39830000D01*
%TO.N,SD_DETECT*%
X69375000Y-15625000D02*
X69425000Y-15575000D01*
X69375000Y-17162000D02*
X69375000Y-15625000D01*
X69375000Y-21735000D02*
X69375000Y-17412000D01*
X66250000Y-24860000D02*
X69375000Y-21735000D01*
%TO.N,SPI_MISO*%
X71425000Y-27325000D02*
X71350000Y-27400000D01*
X71425000Y-17412000D02*
X71425000Y-27325000D01*
%TO.N,SPI_SCK*%
X73562490Y-34937510D02*
X73480000Y-35020000D01*
X73625000Y-17162000D02*
X73562490Y-17224510D01*
X73562490Y-17224510D02*
X73562490Y-34937510D01*
%TO.N,SPI_MOSI*%
X75825000Y-37425000D02*
X75690000Y-37560000D01*
X75825000Y-17162000D02*
X75825000Y-37425000D01*
%TO.N,SPI_CS*%
X76925000Y-17162000D02*
X76925000Y-29825000D01*
D29*
%TO.N,PWM1*%
X66250000Y-2000000D02*
X64750000Y-3500000D01*
X64750000Y-3500000D02*
X33750000Y-3500000D01*
X28000000Y-9250000D02*
X28000000Y-20250000D01*
X33750000Y-3500000D02*
X28000000Y-9250000D01*
%TO.N,Buzzer*%
X61750000Y-26820000D02*
X66250000Y-22320000D01*
X61750000Y-30750000D02*
X61750000Y-26820000D01*
D30*
%TO.N,I2C0_SDA*%
X39500000Y-50000000D02*
X42750000Y-50000000D01*
X42750000Y-50000000D02*
X57250000Y-35500000D01*
X57250000Y-23700000D02*
X66250000Y-14700000D01*
X57250000Y-35500000D02*
X57250000Y-23700000D01*
%TO.N,I2C0_SCL*%
X38750000Y-50750000D02*
X43000000Y-50750000D01*
X43000000Y-50750000D02*
X58000000Y-35750000D01*
X58000000Y-25490000D02*
X66250000Y-17240000D01*
X58000000Y-35750000D02*
X58000000Y-25490000D01*
%TO.N,Net-(R13-Pad2)*%
X42575000Y-43825000D02*
X42750000Y-44000000D01*
X42575000Y-41492501D02*
X42575000Y-43825000D01*
%TO.N,Net-(R13-Pad1)*%
X37387500Y-41492501D02*
X41000000Y-41492501D01*
%TO.N,TC*%
X45362500Y-39362500D02*
X48887500Y-39362500D01*
X48887500Y-39362500D02*
X48887500Y-39362500D01*
%TO.N,VCell1_sense*%
X12075000Y-39830000D02*
X14000000Y-39830000D01*
D29*
X12075000Y-39830000D02*
X9905000Y-42000000D01*
X9905000Y-42000000D02*
X4000000Y-42000000D01*
X4000000Y-42000000D02*
X2000000Y-44000000D01*
X2000000Y-50010038D02*
X9239962Y-57250000D01*
X2000000Y-44000000D02*
X2000000Y-50010038D01*
X9239962Y-57250000D02*
X9239962Y-59500000D01*
X9239962Y-59500000D02*
X13039952Y-63299990D01*
X13039952Y-63299990D02*
X73950010Y-63299990D01*
X73950010Y-63299990D02*
X73960048Y-63299990D01*
X80000000Y-23750000D02*
X80000000Y-57250000D01*
X84030000Y-22320000D02*
X81430000Y-22320000D01*
X80000000Y-57250000D02*
X73950010Y-63299990D01*
X81430000Y-22320000D02*
X80000000Y-23750000D01*
D30*
%TO.N,VCell2_sense*%
X12037500Y-34750000D02*
X14000000Y-34750000D01*
D29*
X82044228Y-24860000D02*
X84030000Y-24860000D01*
X80824990Y-26079238D02*
X82044228Y-24860000D01*
X1250000Y-39500000D02*
X1250000Y-50250000D01*
X9633272Y-37000000D02*
X3750000Y-37000000D01*
X1250000Y-50250000D02*
X8450001Y-57450001D01*
X12037500Y-34750000D02*
X11883272Y-34750000D01*
X3750000Y-37000000D02*
X1250000Y-39500000D01*
X8450001Y-57450001D02*
X8450001Y-59700001D01*
X8450001Y-59700001D02*
X12750000Y-64000000D01*
X12750000Y-64000000D02*
X74250000Y-64000000D01*
X11883272Y-34750000D02*
X9633272Y-37000000D01*
X80824990Y-57425010D02*
X80824990Y-26079238D01*
X74250000Y-64000000D02*
X80824990Y-57425010D01*
D30*
%TO.N,Vpv_sense*%
X15250000Y-8175000D02*
X15250000Y-6500000D01*
D29*
X15500000Y-6500000D02*
X15250000Y-6500000D01*
X86549999Y-2049999D02*
X85200010Y-700010D01*
X84030000Y-17240000D02*
X86549999Y-14720001D01*
X85200010Y-700010D02*
X21299990Y-700010D01*
X86549999Y-14720001D02*
X86549999Y-2049999D01*
X21299990Y-700010D02*
X15500000Y-6500000D01*
%TD*%
D31*
%TO.N,MPPT_out+*%
G36*
X32873000Y-26123000D02*
G01*
X26500000Y-26123000D01*
X26475224Y-26125440D01*
X26451399Y-26132667D01*
X26429443Y-26144403D01*
X26410197Y-26160197D01*
X23910197Y-28660197D01*
X23894403Y-28679443D01*
X23882667Y-28701399D01*
X23875440Y-28725224D01*
X23873000Y-28750000D01*
X23873000Y-30873000D01*
X20377000Y-30873000D01*
X20377000Y-27052606D01*
X24552606Y-22877000D01*
X32873000Y-22877000D01*
X32873000Y-26123000D01*
G37*
X32873000Y-26123000D02*
X26500000Y-26123000D01*
X26475224Y-26125440D01*
X26451399Y-26132667D01*
X26429443Y-26144403D01*
X26410197Y-26160197D01*
X23910197Y-28660197D01*
X23894403Y-28679443D01*
X23882667Y-28701399D01*
X23875440Y-28725224D01*
X23873000Y-28750000D01*
X23873000Y-30873000D01*
X20377000Y-30873000D01*
X20377000Y-27052606D01*
X24552606Y-22877000D01*
X32873000Y-22877000D01*
X32873000Y-26123000D01*
%TO.N,MPPT_out-*%
G36*
X16353208Y-4395213D02*
G01*
X16348193Y-4350510D01*
X16309493Y-4231563D01*
X16248331Y-4122452D01*
X16167058Y-4027369D01*
X16068797Y-3949969D01*
X15957324Y-3893226D01*
X15836923Y-3859321D01*
X15756750Y-3852500D01*
X15598000Y-4011250D01*
X15598000Y-4614500D01*
X15643000Y-4614500D01*
X15643000Y-5105422D01*
X15430422Y-5318000D01*
X14902000Y-5318000D01*
X14902000Y-5235500D01*
X14298750Y-5235500D01*
X14140000Y-5394250D01*
X14151807Y-5499490D01*
X14190507Y-5618437D01*
X14251669Y-5727548D01*
X14299323Y-5783299D01*
X14281329Y-5805225D01*
X14202150Y-5953358D01*
X14153392Y-6114092D01*
X14136928Y-6281250D01*
X14136928Y-6718750D01*
X14153392Y-6885908D01*
X14202150Y-7046642D01*
X14281329Y-7194775D01*
X14387885Y-7324615D01*
X14403586Y-7337500D01*
X14387885Y-7350385D01*
X14281329Y-7480225D01*
X14202150Y-7628358D01*
X14153392Y-7789092D01*
X14136928Y-7956250D01*
X14136928Y-8393750D01*
X14153392Y-8560908D01*
X14202150Y-8721642D01*
X14281329Y-8869775D01*
X14357426Y-8962500D01*
X14281329Y-9055225D01*
X14202150Y-9203358D01*
X14153392Y-9364092D01*
X14136928Y-9531250D01*
X14136928Y-9968750D01*
X14153392Y-10135908D01*
X14202150Y-10296642D01*
X14281329Y-10444775D01*
X14387885Y-10574615D01*
X14433351Y-10611928D01*
X14250000Y-10611928D01*
X14125518Y-10624188D01*
X14005820Y-10660498D01*
X13895506Y-10719463D01*
X13798815Y-10798815D01*
X13719463Y-10895506D01*
X13660498Y-11005820D01*
X13624188Y-11125518D01*
X13611928Y-11250000D01*
X13611928Y-13250000D01*
X13624188Y-13374482D01*
X13660498Y-13494180D01*
X13719463Y-13604494D01*
X13798815Y-13701185D01*
X13895506Y-13780537D01*
X14005820Y-13839502D01*
X14125518Y-13875812D01*
X14250000Y-13888072D01*
X16250000Y-13888072D01*
X16374482Y-13875812D01*
X16494180Y-13839502D01*
X16604494Y-13780537D01*
X16701185Y-13701185D01*
X16780537Y-13604494D01*
X16839502Y-13494180D01*
X16875812Y-13374482D01*
X16888072Y-13250000D01*
X16888072Y-11250000D01*
X16875812Y-11125518D01*
X16839502Y-11005820D01*
X16780537Y-10895506D01*
X16701185Y-10798815D01*
X16604494Y-10719463D01*
X16494180Y-10660498D01*
X16374482Y-10624188D01*
X16250000Y-10611928D01*
X16066649Y-10611928D01*
X16112115Y-10574615D01*
X16218671Y-10444775D01*
X16297850Y-10296642D01*
X16346608Y-10135908D01*
X16363072Y-9968750D01*
X16363072Y-9531250D01*
X16346608Y-9364092D01*
X16297850Y-9203358D01*
X16218671Y-9055225D01*
X16142574Y-8962500D01*
X16218671Y-8869775D01*
X16297850Y-8721642D01*
X16346608Y-8560908D01*
X16363072Y-8393750D01*
X16363072Y-7956250D01*
X16346608Y-7789092D01*
X16297850Y-7628358D01*
X16218671Y-7480225D01*
X16112115Y-7350385D01*
X16096414Y-7337500D01*
X16112115Y-7324615D01*
X16218671Y-7194775D01*
X16297850Y-7046642D01*
X16338308Y-6913270D01*
X21666569Y-1585010D01*
X33360662Y-1585010D01*
X33347861Y-2711457D01*
X33255941Y-2760589D01*
X33255939Y-2760590D01*
X33255940Y-2760590D01*
X33154953Y-2843468D01*
X33154951Y-2843470D01*
X33121183Y-2871183D01*
X33093470Y-2904951D01*
X27404956Y-8593466D01*
X27371183Y-8621183D01*
X27260589Y-8755942D01*
X27178411Y-8909688D01*
X27155164Y-8986323D01*
X27137530Y-9044454D01*
X27127805Y-9076511D01*
X27115000Y-9206524D01*
X27115000Y-9206531D01*
X27110719Y-9250000D01*
X27115000Y-9293469D01*
X27115001Y-19711544D01*
X27082795Y-19759744D01*
X27004774Y-19948102D01*
X26965000Y-20148061D01*
X26965000Y-20351939D01*
X27004774Y-20551898D01*
X27082795Y-20740256D01*
X27196063Y-20909774D01*
X27340226Y-21053937D01*
X27509744Y-21167205D01*
X27698102Y-21245226D01*
X27898061Y-21285000D01*
X28101939Y-21285000D01*
X28301898Y-21245226D01*
X28490256Y-21167205D01*
X28659774Y-21053937D01*
X28803937Y-20909774D01*
X28917205Y-20740256D01*
X28995226Y-20551898D01*
X29035000Y-20351939D01*
X29035000Y-20148061D01*
X28995226Y-19948102D01*
X28917205Y-19759744D01*
X28885000Y-19711546D01*
X28885000Y-9616578D01*
X33319789Y-5181790D01*
X33124435Y-22373000D01*
X24250000Y-22373000D01*
X24225224Y-22375440D01*
X24201399Y-22382667D01*
X24179443Y-22394403D01*
X24160197Y-22410197D01*
X19910197Y-26660197D01*
X19894403Y-26679443D01*
X19882667Y-26701399D01*
X19875440Y-26725224D01*
X19873000Y-26750000D01*
X19873000Y-40112920D01*
X18404956Y-41580964D01*
X18371183Y-41608681D01*
X18260589Y-41743440D01*
X18178411Y-41897186D01*
X18127805Y-42064009D01*
X18115000Y-42194022D01*
X18115000Y-42194029D01*
X18110719Y-42237498D01*
X18115000Y-42280967D01*
X18115001Y-46124940D01*
X17957748Y-46230013D01*
X17730013Y-46457748D01*
X17551082Y-46725537D01*
X17427832Y-47023088D01*
X17365000Y-47338967D01*
X17365000Y-47661033D01*
X17427832Y-47976912D01*
X17551082Y-48274463D01*
X17730013Y-48542252D01*
X17957748Y-48769987D01*
X18225537Y-48948918D01*
X18523088Y-49072168D01*
X18838967Y-49135000D01*
X19161033Y-49135000D01*
X19476912Y-49072168D01*
X19774463Y-48948918D01*
X19873000Y-48883078D01*
X19873000Y-57881454D01*
X19790279Y-57865000D01*
X19369721Y-57865000D01*
X18957244Y-57947047D01*
X18568698Y-58107988D01*
X18219017Y-58341637D01*
X17921637Y-58639017D01*
X17687988Y-58988698D01*
X17527047Y-59377244D01*
X17445000Y-59789721D01*
X17445000Y-60210279D01*
X17527047Y-60622756D01*
X17687988Y-61011302D01*
X17921637Y-61360983D01*
X18219017Y-61658363D01*
X18568698Y-61892012D01*
X18957244Y-62052953D01*
X19369721Y-62135000D01*
X19790279Y-62135000D01*
X19873000Y-62118546D01*
X19873000Y-62414990D01*
X13406531Y-62414990D01*
X13129613Y-62138072D01*
X16000000Y-62138072D01*
X16124482Y-62125812D01*
X16244180Y-62089502D01*
X16354494Y-62030537D01*
X16451185Y-61951185D01*
X16530537Y-61854494D01*
X16589502Y-61744180D01*
X16625812Y-61624482D01*
X16638072Y-61500000D01*
X16638072Y-58500000D01*
X16625812Y-58375518D01*
X16589502Y-58255820D01*
X16530537Y-58145506D01*
X16451185Y-58048815D01*
X16354494Y-57969463D01*
X16244180Y-57910498D01*
X16124482Y-57874188D01*
X16000000Y-57861928D01*
X13000000Y-57861928D01*
X12875518Y-57874188D01*
X12755820Y-57910498D01*
X12645506Y-57969463D01*
X12548815Y-58048815D01*
X12469463Y-58145506D01*
X12410498Y-58255820D01*
X12374188Y-58375518D01*
X12361928Y-58500000D01*
X12361928Y-61370387D01*
X10124962Y-59133422D01*
X10124962Y-57293465D01*
X10129243Y-57249999D01*
X10124962Y-57206533D01*
X10124962Y-57206523D01*
X10112157Y-57076510D01*
X10061551Y-56909687D01*
X9979373Y-56755941D01*
X9868779Y-56621183D01*
X9835013Y-56593472D01*
X2885000Y-49643460D01*
X2885000Y-48500000D01*
X12361928Y-48500000D01*
X12374188Y-48624482D01*
X12410498Y-48744180D01*
X12469463Y-48854494D01*
X12548815Y-48951185D01*
X12645506Y-49030537D01*
X12755820Y-49089502D01*
X12875518Y-49125812D01*
X13000000Y-49138072D01*
X13468250Y-49135000D01*
X13627000Y-48976250D01*
X13627000Y-47873000D01*
X14373000Y-47873000D01*
X14373000Y-48976250D01*
X14531750Y-49135000D01*
X15000000Y-49138072D01*
X15124482Y-49125812D01*
X15244180Y-49089502D01*
X15354494Y-49030537D01*
X15451185Y-48951185D01*
X15530537Y-48854494D01*
X15589502Y-48744180D01*
X15625812Y-48624482D01*
X15638072Y-48500000D01*
X15635000Y-48031750D01*
X15476250Y-47873000D01*
X14373000Y-47873000D01*
X13627000Y-47873000D01*
X12523750Y-47873000D01*
X12365000Y-48031750D01*
X12361928Y-48500000D01*
X2885000Y-48500000D01*
X2885000Y-46410000D01*
X3361928Y-46410000D01*
X3374188Y-46534482D01*
X3410498Y-46654180D01*
X3469463Y-46764494D01*
X3548815Y-46861185D01*
X3645506Y-46940537D01*
X3755820Y-46999502D01*
X3875518Y-47035812D01*
X4000000Y-47048072D01*
X4968250Y-47045000D01*
X5127000Y-46886250D01*
X5127000Y-45283000D01*
X5873000Y-45283000D01*
X5873000Y-46886250D01*
X6031750Y-47045000D01*
X7000000Y-47048072D01*
X7124482Y-47035812D01*
X7244180Y-46999502D01*
X7354494Y-46940537D01*
X7451185Y-46861185D01*
X7530537Y-46764494D01*
X7589502Y-46654180D01*
X7625812Y-46534482D01*
X7629208Y-46500000D01*
X12361928Y-46500000D01*
X12365000Y-46968250D01*
X12523750Y-47127000D01*
X13627000Y-47127000D01*
X13627000Y-46023750D01*
X14373000Y-46023750D01*
X14373000Y-47127000D01*
X15476250Y-47127000D01*
X15635000Y-46968250D01*
X15638072Y-46500000D01*
X15625812Y-46375518D01*
X15589502Y-46255820D01*
X15530537Y-46145506D01*
X15451185Y-46048815D01*
X15354494Y-45969463D01*
X15244180Y-45910498D01*
X15124482Y-45874188D01*
X15000000Y-45861928D01*
X14531750Y-45865000D01*
X14373000Y-46023750D01*
X13627000Y-46023750D01*
X13468250Y-45865000D01*
X13000000Y-45861928D01*
X12875518Y-45874188D01*
X12755820Y-45910498D01*
X12645506Y-45969463D01*
X12548815Y-46048815D01*
X12469463Y-46145506D01*
X12410498Y-46255820D01*
X12374188Y-46375518D01*
X12361928Y-46500000D01*
X7629208Y-46500000D01*
X7638072Y-46410000D01*
X7635000Y-45441750D01*
X7476250Y-45283000D01*
X5873000Y-45283000D01*
X5127000Y-45283000D01*
X3523750Y-45283000D01*
X3365000Y-45441750D01*
X3361928Y-46410000D01*
X2885000Y-46410000D01*
X2885000Y-44366578D01*
X3363445Y-43888133D01*
X3365000Y-44378250D01*
X3523750Y-44537000D01*
X5127000Y-44537000D01*
X5127000Y-44517000D01*
X5873000Y-44517000D01*
X5873000Y-44537000D01*
X7476250Y-44537000D01*
X7635000Y-44378250D01*
X7638072Y-43410000D01*
X7625812Y-43285518D01*
X7589502Y-43165820D01*
X7530537Y-43055506D01*
X7451185Y-42958815D01*
X7361241Y-42885000D01*
X9861531Y-42885000D01*
X9905000Y-42889281D01*
X9948469Y-42885000D01*
X9948477Y-42885000D01*
X10078490Y-42872195D01*
X10245313Y-42821589D01*
X10399059Y-42739411D01*
X10533817Y-42628817D01*
X10561534Y-42595044D01*
X12213507Y-40943072D01*
X12293750Y-40943072D01*
X12460908Y-40926608D01*
X12621642Y-40877850D01*
X12769775Y-40798671D01*
X12899615Y-40692115D01*
X12983418Y-40590000D01*
X13091582Y-40590000D01*
X13175385Y-40692115D01*
X13305225Y-40798671D01*
X13453358Y-40877850D01*
X13614092Y-40926608D01*
X13781250Y-40943072D01*
X14218750Y-40943072D01*
X14385908Y-40926608D01*
X14546642Y-40877850D01*
X14694775Y-40798671D01*
X14716701Y-40780677D01*
X14772452Y-40828331D01*
X14881563Y-40889493D01*
X15000510Y-40928193D01*
X15105750Y-40940000D01*
X15264500Y-40781250D01*
X15264500Y-40178000D01*
X15885500Y-40178000D01*
X15885500Y-40781250D01*
X16044250Y-40940000D01*
X16149490Y-40928193D01*
X16268437Y-40889493D01*
X16377548Y-40828331D01*
X16472631Y-40747058D01*
X16550031Y-40648797D01*
X16606774Y-40537324D01*
X16640679Y-40416923D01*
X16647500Y-40336750D01*
X16488750Y-40178000D01*
X15885500Y-40178000D01*
X15264500Y-40178000D01*
X15182000Y-40178000D01*
X15182000Y-39482000D01*
X15264500Y-39482000D01*
X15264500Y-38878750D01*
X15885500Y-38878750D01*
X15885500Y-39482000D01*
X16488750Y-39482000D01*
X16647500Y-39323250D01*
X16640679Y-39243077D01*
X16606774Y-39122676D01*
X16550031Y-39011203D01*
X16472631Y-38912942D01*
X16377548Y-38831669D01*
X16268437Y-38770507D01*
X16149490Y-38731807D01*
X16044250Y-38720000D01*
X15885500Y-38878750D01*
X15264500Y-38878750D01*
X15105750Y-38720000D01*
X15000510Y-38731807D01*
X14881563Y-38770507D01*
X14772452Y-38831669D01*
X14716701Y-38879323D01*
X14694775Y-38861329D01*
X14546642Y-38782150D01*
X14385908Y-38733392D01*
X14218750Y-38716928D01*
X13781250Y-38716928D01*
X13614092Y-38733392D01*
X13453358Y-38782150D01*
X13305225Y-38861329D01*
X13175385Y-38967885D01*
X13091582Y-39070000D01*
X12983418Y-39070000D01*
X12899615Y-38967885D01*
X12769775Y-38861329D01*
X12621642Y-38782150D01*
X12460908Y-38733392D01*
X12293750Y-38716928D01*
X11856250Y-38716928D01*
X11689092Y-38733392D01*
X11528358Y-38782150D01*
X11380225Y-38861329D01*
X11287500Y-38937426D01*
X11194775Y-38861329D01*
X11046642Y-38782150D01*
X10885908Y-38733392D01*
X10718750Y-38716928D01*
X10281250Y-38716928D01*
X10114092Y-38733392D01*
X9953358Y-38782150D01*
X9805225Y-38861329D01*
X9675385Y-38967885D01*
X9591582Y-39070000D01*
X7496105Y-39070000D01*
X7392012Y-38818698D01*
X7158363Y-38469017D01*
X6860983Y-38171637D01*
X6511302Y-37937988D01*
X6383378Y-37885000D01*
X9589803Y-37885000D01*
X9633272Y-37889281D01*
X9676741Y-37885000D01*
X9676749Y-37885000D01*
X9806762Y-37872195D01*
X9973585Y-37821589D01*
X10127331Y-37739411D01*
X10262089Y-37628817D01*
X10289806Y-37595044D01*
X12021779Y-35863072D01*
X12256250Y-35863072D01*
X12423408Y-35846608D01*
X12584142Y-35797850D01*
X12732275Y-35718671D01*
X12862115Y-35612115D01*
X12945918Y-35510000D01*
X13091582Y-35510000D01*
X13175385Y-35612115D01*
X13305225Y-35718671D01*
X13453358Y-35797850D01*
X13614092Y-35846608D01*
X13781250Y-35863072D01*
X14218750Y-35863072D01*
X14385908Y-35846608D01*
X14546642Y-35797850D01*
X14694775Y-35718671D01*
X14716701Y-35700677D01*
X14772452Y-35748331D01*
X14881563Y-35809493D01*
X15000510Y-35848193D01*
X15105750Y-35860000D01*
X15264500Y-35701250D01*
X15264500Y-35098000D01*
X15885500Y-35098000D01*
X15885500Y-35701250D01*
X16044250Y-35860000D01*
X16149490Y-35848193D01*
X16268437Y-35809493D01*
X16377548Y-35748331D01*
X16472631Y-35667058D01*
X16550031Y-35568797D01*
X16606774Y-35457324D01*
X16640679Y-35336923D01*
X16647500Y-35256750D01*
X16488750Y-35098000D01*
X15885500Y-35098000D01*
X15264500Y-35098000D01*
X15182000Y-35098000D01*
X15182000Y-34402000D01*
X15264500Y-34402000D01*
X15264500Y-33798750D01*
X15885500Y-33798750D01*
X15885500Y-34402000D01*
X16488750Y-34402000D01*
X16647500Y-34243250D01*
X16640679Y-34163077D01*
X16606774Y-34042676D01*
X16550031Y-33931203D01*
X16472631Y-33832942D01*
X16377548Y-33751669D01*
X16268437Y-33690507D01*
X16149490Y-33651807D01*
X16044250Y-33640000D01*
X15885500Y-33798750D01*
X15264500Y-33798750D01*
X15105750Y-33640000D01*
X15000510Y-33651807D01*
X14881563Y-33690507D01*
X14772452Y-33751669D01*
X14716701Y-33799323D01*
X14694775Y-33781329D01*
X14546642Y-33702150D01*
X14385908Y-33653392D01*
X14218750Y-33636928D01*
X13781250Y-33636928D01*
X13614092Y-33653392D01*
X13453358Y-33702150D01*
X13305225Y-33781329D01*
X13175385Y-33887885D01*
X13091582Y-33990000D01*
X12945918Y-33990000D01*
X12862115Y-33887885D01*
X12732275Y-33781329D01*
X12584142Y-33702150D01*
X12423408Y-33653392D01*
X12256250Y-33636928D01*
X11818750Y-33636928D01*
X11651592Y-33653392D01*
X11490858Y-33702150D01*
X11342725Y-33781329D01*
X11250000Y-33857426D01*
X11157275Y-33781329D01*
X11009142Y-33702150D01*
X10848408Y-33653392D01*
X10681250Y-33636928D01*
X10243750Y-33636928D01*
X10076592Y-33653392D01*
X9915858Y-33702150D01*
X9767725Y-33781329D01*
X9637885Y-33887885D01*
X9554082Y-33990000D01*
X7496105Y-33990000D01*
X7392012Y-33738698D01*
X7158363Y-33389017D01*
X6860983Y-33091637D01*
X6511302Y-32857988D01*
X6122756Y-32697047D01*
X5710279Y-32615000D01*
X5289721Y-32615000D01*
X4877244Y-32697047D01*
X4488698Y-32857988D01*
X4139017Y-33091637D01*
X3841637Y-33389017D01*
X3607988Y-33738698D01*
X3447047Y-34127244D01*
X3365000Y-34539721D01*
X3365000Y-34960279D01*
X3447047Y-35372756D01*
X3607988Y-35761302D01*
X3841637Y-36110983D01*
X3845654Y-36115000D01*
X3793469Y-36115000D01*
X3750000Y-36110719D01*
X3706531Y-36115000D01*
X3706523Y-36115000D01*
X3576510Y-36127805D01*
X3409687Y-36178411D01*
X3255941Y-36260589D01*
X3154953Y-36343468D01*
X3154951Y-36343470D01*
X3121183Y-36371183D01*
X3093470Y-36404951D01*
X885000Y-38613422D01*
X885000Y-15750000D01*
X3361928Y-15750000D01*
X3361928Y-18750000D01*
X3374188Y-18874482D01*
X3410498Y-18994180D01*
X3469463Y-19104494D01*
X3548815Y-19201185D01*
X3645506Y-19280537D01*
X3755820Y-19339502D01*
X3875518Y-19375812D01*
X4000000Y-19388072D01*
X7000000Y-19388072D01*
X7124482Y-19375812D01*
X7244180Y-19339502D01*
X7354494Y-19280537D01*
X7451185Y-19201185D01*
X7530537Y-19104494D01*
X7589502Y-18994180D01*
X7625812Y-18874482D01*
X7638072Y-18750000D01*
X7638072Y-17088967D01*
X13615000Y-17088967D01*
X13615000Y-17411033D01*
X13677832Y-17726912D01*
X13801082Y-18024463D01*
X13980013Y-18292252D01*
X14207748Y-18519987D01*
X14475537Y-18698918D01*
X14773088Y-18822168D01*
X15088967Y-18885000D01*
X15411033Y-18885000D01*
X15726912Y-18822168D01*
X16024463Y-18698918D01*
X16292252Y-18519987D01*
X16519987Y-18292252D01*
X16698918Y-18024463D01*
X16822168Y-17726912D01*
X16885000Y-17411033D01*
X16885000Y-17088967D01*
X16822168Y-16773088D01*
X16698918Y-16475537D01*
X16519987Y-16207748D01*
X16292252Y-15980013D01*
X16024463Y-15801082D01*
X15726912Y-15677832D01*
X15411033Y-15615000D01*
X15088967Y-15615000D01*
X14773088Y-15677832D01*
X14475537Y-15801082D01*
X14207748Y-15980013D01*
X13980013Y-16207748D01*
X13801082Y-16475537D01*
X13677832Y-16773088D01*
X13615000Y-17088967D01*
X7638072Y-17088967D01*
X7638072Y-15750000D01*
X7625812Y-15625518D01*
X7589502Y-15505820D01*
X7530537Y-15395506D01*
X7451185Y-15298815D01*
X7354494Y-15219463D01*
X7244180Y-15160498D01*
X7124482Y-15124188D01*
X7000000Y-15111928D01*
X4000000Y-15111928D01*
X3875518Y-15124188D01*
X3755820Y-15160498D01*
X3645506Y-15219463D01*
X3548815Y-15298815D01*
X3469463Y-15395506D01*
X3410498Y-15505820D01*
X3374188Y-15625518D01*
X3361928Y-15750000D01*
X885000Y-15750000D01*
X885000Y-11959721D01*
X3365000Y-11959721D01*
X3365000Y-12380279D01*
X3447047Y-12792756D01*
X3607988Y-13181302D01*
X3841637Y-13530983D01*
X4139017Y-13828363D01*
X4488698Y-14062012D01*
X4877244Y-14222953D01*
X5289721Y-14305000D01*
X5710279Y-14305000D01*
X6122756Y-14222953D01*
X6511302Y-14062012D01*
X6860983Y-13828363D01*
X7158363Y-13530983D01*
X7392012Y-13181302D01*
X7552953Y-12792756D01*
X7635000Y-12380279D01*
X7635000Y-11959721D01*
X7552953Y-11547244D01*
X7392012Y-11158698D01*
X7158363Y-10809017D01*
X6860983Y-10511637D01*
X6511302Y-10277988D01*
X6122756Y-10117047D01*
X5710279Y-10035000D01*
X5289721Y-10035000D01*
X4877244Y-10117047D01*
X4488698Y-10277988D01*
X4139017Y-10511637D01*
X3841637Y-10809017D01*
X3607988Y-11158698D01*
X3447047Y-11547244D01*
X3365000Y-11959721D01*
X885000Y-11959721D01*
X885000Y-4666607D01*
X1615000Y-4666607D01*
X1615000Y-5333393D01*
X1745083Y-5987368D01*
X2000252Y-6603399D01*
X2370698Y-7157812D01*
X2842188Y-7629302D01*
X3396601Y-7999748D01*
X4012632Y-8254917D01*
X4666607Y-8385000D01*
X5333393Y-8385000D01*
X5987368Y-8254917D01*
X6603399Y-7999748D01*
X7157812Y-7629302D01*
X7629302Y-7157812D01*
X7999748Y-6603399D01*
X8254917Y-5987368D01*
X8385000Y-5333393D01*
X8385000Y-4666607D01*
X8343059Y-4455750D01*
X14140000Y-4455750D01*
X14298750Y-4614500D01*
X14902000Y-4614500D01*
X14902000Y-4011250D01*
X14743250Y-3852500D01*
X14663077Y-3859321D01*
X14542676Y-3893226D01*
X14431203Y-3949969D01*
X14332942Y-4027369D01*
X14251669Y-4122452D01*
X14190507Y-4231563D01*
X14151807Y-4350510D01*
X14140000Y-4455750D01*
X8343059Y-4455750D01*
X8254917Y-4012632D01*
X7999748Y-3396601D01*
X7629302Y-2842188D01*
X7157812Y-2370698D01*
X6603399Y-2000252D01*
X5987368Y-1745083D01*
X5333393Y-1615000D01*
X4666607Y-1615000D01*
X4012632Y-1745083D01*
X3396601Y-2000252D01*
X2842188Y-2370698D01*
X2370698Y-2842188D01*
X2000252Y-3396601D01*
X1745083Y-4012632D01*
X1615000Y-4666607D01*
X885000Y-4666607D01*
X885000Y-885000D01*
X19863421Y-885000D01*
X16353208Y-4395213D01*
G37*
X16353208Y-4395213D02*
X16348193Y-4350510D01*
X16309493Y-4231563D01*
X16248331Y-4122452D01*
X16167058Y-4027369D01*
X16068797Y-3949969D01*
X15957324Y-3893226D01*
X15836923Y-3859321D01*
X15756750Y-3852500D01*
X15598000Y-4011250D01*
X15598000Y-4614500D01*
X15643000Y-4614500D01*
X15643000Y-5105422D01*
X15430422Y-5318000D01*
X14902000Y-5318000D01*
X14902000Y-5235500D01*
X14298750Y-5235500D01*
X14140000Y-5394250D01*
X14151807Y-5499490D01*
X14190507Y-5618437D01*
X14251669Y-5727548D01*
X14299323Y-5783299D01*
X14281329Y-5805225D01*
X14202150Y-5953358D01*
X14153392Y-6114092D01*
X14136928Y-6281250D01*
X14136928Y-6718750D01*
X14153392Y-6885908D01*
X14202150Y-7046642D01*
X14281329Y-7194775D01*
X14387885Y-7324615D01*
X14403586Y-7337500D01*
X14387885Y-7350385D01*
X14281329Y-7480225D01*
X14202150Y-7628358D01*
X14153392Y-7789092D01*
X14136928Y-7956250D01*
X14136928Y-8393750D01*
X14153392Y-8560908D01*
X14202150Y-8721642D01*
X14281329Y-8869775D01*
X14357426Y-8962500D01*
X14281329Y-9055225D01*
X14202150Y-9203358D01*
X14153392Y-9364092D01*
X14136928Y-9531250D01*
X14136928Y-9968750D01*
X14153392Y-10135908D01*
X14202150Y-10296642D01*
X14281329Y-10444775D01*
X14387885Y-10574615D01*
X14433351Y-10611928D01*
X14250000Y-10611928D01*
X14125518Y-10624188D01*
X14005820Y-10660498D01*
X13895506Y-10719463D01*
X13798815Y-10798815D01*
X13719463Y-10895506D01*
X13660498Y-11005820D01*
X13624188Y-11125518D01*
X13611928Y-11250000D01*
X13611928Y-13250000D01*
X13624188Y-13374482D01*
X13660498Y-13494180D01*
X13719463Y-13604494D01*
X13798815Y-13701185D01*
X13895506Y-13780537D01*
X14005820Y-13839502D01*
X14125518Y-13875812D01*
X14250000Y-13888072D01*
X16250000Y-13888072D01*
X16374482Y-13875812D01*
X16494180Y-13839502D01*
X16604494Y-13780537D01*
X16701185Y-13701185D01*
X16780537Y-13604494D01*
X16839502Y-13494180D01*
X16875812Y-13374482D01*
X16888072Y-13250000D01*
X16888072Y-11250000D01*
X16875812Y-11125518D01*
X16839502Y-11005820D01*
X16780537Y-10895506D01*
X16701185Y-10798815D01*
X16604494Y-10719463D01*
X16494180Y-10660498D01*
X16374482Y-10624188D01*
X16250000Y-10611928D01*
X16066649Y-10611928D01*
X16112115Y-10574615D01*
X16218671Y-10444775D01*
X16297850Y-10296642D01*
X16346608Y-10135908D01*
X16363072Y-9968750D01*
X16363072Y-9531250D01*
X16346608Y-9364092D01*
X16297850Y-9203358D01*
X16218671Y-9055225D01*
X16142574Y-8962500D01*
X16218671Y-8869775D01*
X16297850Y-8721642D01*
X16346608Y-8560908D01*
X16363072Y-8393750D01*
X16363072Y-7956250D01*
X16346608Y-7789092D01*
X16297850Y-7628358D01*
X16218671Y-7480225D01*
X16112115Y-7350385D01*
X16096414Y-7337500D01*
X16112115Y-7324615D01*
X16218671Y-7194775D01*
X16297850Y-7046642D01*
X16338308Y-6913270D01*
X21666569Y-1585010D01*
X33360662Y-1585010D01*
X33347861Y-2711457D01*
X33255941Y-2760589D01*
X33255939Y-2760590D01*
X33255940Y-2760590D01*
X33154953Y-2843468D01*
X33154951Y-2843470D01*
X33121183Y-2871183D01*
X33093470Y-2904951D01*
X27404956Y-8593466D01*
X27371183Y-8621183D01*
X27260589Y-8755942D01*
X27178411Y-8909688D01*
X27155164Y-8986323D01*
X27137530Y-9044454D01*
X27127805Y-9076511D01*
X27115000Y-9206524D01*
X27115000Y-9206531D01*
X27110719Y-9250000D01*
X27115000Y-9293469D01*
X27115001Y-19711544D01*
X27082795Y-19759744D01*
X27004774Y-19948102D01*
X26965000Y-20148061D01*
X26965000Y-20351939D01*
X27004774Y-20551898D01*
X27082795Y-20740256D01*
X27196063Y-20909774D01*
X27340226Y-21053937D01*
X27509744Y-21167205D01*
X27698102Y-21245226D01*
X27898061Y-21285000D01*
X28101939Y-21285000D01*
X28301898Y-21245226D01*
X28490256Y-21167205D01*
X28659774Y-21053937D01*
X28803937Y-20909774D01*
X28917205Y-20740256D01*
X28995226Y-20551898D01*
X29035000Y-20351939D01*
X29035000Y-20148061D01*
X28995226Y-19948102D01*
X28917205Y-19759744D01*
X28885000Y-19711546D01*
X28885000Y-9616578D01*
X33319789Y-5181790D01*
X33124435Y-22373000D01*
X24250000Y-22373000D01*
X24225224Y-22375440D01*
X24201399Y-22382667D01*
X24179443Y-22394403D01*
X24160197Y-22410197D01*
X19910197Y-26660197D01*
X19894403Y-26679443D01*
X19882667Y-26701399D01*
X19875440Y-26725224D01*
X19873000Y-26750000D01*
X19873000Y-40112920D01*
X18404956Y-41580964D01*
X18371183Y-41608681D01*
X18260589Y-41743440D01*
X18178411Y-41897186D01*
X18127805Y-42064009D01*
X18115000Y-42194022D01*
X18115000Y-42194029D01*
X18110719Y-42237498D01*
X18115000Y-42280967D01*
X18115001Y-46124940D01*
X17957748Y-46230013D01*
X17730013Y-46457748D01*
X17551082Y-46725537D01*
X17427832Y-47023088D01*
X17365000Y-47338967D01*
X17365000Y-47661033D01*
X17427832Y-47976912D01*
X17551082Y-48274463D01*
X17730013Y-48542252D01*
X17957748Y-48769987D01*
X18225537Y-48948918D01*
X18523088Y-49072168D01*
X18838967Y-49135000D01*
X19161033Y-49135000D01*
X19476912Y-49072168D01*
X19774463Y-48948918D01*
X19873000Y-48883078D01*
X19873000Y-57881454D01*
X19790279Y-57865000D01*
X19369721Y-57865000D01*
X18957244Y-57947047D01*
X18568698Y-58107988D01*
X18219017Y-58341637D01*
X17921637Y-58639017D01*
X17687988Y-58988698D01*
X17527047Y-59377244D01*
X17445000Y-59789721D01*
X17445000Y-60210279D01*
X17527047Y-60622756D01*
X17687988Y-61011302D01*
X17921637Y-61360983D01*
X18219017Y-61658363D01*
X18568698Y-61892012D01*
X18957244Y-62052953D01*
X19369721Y-62135000D01*
X19790279Y-62135000D01*
X19873000Y-62118546D01*
X19873000Y-62414990D01*
X13406531Y-62414990D01*
X13129613Y-62138072D01*
X16000000Y-62138072D01*
X16124482Y-62125812D01*
X16244180Y-62089502D01*
X16354494Y-62030537D01*
X16451185Y-61951185D01*
X16530537Y-61854494D01*
X16589502Y-61744180D01*
X16625812Y-61624482D01*
X16638072Y-61500000D01*
X16638072Y-58500000D01*
X16625812Y-58375518D01*
X16589502Y-58255820D01*
X16530537Y-58145506D01*
X16451185Y-58048815D01*
X16354494Y-57969463D01*
X16244180Y-57910498D01*
X16124482Y-57874188D01*
X16000000Y-57861928D01*
X13000000Y-57861928D01*
X12875518Y-57874188D01*
X12755820Y-57910498D01*
X12645506Y-57969463D01*
X12548815Y-58048815D01*
X12469463Y-58145506D01*
X12410498Y-58255820D01*
X12374188Y-58375518D01*
X12361928Y-58500000D01*
X12361928Y-61370387D01*
X10124962Y-59133422D01*
X10124962Y-57293465D01*
X10129243Y-57249999D01*
X10124962Y-57206533D01*
X10124962Y-57206523D01*
X10112157Y-57076510D01*
X10061551Y-56909687D01*
X9979373Y-56755941D01*
X9868779Y-56621183D01*
X9835013Y-56593472D01*
X2885000Y-49643460D01*
X2885000Y-48500000D01*
X12361928Y-48500000D01*
X12374188Y-48624482D01*
X12410498Y-48744180D01*
X12469463Y-48854494D01*
X12548815Y-48951185D01*
X12645506Y-49030537D01*
X12755820Y-49089502D01*
X12875518Y-49125812D01*
X13000000Y-49138072D01*
X13468250Y-49135000D01*
X13627000Y-48976250D01*
X13627000Y-47873000D01*
X14373000Y-47873000D01*
X14373000Y-48976250D01*
X14531750Y-49135000D01*
X15000000Y-49138072D01*
X15124482Y-49125812D01*
X15244180Y-49089502D01*
X15354494Y-49030537D01*
X15451185Y-48951185D01*
X15530537Y-48854494D01*
X15589502Y-48744180D01*
X15625812Y-48624482D01*
X15638072Y-48500000D01*
X15635000Y-48031750D01*
X15476250Y-47873000D01*
X14373000Y-47873000D01*
X13627000Y-47873000D01*
X12523750Y-47873000D01*
X12365000Y-48031750D01*
X12361928Y-48500000D01*
X2885000Y-48500000D01*
X2885000Y-46410000D01*
X3361928Y-46410000D01*
X3374188Y-46534482D01*
X3410498Y-46654180D01*
X3469463Y-46764494D01*
X3548815Y-46861185D01*
X3645506Y-46940537D01*
X3755820Y-46999502D01*
X3875518Y-47035812D01*
X4000000Y-47048072D01*
X4968250Y-47045000D01*
X5127000Y-46886250D01*
X5127000Y-45283000D01*
X5873000Y-45283000D01*
X5873000Y-46886250D01*
X6031750Y-47045000D01*
X7000000Y-47048072D01*
X7124482Y-47035812D01*
X7244180Y-46999502D01*
X7354494Y-46940537D01*
X7451185Y-46861185D01*
X7530537Y-46764494D01*
X7589502Y-46654180D01*
X7625812Y-46534482D01*
X7629208Y-46500000D01*
X12361928Y-46500000D01*
X12365000Y-46968250D01*
X12523750Y-47127000D01*
X13627000Y-47127000D01*
X13627000Y-46023750D01*
X14373000Y-46023750D01*
X14373000Y-47127000D01*
X15476250Y-47127000D01*
X15635000Y-46968250D01*
X15638072Y-46500000D01*
X15625812Y-46375518D01*
X15589502Y-46255820D01*
X15530537Y-46145506D01*
X15451185Y-46048815D01*
X15354494Y-45969463D01*
X15244180Y-45910498D01*
X15124482Y-45874188D01*
X15000000Y-45861928D01*
X14531750Y-45865000D01*
X14373000Y-46023750D01*
X13627000Y-46023750D01*
X13468250Y-45865000D01*
X13000000Y-45861928D01*
X12875518Y-45874188D01*
X12755820Y-45910498D01*
X12645506Y-45969463D01*
X12548815Y-46048815D01*
X12469463Y-46145506D01*
X12410498Y-46255820D01*
X12374188Y-46375518D01*
X12361928Y-46500000D01*
X7629208Y-46500000D01*
X7638072Y-46410000D01*
X7635000Y-45441750D01*
X7476250Y-45283000D01*
X5873000Y-45283000D01*
X5127000Y-45283000D01*
X3523750Y-45283000D01*
X3365000Y-45441750D01*
X3361928Y-46410000D01*
X2885000Y-46410000D01*
X2885000Y-44366578D01*
X3363445Y-43888133D01*
X3365000Y-44378250D01*
X3523750Y-44537000D01*
X5127000Y-44537000D01*
X5127000Y-44517000D01*
X5873000Y-44517000D01*
X5873000Y-44537000D01*
X7476250Y-44537000D01*
X7635000Y-44378250D01*
X7638072Y-43410000D01*
X7625812Y-43285518D01*
X7589502Y-43165820D01*
X7530537Y-43055506D01*
X7451185Y-42958815D01*
X7361241Y-42885000D01*
X9861531Y-42885000D01*
X9905000Y-42889281D01*
X9948469Y-42885000D01*
X9948477Y-42885000D01*
X10078490Y-42872195D01*
X10245313Y-42821589D01*
X10399059Y-42739411D01*
X10533817Y-42628817D01*
X10561534Y-42595044D01*
X12213507Y-40943072D01*
X12293750Y-40943072D01*
X12460908Y-40926608D01*
X12621642Y-40877850D01*
X12769775Y-40798671D01*
X12899615Y-40692115D01*
X12983418Y-40590000D01*
X13091582Y-40590000D01*
X13175385Y-40692115D01*
X13305225Y-40798671D01*
X13453358Y-40877850D01*
X13614092Y-40926608D01*
X13781250Y-40943072D01*
X14218750Y-40943072D01*
X14385908Y-40926608D01*
X14546642Y-40877850D01*
X14694775Y-40798671D01*
X14716701Y-40780677D01*
X14772452Y-40828331D01*
X14881563Y-40889493D01*
X15000510Y-40928193D01*
X15105750Y-40940000D01*
X15264500Y-40781250D01*
X15264500Y-40178000D01*
X15885500Y-40178000D01*
X15885500Y-40781250D01*
X16044250Y-40940000D01*
X16149490Y-40928193D01*
X16268437Y-40889493D01*
X16377548Y-40828331D01*
X16472631Y-40747058D01*
X16550031Y-40648797D01*
X16606774Y-40537324D01*
X16640679Y-40416923D01*
X16647500Y-40336750D01*
X16488750Y-40178000D01*
X15885500Y-40178000D01*
X15264500Y-40178000D01*
X15182000Y-40178000D01*
X15182000Y-39482000D01*
X15264500Y-39482000D01*
X15264500Y-38878750D01*
X15885500Y-38878750D01*
X15885500Y-39482000D01*
X16488750Y-39482000D01*
X16647500Y-39323250D01*
X16640679Y-39243077D01*
X16606774Y-39122676D01*
X16550031Y-39011203D01*
X16472631Y-38912942D01*
X16377548Y-38831669D01*
X16268437Y-38770507D01*
X16149490Y-38731807D01*
X16044250Y-38720000D01*
X15885500Y-38878750D01*
X15264500Y-38878750D01*
X15105750Y-38720000D01*
X15000510Y-38731807D01*
X14881563Y-38770507D01*
X14772452Y-38831669D01*
X14716701Y-38879323D01*
X14694775Y-38861329D01*
X14546642Y-38782150D01*
X14385908Y-38733392D01*
X14218750Y-38716928D01*
X13781250Y-38716928D01*
X13614092Y-38733392D01*
X13453358Y-38782150D01*
X13305225Y-38861329D01*
X13175385Y-38967885D01*
X13091582Y-39070000D01*
X12983418Y-39070000D01*
X12899615Y-38967885D01*
X12769775Y-38861329D01*
X12621642Y-38782150D01*
X12460908Y-38733392D01*
X12293750Y-38716928D01*
X11856250Y-38716928D01*
X11689092Y-38733392D01*
X11528358Y-38782150D01*
X11380225Y-38861329D01*
X11287500Y-38937426D01*
X11194775Y-38861329D01*
X11046642Y-38782150D01*
X10885908Y-38733392D01*
X10718750Y-38716928D01*
X10281250Y-38716928D01*
X10114092Y-38733392D01*
X9953358Y-38782150D01*
X9805225Y-38861329D01*
X9675385Y-38967885D01*
X9591582Y-39070000D01*
X7496105Y-39070000D01*
X7392012Y-38818698D01*
X7158363Y-38469017D01*
X6860983Y-38171637D01*
X6511302Y-37937988D01*
X6383378Y-37885000D01*
X9589803Y-37885000D01*
X9633272Y-37889281D01*
X9676741Y-37885000D01*
X9676749Y-37885000D01*
X9806762Y-37872195D01*
X9973585Y-37821589D01*
X10127331Y-37739411D01*
X10262089Y-37628817D01*
X10289806Y-37595044D01*
X12021779Y-35863072D01*
X12256250Y-35863072D01*
X12423408Y-35846608D01*
X12584142Y-35797850D01*
X12732275Y-35718671D01*
X12862115Y-35612115D01*
X12945918Y-35510000D01*
X13091582Y-35510000D01*
X13175385Y-35612115D01*
X13305225Y-35718671D01*
X13453358Y-35797850D01*
X13614092Y-35846608D01*
X13781250Y-35863072D01*
X14218750Y-35863072D01*
X14385908Y-35846608D01*
X14546642Y-35797850D01*
X14694775Y-35718671D01*
X14716701Y-35700677D01*
X14772452Y-35748331D01*
X14881563Y-35809493D01*
X15000510Y-35848193D01*
X15105750Y-35860000D01*
X15264500Y-35701250D01*
X15264500Y-35098000D01*
X15885500Y-35098000D01*
X15885500Y-35701250D01*
X16044250Y-35860000D01*
X16149490Y-35848193D01*
X16268437Y-35809493D01*
X16377548Y-35748331D01*
X16472631Y-35667058D01*
X16550031Y-35568797D01*
X16606774Y-35457324D01*
X16640679Y-35336923D01*
X16647500Y-35256750D01*
X16488750Y-35098000D01*
X15885500Y-35098000D01*
X15264500Y-35098000D01*
X15182000Y-35098000D01*
X15182000Y-34402000D01*
X15264500Y-34402000D01*
X15264500Y-33798750D01*
X15885500Y-33798750D01*
X15885500Y-34402000D01*
X16488750Y-34402000D01*
X16647500Y-34243250D01*
X16640679Y-34163077D01*
X16606774Y-34042676D01*
X16550031Y-33931203D01*
X16472631Y-33832942D01*
X16377548Y-33751669D01*
X16268437Y-33690507D01*
X16149490Y-33651807D01*
X16044250Y-33640000D01*
X15885500Y-33798750D01*
X15264500Y-33798750D01*
X15105750Y-33640000D01*
X15000510Y-33651807D01*
X14881563Y-33690507D01*
X14772452Y-33751669D01*
X14716701Y-33799323D01*
X14694775Y-33781329D01*
X14546642Y-33702150D01*
X14385908Y-33653392D01*
X14218750Y-33636928D01*
X13781250Y-33636928D01*
X13614092Y-33653392D01*
X13453358Y-33702150D01*
X13305225Y-33781329D01*
X13175385Y-33887885D01*
X13091582Y-33990000D01*
X12945918Y-33990000D01*
X12862115Y-33887885D01*
X12732275Y-33781329D01*
X12584142Y-33702150D01*
X12423408Y-33653392D01*
X12256250Y-33636928D01*
X11818750Y-33636928D01*
X11651592Y-33653392D01*
X11490858Y-33702150D01*
X11342725Y-33781329D01*
X11250000Y-33857426D01*
X11157275Y-33781329D01*
X11009142Y-33702150D01*
X10848408Y-33653392D01*
X10681250Y-33636928D01*
X10243750Y-33636928D01*
X10076592Y-33653392D01*
X9915858Y-33702150D01*
X9767725Y-33781329D01*
X9637885Y-33887885D01*
X9554082Y-33990000D01*
X7496105Y-33990000D01*
X7392012Y-33738698D01*
X7158363Y-33389017D01*
X6860983Y-33091637D01*
X6511302Y-32857988D01*
X6122756Y-32697047D01*
X5710279Y-32615000D01*
X5289721Y-32615000D01*
X4877244Y-32697047D01*
X4488698Y-32857988D01*
X4139017Y-33091637D01*
X3841637Y-33389017D01*
X3607988Y-33738698D01*
X3447047Y-34127244D01*
X3365000Y-34539721D01*
X3365000Y-34960279D01*
X3447047Y-35372756D01*
X3607988Y-35761302D01*
X3841637Y-36110983D01*
X3845654Y-36115000D01*
X3793469Y-36115000D01*
X3750000Y-36110719D01*
X3706531Y-36115000D01*
X3706523Y-36115000D01*
X3576510Y-36127805D01*
X3409687Y-36178411D01*
X3255941Y-36260589D01*
X3154953Y-36343468D01*
X3154951Y-36343470D01*
X3121183Y-36371183D01*
X3093470Y-36404951D01*
X885000Y-38613422D01*
X885000Y-15750000D01*
X3361928Y-15750000D01*
X3361928Y-18750000D01*
X3374188Y-18874482D01*
X3410498Y-18994180D01*
X3469463Y-19104494D01*
X3548815Y-19201185D01*
X3645506Y-19280537D01*
X3755820Y-19339502D01*
X3875518Y-19375812D01*
X4000000Y-19388072D01*
X7000000Y-19388072D01*
X7124482Y-19375812D01*
X7244180Y-19339502D01*
X7354494Y-19280537D01*
X7451185Y-19201185D01*
X7530537Y-19104494D01*
X7589502Y-18994180D01*
X7625812Y-18874482D01*
X7638072Y-18750000D01*
X7638072Y-17088967D01*
X13615000Y-17088967D01*
X13615000Y-17411033D01*
X13677832Y-17726912D01*
X13801082Y-18024463D01*
X13980013Y-18292252D01*
X14207748Y-18519987D01*
X14475537Y-18698918D01*
X14773088Y-18822168D01*
X15088967Y-18885000D01*
X15411033Y-18885000D01*
X15726912Y-18822168D01*
X16024463Y-18698918D01*
X16292252Y-18519987D01*
X16519987Y-18292252D01*
X16698918Y-18024463D01*
X16822168Y-17726912D01*
X16885000Y-17411033D01*
X16885000Y-17088967D01*
X16822168Y-16773088D01*
X16698918Y-16475537D01*
X16519987Y-16207748D01*
X16292252Y-15980013D01*
X16024463Y-15801082D01*
X15726912Y-15677832D01*
X15411033Y-15615000D01*
X15088967Y-15615000D01*
X14773088Y-15677832D01*
X14475537Y-15801082D01*
X14207748Y-15980013D01*
X13980013Y-16207748D01*
X13801082Y-16475537D01*
X13677832Y-16773088D01*
X13615000Y-17088967D01*
X7638072Y-17088967D01*
X7638072Y-15750000D01*
X7625812Y-15625518D01*
X7589502Y-15505820D01*
X7530537Y-15395506D01*
X7451185Y-15298815D01*
X7354494Y-15219463D01*
X7244180Y-15160498D01*
X7124482Y-15124188D01*
X7000000Y-15111928D01*
X4000000Y-15111928D01*
X3875518Y-15124188D01*
X3755820Y-15160498D01*
X3645506Y-15219463D01*
X3548815Y-15298815D01*
X3469463Y-15395506D01*
X3410498Y-15505820D01*
X3374188Y-15625518D01*
X3361928Y-15750000D01*
X885000Y-15750000D01*
X885000Y-11959721D01*
X3365000Y-11959721D01*
X3365000Y-12380279D01*
X3447047Y-12792756D01*
X3607988Y-13181302D01*
X3841637Y-13530983D01*
X4139017Y-13828363D01*
X4488698Y-14062012D01*
X4877244Y-14222953D01*
X5289721Y-14305000D01*
X5710279Y-14305000D01*
X6122756Y-14222953D01*
X6511302Y-14062012D01*
X6860983Y-13828363D01*
X7158363Y-13530983D01*
X7392012Y-13181302D01*
X7552953Y-12792756D01*
X7635000Y-12380279D01*
X7635000Y-11959721D01*
X7552953Y-11547244D01*
X7392012Y-11158698D01*
X7158363Y-10809017D01*
X6860983Y-10511637D01*
X6511302Y-10277988D01*
X6122756Y-10117047D01*
X5710279Y-10035000D01*
X5289721Y-10035000D01*
X4877244Y-10117047D01*
X4488698Y-10277988D01*
X4139017Y-10511637D01*
X3841637Y-10809017D01*
X3607988Y-11158698D01*
X3447047Y-11547244D01*
X3365000Y-11959721D01*
X885000Y-11959721D01*
X885000Y-4666607D01*
X1615000Y-4666607D01*
X1615000Y-5333393D01*
X1745083Y-5987368D01*
X2000252Y-6603399D01*
X2370698Y-7157812D01*
X2842188Y-7629302D01*
X3396601Y-7999748D01*
X4012632Y-8254917D01*
X4666607Y-8385000D01*
X5333393Y-8385000D01*
X5987368Y-8254917D01*
X6603399Y-7999748D01*
X7157812Y-7629302D01*
X7629302Y-7157812D01*
X7999748Y-6603399D01*
X8254917Y-5987368D01*
X8385000Y-5333393D01*
X8385000Y-4666607D01*
X8343059Y-4455750D01*
X14140000Y-4455750D01*
X14298750Y-4614500D01*
X14902000Y-4614500D01*
X14902000Y-4011250D01*
X14743250Y-3852500D01*
X14663077Y-3859321D01*
X14542676Y-3893226D01*
X14431203Y-3949969D01*
X14332942Y-4027369D01*
X14251669Y-4122452D01*
X14190507Y-4231563D01*
X14151807Y-4350510D01*
X14140000Y-4455750D01*
X8343059Y-4455750D01*
X8254917Y-4012632D01*
X7999748Y-3396601D01*
X7629302Y-2842188D01*
X7157812Y-2370698D01*
X6603399Y-2000252D01*
X5987368Y-1745083D01*
X5333393Y-1615000D01*
X4666607Y-1615000D01*
X4012632Y-1745083D01*
X3396601Y-2000252D01*
X2842188Y-2370698D01*
X2370698Y-2842188D01*
X2000252Y-3396601D01*
X1745083Y-4012632D01*
X1615000Y-4666607D01*
X885000Y-4666607D01*
X885000Y-885000D01*
X19863421Y-885000D01*
X16353208Y-4395213D01*
G36*
X94115001Y-64115000D02*
G01*
X75386578Y-64115000D01*
X79834971Y-59666607D01*
X86615000Y-59666607D01*
X86615000Y-60333393D01*
X86745083Y-60987368D01*
X87000252Y-61603399D01*
X87370698Y-62157812D01*
X87842188Y-62629302D01*
X88396601Y-62999748D01*
X89012632Y-63254917D01*
X89666607Y-63385000D01*
X90333393Y-63385000D01*
X90987368Y-63254917D01*
X91603399Y-62999748D01*
X92157812Y-62629302D01*
X92629302Y-62157812D01*
X92999748Y-61603399D01*
X93254917Y-60987368D01*
X93385000Y-60333393D01*
X93385000Y-59666607D01*
X93254917Y-59012632D01*
X92999748Y-58396601D01*
X92629302Y-57842188D01*
X92157812Y-57370698D01*
X91603399Y-57000252D01*
X90987368Y-56745083D01*
X90333393Y-56615000D01*
X89666607Y-56615000D01*
X89012632Y-56745083D01*
X88396601Y-57000252D01*
X87842188Y-57370698D01*
X87370698Y-57842188D01*
X87000252Y-58396601D01*
X86745083Y-59012632D01*
X86615000Y-59666607D01*
X79834971Y-59666607D01*
X81420041Y-58081538D01*
X81453807Y-58053827D01*
X81506673Y-57989411D01*
X81541440Y-57947047D01*
X81564401Y-57919069D01*
X81646579Y-57765323D01*
X81697185Y-57598500D01*
X81709990Y-57468487D01*
X81709990Y-57468477D01*
X81714271Y-57425011D01*
X81709990Y-57381544D01*
X81709990Y-47583589D01*
X82645000Y-47583589D01*
X82645000Y-47856411D01*
X82698225Y-48123989D01*
X82802629Y-48376043D01*
X82954201Y-48602886D01*
X83147114Y-48795799D01*
X83373957Y-48947371D01*
X83476873Y-48990000D01*
X83373957Y-49032629D01*
X83147114Y-49184201D01*
X82954201Y-49377114D01*
X82802629Y-49603957D01*
X82698225Y-49856011D01*
X82645000Y-50123589D01*
X82645000Y-50396411D01*
X82698225Y-50663989D01*
X82802629Y-50916043D01*
X82954201Y-51142886D01*
X83147114Y-51335799D01*
X83373957Y-51487371D01*
X83626011Y-51591775D01*
X83893589Y-51645000D01*
X84166411Y-51645000D01*
X84433989Y-51591775D01*
X84686043Y-51487371D01*
X84912886Y-51335799D01*
X85105799Y-51142886D01*
X85257371Y-50916043D01*
X85361775Y-50663989D01*
X85415000Y-50396411D01*
X85415000Y-50123589D01*
X85361775Y-49856011D01*
X85257371Y-49603957D01*
X85105799Y-49377114D01*
X84912886Y-49184201D01*
X84686043Y-49032629D01*
X84583127Y-48990000D01*
X84686043Y-48947371D01*
X84912886Y-48795799D01*
X85105799Y-48602886D01*
X85257371Y-48376043D01*
X85361775Y-48123989D01*
X85415000Y-47856411D01*
X85415000Y-47583589D01*
X85361775Y-47316011D01*
X85257371Y-47063957D01*
X85105799Y-46837114D01*
X84912886Y-46644201D01*
X84686043Y-46492629D01*
X84536868Y-46430839D01*
X84597224Y-46274726D01*
X84030000Y-45707502D01*
X83462776Y-46274726D01*
X83523132Y-46430839D01*
X83373957Y-46492629D01*
X83147114Y-46644201D01*
X82954201Y-46837114D01*
X82802629Y-47063957D01*
X82698225Y-47316011D01*
X82645000Y-47583589D01*
X81709990Y-47583589D01*
X81709990Y-45229694D01*
X82639186Y-45229694D01*
X82675605Y-45500073D01*
X82726039Y-45666330D01*
X82935274Y-45747224D01*
X83502498Y-45180000D01*
X84557502Y-45180000D01*
X85124726Y-45747224D01*
X85333961Y-45666330D01*
X85403785Y-45402595D01*
X85420814Y-45130306D01*
X85384395Y-44859927D01*
X85333961Y-44693670D01*
X85124726Y-44612776D01*
X84557502Y-45180000D01*
X83502498Y-45180000D01*
X82935274Y-44612776D01*
X82726039Y-44693670D01*
X82656215Y-44957405D01*
X82639186Y-45229694D01*
X81709990Y-45229694D01*
X81709990Y-34883589D01*
X82645000Y-34883589D01*
X82645000Y-35156411D01*
X82698225Y-35423989D01*
X82802629Y-35676043D01*
X82954201Y-35902886D01*
X83147114Y-36095799D01*
X83373957Y-36247371D01*
X83476873Y-36290000D01*
X83373957Y-36332629D01*
X83147114Y-36484201D01*
X82954201Y-36677114D01*
X82802629Y-36903957D01*
X82698225Y-37156011D01*
X82645000Y-37423589D01*
X82645000Y-37696411D01*
X82698225Y-37963989D01*
X82802629Y-38216043D01*
X82954201Y-38442886D01*
X83147114Y-38635799D01*
X83373957Y-38787371D01*
X83476873Y-38830000D01*
X83373957Y-38872629D01*
X83147114Y-39024201D01*
X82954201Y-39217114D01*
X82802629Y-39443957D01*
X82698225Y-39696011D01*
X82645000Y-39963589D01*
X82645000Y-40236411D01*
X82698225Y-40503989D01*
X82802629Y-40756043D01*
X82954201Y-40982886D01*
X83147114Y-41175799D01*
X83373957Y-41327371D01*
X83476873Y-41370000D01*
X83373957Y-41412629D01*
X83147114Y-41564201D01*
X82954201Y-41757114D01*
X82802629Y-41983957D01*
X82698225Y-42236011D01*
X82645000Y-42503589D01*
X82645000Y-42776411D01*
X82698225Y-43043989D01*
X82802629Y-43296043D01*
X82954201Y-43522886D01*
X83147114Y-43715799D01*
X83373957Y-43867371D01*
X83523132Y-43929161D01*
X83462776Y-44085274D01*
X84030000Y-44652498D01*
X84597224Y-44085274D01*
X84536868Y-43929161D01*
X84686043Y-43867371D01*
X84912886Y-43715799D01*
X85105799Y-43522886D01*
X85257371Y-43296043D01*
X85361775Y-43043989D01*
X85415000Y-42776411D01*
X85415000Y-42503589D01*
X85361775Y-42236011D01*
X85257371Y-41983957D01*
X85105799Y-41757114D01*
X84912886Y-41564201D01*
X84686043Y-41412629D01*
X84583127Y-41370000D01*
X84686043Y-41327371D01*
X84912886Y-41175799D01*
X85105799Y-40982886D01*
X85257371Y-40756043D01*
X85361775Y-40503989D01*
X85415000Y-40236411D01*
X85415000Y-39963589D01*
X85361775Y-39696011D01*
X85257371Y-39443957D01*
X85105799Y-39217114D01*
X84912886Y-39024201D01*
X84686043Y-38872629D01*
X84583127Y-38830000D01*
X84686043Y-38787371D01*
X84912886Y-38635799D01*
X85105799Y-38442886D01*
X85257371Y-38216043D01*
X85361775Y-37963989D01*
X85415000Y-37696411D01*
X85415000Y-37423589D01*
X85361775Y-37156011D01*
X85257371Y-36903957D01*
X85105799Y-36677114D01*
X84958685Y-36530000D01*
X88511928Y-36530000D01*
X88511928Y-38230000D01*
X88524188Y-38354482D01*
X88560498Y-38474180D01*
X88619463Y-38584494D01*
X88698815Y-38681185D01*
X88795506Y-38760537D01*
X88905820Y-38819502D01*
X88978380Y-38841513D01*
X88846525Y-38973368D01*
X88684010Y-39216589D01*
X88572068Y-39486842D01*
X88515000Y-39773740D01*
X88515000Y-40066260D01*
X88572068Y-40353158D01*
X88684010Y-40623411D01*
X88846525Y-40866632D01*
X89053368Y-41073475D01*
X89227760Y-41190000D01*
X89053368Y-41306525D01*
X88846525Y-41513368D01*
X88684010Y-41756589D01*
X88572068Y-42026842D01*
X88515000Y-42313740D01*
X88515000Y-42606260D01*
X88572068Y-42893158D01*
X88684010Y-43163411D01*
X88846525Y-43406632D01*
X89053368Y-43613475D01*
X89227760Y-43730000D01*
X89053368Y-43846525D01*
X88846525Y-44053368D01*
X88684010Y-44296589D01*
X88572068Y-44566842D01*
X88515000Y-44853740D01*
X88515000Y-45146260D01*
X88572068Y-45433158D01*
X88684010Y-45703411D01*
X88846525Y-45946632D01*
X89053368Y-46153475D01*
X89227760Y-46270000D01*
X89053368Y-46386525D01*
X88846525Y-46593368D01*
X88684010Y-46836589D01*
X88572068Y-47106842D01*
X88515000Y-47393740D01*
X88515000Y-47686260D01*
X88572068Y-47973158D01*
X88684010Y-48243411D01*
X88846525Y-48486632D01*
X89053368Y-48693475D01*
X89227760Y-48810000D01*
X89053368Y-48926525D01*
X88846525Y-49133368D01*
X88684010Y-49376589D01*
X88572068Y-49646842D01*
X88515000Y-49933740D01*
X88515000Y-50226260D01*
X88572068Y-50513158D01*
X88684010Y-50783411D01*
X88846525Y-51026632D01*
X89053368Y-51233475D01*
X89227760Y-51350000D01*
X89053368Y-51466525D01*
X88846525Y-51673368D01*
X88684010Y-51916589D01*
X88572068Y-52186842D01*
X88515000Y-52473740D01*
X88515000Y-52766260D01*
X88572068Y-53053158D01*
X88684010Y-53323411D01*
X88846525Y-53566632D01*
X89053368Y-53773475D01*
X89296589Y-53935990D01*
X89566842Y-54047932D01*
X89853740Y-54105000D01*
X90146260Y-54105000D01*
X90433158Y-54047932D01*
X90703411Y-53935990D01*
X90946632Y-53773475D01*
X91153475Y-53566632D01*
X91315990Y-53323411D01*
X91427932Y-53053158D01*
X91485000Y-52766260D01*
X91485000Y-52473740D01*
X91427932Y-52186842D01*
X91315990Y-51916589D01*
X91153475Y-51673368D01*
X90946632Y-51466525D01*
X90772240Y-51350000D01*
X90946632Y-51233475D01*
X91153475Y-51026632D01*
X91315990Y-50783411D01*
X91427932Y-50513158D01*
X91485000Y-50226260D01*
X91485000Y-49933740D01*
X91427932Y-49646842D01*
X91315990Y-49376589D01*
X91153475Y-49133368D01*
X90946632Y-48926525D01*
X90772240Y-48810000D01*
X90946632Y-48693475D01*
X91153475Y-48486632D01*
X91315990Y-48243411D01*
X91427932Y-47973158D01*
X91485000Y-47686260D01*
X91485000Y-47393740D01*
X91427932Y-47106842D01*
X91315990Y-46836589D01*
X91153475Y-46593368D01*
X90946632Y-46386525D01*
X90772240Y-46270000D01*
X90946632Y-46153475D01*
X91153475Y-45946632D01*
X91315990Y-45703411D01*
X91427932Y-45433158D01*
X91485000Y-45146260D01*
X91485000Y-44853740D01*
X91427932Y-44566842D01*
X91315990Y-44296589D01*
X91153475Y-44053368D01*
X90946632Y-43846525D01*
X90772240Y-43730000D01*
X90946632Y-43613475D01*
X91153475Y-43406632D01*
X91315990Y-43163411D01*
X91427932Y-42893158D01*
X91485000Y-42606260D01*
X91485000Y-42313740D01*
X91427932Y-42026842D01*
X91315990Y-41756589D01*
X91153475Y-41513368D01*
X90946632Y-41306525D01*
X90772240Y-41190000D01*
X90946632Y-41073475D01*
X91153475Y-40866632D01*
X91315990Y-40623411D01*
X91427932Y-40353158D01*
X91485000Y-40066260D01*
X91485000Y-39773740D01*
X91427932Y-39486842D01*
X91315990Y-39216589D01*
X91153475Y-38973368D01*
X91021620Y-38841513D01*
X91094180Y-38819502D01*
X91204494Y-38760537D01*
X91301185Y-38681185D01*
X91380537Y-38584494D01*
X91439502Y-38474180D01*
X91475812Y-38354482D01*
X91488072Y-38230000D01*
X91488072Y-36530000D01*
X91475812Y-36405518D01*
X91439502Y-36285820D01*
X91380537Y-36175506D01*
X91301185Y-36078815D01*
X91204494Y-35999463D01*
X91094180Y-35940498D01*
X90974482Y-35904188D01*
X90850000Y-35891928D01*
X89150000Y-35891928D01*
X89025518Y-35904188D01*
X88905820Y-35940498D01*
X88795506Y-35999463D01*
X88698815Y-36078815D01*
X88619463Y-36175506D01*
X88560498Y-36285820D01*
X88524188Y-36405518D01*
X88511928Y-36530000D01*
X84958685Y-36530000D01*
X84912886Y-36484201D01*
X84686043Y-36332629D01*
X84583127Y-36290000D01*
X84686043Y-36247371D01*
X84912886Y-36095799D01*
X85105799Y-35902886D01*
X85257371Y-35676043D01*
X85361775Y-35423989D01*
X85415000Y-35156411D01*
X85415000Y-34883589D01*
X85361775Y-34616011D01*
X85257371Y-34363957D01*
X85105799Y-34137114D01*
X84912886Y-33944201D01*
X84686043Y-33792629D01*
X84536868Y-33730839D01*
X84597224Y-33574726D01*
X84030000Y-33007502D01*
X83462776Y-33574726D01*
X83523132Y-33730839D01*
X83373957Y-33792629D01*
X83147114Y-33944201D01*
X82954201Y-34137114D01*
X82802629Y-34363957D01*
X82698225Y-34616011D01*
X82645000Y-34883589D01*
X81709990Y-34883589D01*
X81709990Y-32529694D01*
X82639186Y-32529694D01*
X82675605Y-32800073D01*
X82726039Y-32966330D01*
X82935274Y-33047224D01*
X83502498Y-32480000D01*
X84557502Y-32480000D01*
X85124726Y-33047224D01*
X85333961Y-32966330D01*
X85403785Y-32702595D01*
X85420814Y-32430306D01*
X85384395Y-32159927D01*
X85333961Y-31993670D01*
X85124726Y-31912776D01*
X84557502Y-32480000D01*
X83502498Y-32480000D01*
X82935274Y-31912776D01*
X82726039Y-31993670D01*
X82656215Y-32257405D01*
X82639186Y-32529694D01*
X81709990Y-32529694D01*
X81709990Y-26445816D01*
X81973807Y-26182000D01*
X82098000Y-26182000D01*
X82098000Y-26264500D01*
X82701250Y-26264500D01*
X82860000Y-26105750D01*
X82848193Y-26000510D01*
X82809493Y-25881563D01*
X82748331Y-25772452D01*
X82724866Y-25745000D01*
X82956315Y-25745000D01*
X83147114Y-25935799D01*
X83373957Y-26087371D01*
X83476873Y-26130000D01*
X83373957Y-26172629D01*
X83147114Y-26324201D01*
X82954201Y-26517114D01*
X82802629Y-26743957D01*
X82731479Y-26915729D01*
X82701250Y-26885500D01*
X82098000Y-26885500D01*
X82098000Y-27488750D01*
X82256750Y-27647500D01*
X82336923Y-27640679D01*
X82457324Y-27606774D01*
X82568797Y-27550031D01*
X82645000Y-27490006D01*
X82645000Y-27536411D01*
X82698225Y-27803989D01*
X82802629Y-28056043D01*
X82954201Y-28282886D01*
X83147114Y-28475799D01*
X83373957Y-28627371D01*
X83476873Y-28670000D01*
X83373957Y-28712629D01*
X83147114Y-28864201D01*
X82954201Y-29057114D01*
X82802629Y-29283957D01*
X82698225Y-29536011D01*
X82645000Y-29803589D01*
X82645000Y-30076411D01*
X82698225Y-30343989D01*
X82802629Y-30596043D01*
X82954201Y-30822886D01*
X83147114Y-31015799D01*
X83373957Y-31167371D01*
X83523132Y-31229161D01*
X83462776Y-31385274D01*
X84030000Y-31952498D01*
X84597224Y-31385274D01*
X84536868Y-31229161D01*
X84686043Y-31167371D01*
X84912886Y-31015799D01*
X85105799Y-30822886D01*
X85257371Y-30596043D01*
X85361775Y-30343989D01*
X85415000Y-30076411D01*
X85415000Y-29803589D01*
X85361775Y-29536011D01*
X85257371Y-29283957D01*
X85105799Y-29057114D01*
X84912886Y-28864201D01*
X84686043Y-28712629D01*
X84583127Y-28670000D01*
X84686043Y-28627371D01*
X84912886Y-28475799D01*
X85105799Y-28282886D01*
X85257371Y-28056043D01*
X85361775Y-27803989D01*
X85415000Y-27536411D01*
X85415000Y-27263589D01*
X85361775Y-26996011D01*
X85257371Y-26743957D01*
X85105799Y-26517114D01*
X84912886Y-26324201D01*
X84686043Y-26172629D01*
X84583127Y-26130000D01*
X84686043Y-26087371D01*
X84912886Y-25935799D01*
X85105799Y-25742886D01*
X85257371Y-25516043D01*
X85361775Y-25263989D01*
X85415000Y-24996411D01*
X85415000Y-24723589D01*
X85376399Y-24529527D01*
X86747974Y-24529527D01*
X86861302Y-24763678D01*
X87168877Y-24859197D01*
X87489178Y-24892875D01*
X87809895Y-24863418D01*
X88118703Y-24771960D01*
X88138698Y-24763678D01*
X88252026Y-24529527D01*
X87500000Y-23777502D01*
X86747974Y-24529527D01*
X85376399Y-24529527D01*
X85361775Y-24456011D01*
X85257371Y-24203957D01*
X85105799Y-23977114D01*
X84912886Y-23784201D01*
X84686043Y-23632629D01*
X84583127Y-23590000D01*
X84686043Y-23547371D01*
X84912886Y-23395799D01*
X85069507Y-23239178D01*
X85857125Y-23239178D01*
X85886582Y-23559895D01*
X85978040Y-23868703D01*
X85986322Y-23888698D01*
X86220473Y-24002026D01*
X86972498Y-23250000D01*
X88027502Y-23250000D01*
X88779527Y-24002026D01*
X89013678Y-23888698D01*
X89109197Y-23581123D01*
X89142875Y-23260822D01*
X89127091Y-23088967D01*
X90365000Y-23088967D01*
X90365000Y-23411033D01*
X90427832Y-23726912D01*
X90551082Y-24024463D01*
X90730013Y-24292252D01*
X90957748Y-24519987D01*
X91225537Y-24698918D01*
X91523088Y-24822168D01*
X91838967Y-24885000D01*
X92161033Y-24885000D01*
X92476912Y-24822168D01*
X92774463Y-24698918D01*
X93042252Y-24519987D01*
X93269987Y-24292252D01*
X93448918Y-24024463D01*
X93572168Y-23726912D01*
X93635000Y-23411033D01*
X93635000Y-23088967D01*
X93572168Y-22773088D01*
X93448918Y-22475537D01*
X93269987Y-22207748D01*
X93042252Y-21980013D01*
X92774463Y-21801082D01*
X92476912Y-21677832D01*
X92161033Y-21615000D01*
X91838967Y-21615000D01*
X91523088Y-21677832D01*
X91225537Y-21801082D01*
X90957748Y-21980013D01*
X90730013Y-22207748D01*
X90551082Y-22475537D01*
X90427832Y-22773088D01*
X90365000Y-23088967D01*
X89127091Y-23088967D01*
X89113418Y-22940105D01*
X89021960Y-22631297D01*
X89013678Y-22611302D01*
X88779527Y-22497974D01*
X88027502Y-23250000D01*
X86972498Y-23250000D01*
X86220473Y-22497974D01*
X85986322Y-22611302D01*
X85890803Y-22918877D01*
X85857125Y-23239178D01*
X85069507Y-23239178D01*
X85105799Y-23202886D01*
X85257371Y-22976043D01*
X85361775Y-22723989D01*
X85415000Y-22456411D01*
X85415000Y-22183589D01*
X85372609Y-21970473D01*
X86747974Y-21970473D01*
X87500000Y-22722498D01*
X88252026Y-21970473D01*
X88138698Y-21736322D01*
X87831123Y-21640803D01*
X87510822Y-21607125D01*
X87190105Y-21636582D01*
X86881297Y-21728040D01*
X86861302Y-21736322D01*
X86747974Y-21970473D01*
X85372609Y-21970473D01*
X85361775Y-21916011D01*
X85257371Y-21663957D01*
X85105799Y-21437114D01*
X84912886Y-21244201D01*
X84686043Y-21092629D01*
X84536868Y-21030839D01*
X84597224Y-20874726D01*
X84030000Y-20307502D01*
X83462776Y-20874726D01*
X83523132Y-21030839D01*
X83373957Y-21092629D01*
X83147114Y-21244201D01*
X82956315Y-21435000D01*
X82772181Y-21435000D01*
X82809493Y-21368437D01*
X82848193Y-21249490D01*
X82860000Y-21144250D01*
X82701250Y-20985500D01*
X82098000Y-20985500D01*
X82098000Y-21068000D01*
X81402000Y-21068000D01*
X81402000Y-20985500D01*
X80798750Y-20985500D01*
X80640000Y-21144250D01*
X80651807Y-21249490D01*
X80690507Y-21368437D01*
X80751669Y-21477548D01*
X80799323Y-21533299D01*
X80781329Y-21555225D01*
X80702150Y-21703358D01*
X80661693Y-21836729D01*
X79404956Y-23093466D01*
X79371183Y-23121183D01*
X79260589Y-23255942D01*
X79178411Y-23409688D01*
X79161632Y-23465000D01*
X79135540Y-23551014D01*
X79127805Y-23576511D01*
X79115000Y-23706524D01*
X79115000Y-23706531D01*
X79110719Y-23750000D01*
X79115000Y-23793469D01*
X79115001Y-56883420D01*
X73583432Y-62414990D01*
X19877000Y-62414990D01*
X19877000Y-62117750D01*
X20202756Y-62052953D01*
X20591302Y-61892012D01*
X20940983Y-61658363D01*
X21238363Y-61360983D01*
X21472012Y-61011302D01*
X21632953Y-60622756D01*
X21715000Y-60210279D01*
X21715000Y-59789721D01*
X22525000Y-59789721D01*
X22525000Y-60210279D01*
X22607047Y-60622756D01*
X22767988Y-61011302D01*
X23001637Y-61360983D01*
X23299017Y-61658363D01*
X23648698Y-61892012D01*
X24037244Y-62052953D01*
X24449721Y-62135000D01*
X24870279Y-62135000D01*
X25282756Y-62052953D01*
X25671302Y-61892012D01*
X26020983Y-61658363D01*
X26035854Y-61643492D01*
X28624009Y-61643492D01*
X28799976Y-61928418D01*
X29194254Y-62074754D01*
X29609506Y-62141358D01*
X30029771Y-62125670D01*
X30438901Y-62028295D01*
X30680024Y-61928418D01*
X30855991Y-61643492D01*
X29740000Y-60527502D01*
X28624009Y-61643492D01*
X26035854Y-61643492D01*
X26318363Y-61360983D01*
X26552012Y-61011302D01*
X26712953Y-60622756D01*
X26795000Y-60210279D01*
X26795000Y-59869506D01*
X27598642Y-59869506D01*
X27614330Y-60289771D01*
X27711705Y-60698901D01*
X27811582Y-60940024D01*
X28096508Y-61115991D01*
X29212498Y-60000000D01*
X30267502Y-60000000D01*
X31383492Y-61115991D01*
X31668418Y-60940024D01*
X31814754Y-60545746D01*
X31881358Y-60130494D01*
X31865670Y-59710229D01*
X31768295Y-59301099D01*
X31668418Y-59059976D01*
X31383492Y-58884009D01*
X30267502Y-60000000D01*
X29212498Y-60000000D01*
X28096508Y-58884009D01*
X27811582Y-59059976D01*
X27665246Y-59454254D01*
X27598642Y-59869506D01*
X26795000Y-59869506D01*
X26795000Y-59789721D01*
X26712953Y-59377244D01*
X26552012Y-58988698D01*
X26318363Y-58639017D01*
X26035854Y-58356508D01*
X28624009Y-58356508D01*
X29740000Y-59472498D01*
X30855991Y-58356508D01*
X30680024Y-58071582D01*
X30285746Y-57925246D01*
X29870494Y-57858642D01*
X29450229Y-57874330D01*
X29041099Y-57971705D01*
X28799976Y-58071582D01*
X28624009Y-58356508D01*
X26035854Y-58356508D01*
X26020983Y-58341637D01*
X25671302Y-58107988D01*
X25545000Y-58055672D01*
X25545000Y-55206578D01*
X32616579Y-48135000D01*
X34461546Y-48135000D01*
X34509744Y-48167205D01*
X34698102Y-48245226D01*
X34898061Y-48285000D01*
X35101939Y-48285000D01*
X35301898Y-48245226D01*
X35490256Y-48167205D01*
X35538454Y-48135000D01*
X40456531Y-48135000D01*
X40500000Y-48139281D01*
X40543469Y-48135000D01*
X40543477Y-48135000D01*
X40673490Y-48122195D01*
X40840313Y-48071589D01*
X40994059Y-47989411D01*
X41128817Y-47878817D01*
X41156534Y-47845044D01*
X41995044Y-47006535D01*
X42051898Y-46995226D01*
X42240256Y-46917205D01*
X42409774Y-46803937D01*
X42553937Y-46659774D01*
X42667205Y-46490256D01*
X42745226Y-46301898D01*
X42785000Y-46101939D01*
X42785000Y-45898061D01*
X42745226Y-45698102D01*
X42667205Y-45509744D01*
X42553937Y-45340226D01*
X42522510Y-45308799D01*
X42522510Y-45010027D01*
X42648061Y-45035000D01*
X42851939Y-45035000D01*
X43051898Y-44995226D01*
X43240256Y-44917205D01*
X43409774Y-44803937D01*
X43553937Y-44659774D01*
X43667205Y-44490256D01*
X43745226Y-44301898D01*
X43785000Y-44101939D01*
X43785000Y-43898061D01*
X43745226Y-43698102D01*
X43667205Y-43509744D01*
X43553937Y-43340226D01*
X43409774Y-43196063D01*
X43335000Y-43146101D01*
X43335000Y-42407644D01*
X43399615Y-42354616D01*
X43506171Y-42224776D01*
X43585350Y-42076643D01*
X43634108Y-41915909D01*
X43650572Y-41748751D01*
X43650572Y-41236251D01*
X43634108Y-41069093D01*
X43585350Y-40908359D01*
X43506171Y-40760226D01*
X43399615Y-40630386D01*
X43269775Y-40523830D01*
X43121642Y-40444651D01*
X42960908Y-40395893D01*
X42793750Y-40379429D01*
X42522510Y-40379429D01*
X42522510Y-39260561D01*
X44327500Y-39260561D01*
X44327500Y-39464439D01*
X44367274Y-39664398D01*
X44445295Y-39852756D01*
X44558563Y-40022274D01*
X44702726Y-40166437D01*
X44872244Y-40279705D01*
X45060602Y-40357726D01*
X45260561Y-40397500D01*
X45464439Y-40397500D01*
X45664398Y-40357726D01*
X45852756Y-40279705D01*
X46022274Y-40166437D01*
X46066211Y-40122500D01*
X48183789Y-40122500D01*
X48227726Y-40166437D01*
X48397244Y-40279705D01*
X48585602Y-40357726D01*
X48785561Y-40397500D01*
X48989439Y-40397500D01*
X49189398Y-40357726D01*
X49377756Y-40279705D01*
X49547274Y-40166437D01*
X49691437Y-40022274D01*
X49804705Y-39852756D01*
X49882726Y-39664398D01*
X49922500Y-39464439D01*
X49922500Y-39260561D01*
X49882726Y-39060602D01*
X49804705Y-38872244D01*
X49691437Y-38702726D01*
X49547274Y-38558563D01*
X49377756Y-38445295D01*
X49189398Y-38367274D01*
X48989439Y-38327500D01*
X48785561Y-38327500D01*
X48585602Y-38367274D01*
X48397244Y-38445295D01*
X48227726Y-38558563D01*
X48183789Y-38602500D01*
X46066211Y-38602500D01*
X46022274Y-38558563D01*
X45852756Y-38445295D01*
X45664398Y-38367274D01*
X45464439Y-38327500D01*
X45260561Y-38327500D01*
X45060602Y-38367274D01*
X44872244Y-38445295D01*
X44702726Y-38558563D01*
X44558563Y-38702726D01*
X44445295Y-38872244D01*
X44367274Y-39060602D01*
X44327500Y-39260561D01*
X42522510Y-39260561D01*
X42522510Y-38366201D01*
X42553937Y-38334774D01*
X42667205Y-38165256D01*
X42745226Y-37976898D01*
X42785000Y-37776939D01*
X42785000Y-37573061D01*
X42745226Y-37373102D01*
X42667205Y-37184744D01*
X42553937Y-37015226D01*
X42409774Y-36871063D01*
X42240256Y-36757795D01*
X42051898Y-36679774D01*
X41851939Y-36640000D01*
X41648061Y-36640000D01*
X41448102Y-36679774D01*
X41259744Y-36757795D01*
X41090226Y-36871063D01*
X40946063Y-37015226D01*
X40832795Y-37184744D01*
X40754774Y-37373102D01*
X40715000Y-37573061D01*
X40715000Y-37776939D01*
X40754774Y-37976898D01*
X40832795Y-38165256D01*
X40946063Y-38334774D01*
X41002510Y-38391221D01*
X41002510Y-40379429D01*
X40781250Y-40379429D01*
X40614092Y-40395893D01*
X40453358Y-40444651D01*
X40305225Y-40523830D01*
X40175385Y-40630386D01*
X40091582Y-40732501D01*
X38091211Y-40732501D01*
X38047274Y-40688564D01*
X37877756Y-40575296D01*
X37689398Y-40497275D01*
X37489439Y-40457501D01*
X37285561Y-40457501D01*
X37085602Y-40497275D01*
X36897244Y-40575296D01*
X36727726Y-40688564D01*
X36583563Y-40832727D01*
X36470295Y-41002245D01*
X36392274Y-41190603D01*
X36352500Y-41390562D01*
X36352500Y-41594440D01*
X36392274Y-41794399D01*
X36470295Y-41982757D01*
X36583563Y-42152275D01*
X36727726Y-42296438D01*
X36897244Y-42409706D01*
X37085602Y-42487727D01*
X37285561Y-42527501D01*
X37489439Y-42527501D01*
X37689398Y-42487727D01*
X37877756Y-42409706D01*
X38047274Y-42296438D01*
X38091211Y-42252501D01*
X40091582Y-42252501D01*
X40175385Y-42354616D01*
X40305225Y-42461172D01*
X40453358Y-42540351D01*
X40614092Y-42589109D01*
X40781250Y-42605573D01*
X41002511Y-42605573D01*
X41002511Y-45283778D01*
X40946063Y-45340226D01*
X40832795Y-45509744D01*
X40754774Y-45698102D01*
X40743465Y-45754956D01*
X40133422Y-46365000D01*
X35538454Y-46365000D01*
X35490256Y-46332795D01*
X35301898Y-46254774D01*
X35101939Y-46215000D01*
X34898061Y-46215000D01*
X34698102Y-46254774D01*
X34509744Y-46332795D01*
X34461546Y-46365000D01*
X32293469Y-46365000D01*
X32250000Y-46360719D01*
X32206531Y-46365000D01*
X32206523Y-46365000D01*
X32091306Y-46376348D01*
X32076509Y-46377805D01*
X32047764Y-46386525D01*
X31909687Y-46428411D01*
X31755941Y-46510589D01*
X31726934Y-46534395D01*
X31654953Y-46593468D01*
X31654951Y-46593470D01*
X31621183Y-46621183D01*
X31593470Y-46654951D01*
X24064952Y-54183470D01*
X24031184Y-54211183D01*
X24003471Y-54244951D01*
X24003468Y-54244954D01*
X23920590Y-54345941D01*
X23838412Y-54499687D01*
X23787805Y-54666510D01*
X23770719Y-54840000D01*
X23775001Y-54883479D01*
X23775000Y-58055672D01*
X23648698Y-58107988D01*
X23299017Y-58341637D01*
X23001637Y-58639017D01*
X22767988Y-58988698D01*
X22607047Y-59377244D01*
X22525000Y-59789721D01*
X21715000Y-59789721D01*
X21632953Y-59377244D01*
X21472012Y-58988698D01*
X21238363Y-58639017D01*
X20940983Y-58341637D01*
X20591302Y-58107988D01*
X20202756Y-57947047D01*
X19877000Y-57882250D01*
X19877000Y-48880405D01*
X20042252Y-48769987D01*
X20269987Y-48542252D01*
X20448918Y-48274463D01*
X20572168Y-47976912D01*
X20635000Y-47661033D01*
X20635000Y-47338967D01*
X20572168Y-47023088D01*
X20448918Y-46725537D01*
X20269987Y-46457748D01*
X20042252Y-46230013D01*
X19885000Y-46124941D01*
X19885000Y-45580000D01*
X21857319Y-45580000D01*
X21887970Y-45891204D01*
X21978745Y-46190449D01*
X22126155Y-46466235D01*
X22324537Y-46707963D01*
X22566265Y-46906345D01*
X22842051Y-47053755D01*
X23141296Y-47144530D01*
X23374514Y-47167500D01*
X23625486Y-47167500D01*
X23858704Y-47144530D01*
X24157949Y-47053755D01*
X24433735Y-46906345D01*
X24675463Y-46707963D01*
X24873845Y-46466235D01*
X25021255Y-46190449D01*
X25112030Y-45891204D01*
X25142681Y-45580000D01*
X25112030Y-45268796D01*
X25021255Y-44969551D01*
X24873845Y-44693765D01*
X24675463Y-44452037D01*
X24491475Y-44301041D01*
X24634280Y-44190495D01*
X24837848Y-43956368D01*
X24991829Y-43687026D01*
X25013210Y-43649795D01*
X24926702Y-43413000D01*
X23873000Y-43413000D01*
X23873000Y-43433000D01*
X23127000Y-43433000D01*
X23127000Y-43413000D01*
X22073298Y-43413000D01*
X21986790Y-43649795D01*
X22008171Y-43687026D01*
X22162152Y-43956368D01*
X22365720Y-44190495D01*
X22508525Y-44301041D01*
X22324537Y-44452037D01*
X22126155Y-44693765D01*
X21978745Y-44969551D01*
X21887970Y-45268796D01*
X21857319Y-45580000D01*
X19885000Y-45580000D01*
X19885000Y-42604076D01*
X21861928Y-40627148D01*
X21861928Y-41452500D01*
X21874188Y-41576982D01*
X21910498Y-41696680D01*
X21969463Y-41806994D01*
X22048815Y-41903685D01*
X22145506Y-41983037D01*
X22240328Y-42033721D01*
X22162152Y-42123632D01*
X22008171Y-42392974D01*
X21986790Y-42430205D01*
X22073298Y-42667000D01*
X23127000Y-42667000D01*
X23127000Y-42647000D01*
X23873000Y-42647000D01*
X23873000Y-42667000D01*
X24926702Y-42667000D01*
X25013210Y-42430205D01*
X24991829Y-42392974D01*
X24837848Y-42123632D01*
X24759672Y-42033721D01*
X24854494Y-41983037D01*
X24951185Y-41903685D01*
X25030537Y-41806994D01*
X25089502Y-41696680D01*
X25125812Y-41576982D01*
X25138072Y-41452500D01*
X25138072Y-39547500D01*
X25125812Y-39423018D01*
X25089502Y-39303320D01*
X25030537Y-39193006D01*
X24951185Y-39096315D01*
X24854494Y-39016963D01*
X24744180Y-38957998D01*
X24624482Y-38921688D01*
X24563369Y-38915669D01*
X32449511Y-31029527D01*
X43497974Y-31029527D01*
X43611302Y-31263678D01*
X43918877Y-31359197D01*
X44239178Y-31392875D01*
X44559895Y-31363418D01*
X44868703Y-31271960D01*
X44888698Y-31263678D01*
X45002026Y-31029527D01*
X44250000Y-30277502D01*
X43497974Y-31029527D01*
X32449511Y-31029527D01*
X33739860Y-29739178D01*
X42607125Y-29739178D01*
X42636582Y-30059895D01*
X42728040Y-30368703D01*
X42736322Y-30388698D01*
X42970473Y-30502026D01*
X43722498Y-29750000D01*
X44777502Y-29750000D01*
X45529527Y-30502026D01*
X45763678Y-30388698D01*
X45859197Y-30081123D01*
X45892875Y-29760822D01*
X45863418Y-29440105D01*
X45771960Y-29131297D01*
X45763678Y-29111302D01*
X45529527Y-28997974D01*
X44777502Y-29750000D01*
X43722498Y-29750000D01*
X42970473Y-28997974D01*
X42736322Y-29111302D01*
X42640803Y-29418877D01*
X42607125Y-29739178D01*
X33739860Y-29739178D01*
X35008565Y-28470473D01*
X43497974Y-28470473D01*
X44250000Y-29222498D01*
X45002026Y-28470473D01*
X44888698Y-28236322D01*
X44581123Y-28140803D01*
X44260822Y-28107125D01*
X43940105Y-28136582D01*
X43631297Y-28228040D01*
X43611302Y-28236322D01*
X43497974Y-28470473D01*
X35008565Y-28470473D01*
X40344039Y-23135000D01*
X43089876Y-23135000D01*
X43005820Y-23160498D01*
X42895506Y-23219463D01*
X42798815Y-23298815D01*
X42719463Y-23395506D01*
X42660498Y-23505820D01*
X42624188Y-23625518D01*
X42611928Y-23750000D01*
X42611928Y-25750000D01*
X42624188Y-25874482D01*
X42660498Y-25994180D01*
X42719463Y-26104494D01*
X42798815Y-26201185D01*
X42895506Y-26280537D01*
X43005820Y-26339502D01*
X43125518Y-26375812D01*
X43250000Y-26388072D01*
X45250000Y-26388072D01*
X45374482Y-26375812D01*
X45494180Y-26339502D01*
X45604494Y-26280537D01*
X45701185Y-26201185D01*
X45780537Y-26104494D01*
X45839502Y-25994180D01*
X45875812Y-25874482D01*
X45888072Y-25750000D01*
X45888072Y-23750000D01*
X45875812Y-23625518D01*
X45839502Y-23505820D01*
X45780537Y-23395506D01*
X45701185Y-23298815D01*
X45604494Y-23219463D01*
X45494180Y-23160498D01*
X45410124Y-23135000D01*
X45883422Y-23135000D01*
X53636928Y-30888507D01*
X53636928Y-30968750D01*
X53653392Y-31135908D01*
X53702150Y-31296642D01*
X53781329Y-31444775D01*
X53857426Y-31537500D01*
X53781329Y-31630225D01*
X53702150Y-31778358D01*
X53653392Y-31939092D01*
X53636928Y-32106250D01*
X53636928Y-32543750D01*
X53653392Y-32710908D01*
X53702150Y-32871642D01*
X53781329Y-33019775D01*
X53865001Y-33121730D01*
X53865000Y-34888446D01*
X53790713Y-34962733D01*
X53655557Y-35165008D01*
X53562460Y-35389764D01*
X53515000Y-35628363D01*
X53515000Y-35871637D01*
X53562460Y-36110236D01*
X53655557Y-36334992D01*
X53790713Y-36537267D01*
X53962733Y-36709287D01*
X54165008Y-36844443D01*
X54389764Y-36937540D01*
X54628363Y-36985000D01*
X54690198Y-36985000D01*
X42435199Y-49240000D01*
X40203711Y-49240000D01*
X40159774Y-49196063D01*
X39990256Y-49082795D01*
X39801898Y-49004774D01*
X39601939Y-48965000D01*
X39398061Y-48965000D01*
X39198102Y-49004774D01*
X39009744Y-49082795D01*
X38840226Y-49196063D01*
X38696063Y-49340226D01*
X38582795Y-49509744D01*
X38504774Y-49698102D01*
X38495372Y-49745372D01*
X38448102Y-49754774D01*
X38259744Y-49832795D01*
X38090226Y-49946063D01*
X37946063Y-50090226D01*
X37832795Y-50259744D01*
X37754774Y-50448102D01*
X37715000Y-50648061D01*
X37715000Y-50851939D01*
X37754774Y-51051898D01*
X37832795Y-51240256D01*
X37946063Y-51409774D01*
X38090226Y-51553937D01*
X38259744Y-51667205D01*
X38448102Y-51745226D01*
X38648061Y-51785000D01*
X38851939Y-51785000D01*
X39051898Y-51745226D01*
X39240256Y-51667205D01*
X39409774Y-51553937D01*
X39453711Y-51510000D01*
X42962678Y-51510000D01*
X43000000Y-51513676D01*
X43037322Y-51510000D01*
X43037333Y-51510000D01*
X43148986Y-51499003D01*
X43292247Y-51455546D01*
X43424276Y-51384974D01*
X43540001Y-51290001D01*
X43563804Y-51260997D01*
X47241212Y-47583589D01*
X64865000Y-47583589D01*
X64865000Y-47856411D01*
X64918225Y-48123989D01*
X65022629Y-48376043D01*
X65174201Y-48602886D01*
X65367114Y-48795799D01*
X65593957Y-48947371D01*
X65696873Y-48990000D01*
X65593957Y-49032629D01*
X65367114Y-49184201D01*
X65174201Y-49377114D01*
X65022629Y-49603957D01*
X64918225Y-49856011D01*
X64865000Y-50123589D01*
X64865000Y-50396411D01*
X64918225Y-50663989D01*
X65022629Y-50916043D01*
X65174201Y-51142886D01*
X65367114Y-51335799D01*
X65593957Y-51487371D01*
X65846011Y-51591775D01*
X66113589Y-51645000D01*
X66386411Y-51645000D01*
X66653989Y-51591775D01*
X66906043Y-51487371D01*
X67132886Y-51335799D01*
X67325799Y-51142886D01*
X67477371Y-50916043D01*
X67581775Y-50663989D01*
X67635000Y-50396411D01*
X67635000Y-50123589D01*
X67581775Y-49856011D01*
X67497930Y-49653589D01*
X71215000Y-49653589D01*
X71215000Y-49926411D01*
X71268225Y-50193989D01*
X71372629Y-50446043D01*
X71524201Y-50672886D01*
X71717114Y-50865799D01*
X71943957Y-51017371D01*
X72196011Y-51121775D01*
X72463589Y-51175000D01*
X72736411Y-51175000D01*
X73003989Y-51121775D01*
X73256043Y-51017371D01*
X73454559Y-50884726D01*
X74572776Y-50884726D01*
X74653670Y-51093961D01*
X74917405Y-51163785D01*
X75189694Y-51180814D01*
X75460073Y-51144395D01*
X75626330Y-51093961D01*
X75707224Y-50884726D01*
X75140000Y-50317502D01*
X74572776Y-50884726D01*
X73454559Y-50884726D01*
X73482886Y-50865799D01*
X73675799Y-50672886D01*
X73827371Y-50446043D01*
X73889161Y-50296868D01*
X74045274Y-50357224D01*
X74612498Y-49790000D01*
X75667502Y-49790000D01*
X76234726Y-50357224D01*
X76390839Y-50296868D01*
X76452629Y-50446043D01*
X76604201Y-50672886D01*
X76797114Y-50865799D01*
X77023957Y-51017371D01*
X77276011Y-51121775D01*
X77543589Y-51175000D01*
X77816411Y-51175000D01*
X78083989Y-51121775D01*
X78336043Y-51017371D01*
X78562886Y-50865799D01*
X78755799Y-50672886D01*
X78907371Y-50446043D01*
X79011775Y-50193989D01*
X79065000Y-49926411D01*
X79065000Y-49653589D01*
X79011775Y-49386011D01*
X78907371Y-49133957D01*
X78755799Y-48907114D01*
X78562886Y-48714201D01*
X78336043Y-48562629D01*
X78083989Y-48458225D01*
X77816411Y-48405000D01*
X77543589Y-48405000D01*
X77276011Y-48458225D01*
X77023957Y-48562629D01*
X76797114Y-48714201D01*
X76604201Y-48907114D01*
X76452629Y-49133957D01*
X76390839Y-49283132D01*
X76234726Y-49222776D01*
X75667502Y-49790000D01*
X74612498Y-49790000D01*
X74045274Y-49222776D01*
X73889161Y-49283132D01*
X73827371Y-49133957D01*
X73675799Y-48907114D01*
X73482886Y-48714201D01*
X73454560Y-48695274D01*
X74572776Y-48695274D01*
X75140000Y-49262498D01*
X75707224Y-48695274D01*
X75626330Y-48486039D01*
X75362595Y-48416215D01*
X75090306Y-48399186D01*
X74819927Y-48435605D01*
X74653670Y-48486039D01*
X74572776Y-48695274D01*
X73454560Y-48695274D01*
X73256043Y-48562629D01*
X73003989Y-48458225D01*
X72736411Y-48405000D01*
X72463589Y-48405000D01*
X72196011Y-48458225D01*
X71943957Y-48562629D01*
X71717114Y-48714201D01*
X71524201Y-48907114D01*
X71372629Y-49133957D01*
X71268225Y-49386011D01*
X71215000Y-49653589D01*
X67497930Y-49653589D01*
X67477371Y-49603957D01*
X67325799Y-49377114D01*
X67132886Y-49184201D01*
X66906043Y-49032629D01*
X66803127Y-48990000D01*
X66906043Y-48947371D01*
X67132886Y-48795799D01*
X67325799Y-48602886D01*
X67477371Y-48376043D01*
X67581775Y-48123989D01*
X67635000Y-47856411D01*
X67635000Y-47583589D01*
X67581775Y-47316011D01*
X67477371Y-47063957D01*
X67325799Y-46837114D01*
X67132886Y-46644201D01*
X66906043Y-46492629D01*
X66756868Y-46430839D01*
X66817224Y-46274726D01*
X66250000Y-45707502D01*
X65682776Y-46274726D01*
X65743132Y-46430839D01*
X65593957Y-46492629D01*
X65367114Y-46644201D01*
X65174201Y-46837114D01*
X65022629Y-47063957D01*
X64918225Y-47316011D01*
X64865000Y-47583589D01*
X47241212Y-47583589D01*
X49595107Y-45229694D01*
X64859186Y-45229694D01*
X64895605Y-45500073D01*
X64946039Y-45666330D01*
X65155274Y-45747224D01*
X65722498Y-45180000D01*
X66777502Y-45180000D01*
X67344726Y-45747224D01*
X67553961Y-45666330D01*
X67623785Y-45402595D01*
X67640814Y-45130306D01*
X67604395Y-44859927D01*
X67553961Y-44693670D01*
X67344726Y-44612776D01*
X66777502Y-45180000D01*
X65722498Y-45180000D01*
X65155274Y-44612776D01*
X64946039Y-44693670D01*
X64876215Y-44957405D01*
X64859186Y-45229694D01*
X49595107Y-45229694D01*
X58511010Y-36313793D01*
X58540001Y-36290001D01*
X58563795Y-36261008D01*
X58563799Y-36261004D01*
X58604412Y-36211517D01*
X58655557Y-36334992D01*
X58790713Y-36537267D01*
X58962733Y-36709287D01*
X59165008Y-36844443D01*
X59389764Y-36937540D01*
X59628363Y-36985000D01*
X59871637Y-36985000D01*
X60110236Y-36937540D01*
X60334992Y-36844443D01*
X60537267Y-36709287D01*
X60709287Y-36537267D01*
X60844443Y-36334992D01*
X60937540Y-36110236D01*
X60985000Y-35871637D01*
X60985000Y-35628363D01*
X60937540Y-35389764D01*
X60844443Y-35165008D01*
X60709287Y-34962733D01*
X60635000Y-34888446D01*
X60635000Y-34883589D01*
X64865000Y-34883589D01*
X64865000Y-35156411D01*
X64918225Y-35423989D01*
X65022629Y-35676043D01*
X65174201Y-35902886D01*
X65367114Y-36095799D01*
X65593957Y-36247371D01*
X65696873Y-36290000D01*
X65593957Y-36332629D01*
X65367114Y-36484201D01*
X65174201Y-36677114D01*
X65022629Y-36903957D01*
X64918225Y-37156011D01*
X64865000Y-37423589D01*
X64865000Y-37696411D01*
X64918225Y-37963989D01*
X65022629Y-38216043D01*
X65174201Y-38442886D01*
X65367114Y-38635799D01*
X65593957Y-38787371D01*
X65696873Y-38830000D01*
X65593957Y-38872629D01*
X65367114Y-39024201D01*
X65174201Y-39217114D01*
X65022629Y-39443957D01*
X64918225Y-39696011D01*
X64865000Y-39963589D01*
X64865000Y-40236411D01*
X64918225Y-40503989D01*
X65022629Y-40756043D01*
X65174201Y-40982886D01*
X65367114Y-41175799D01*
X65593957Y-41327371D01*
X65696873Y-41370000D01*
X65593957Y-41412629D01*
X65367114Y-41564201D01*
X65174201Y-41757114D01*
X65022629Y-41983957D01*
X64918225Y-42236011D01*
X64865000Y-42503589D01*
X64865000Y-42776411D01*
X64918225Y-43043989D01*
X65022629Y-43296043D01*
X65174201Y-43522886D01*
X65367114Y-43715799D01*
X65593957Y-43867371D01*
X65743132Y-43929161D01*
X65682776Y-44085274D01*
X66250000Y-44652498D01*
X66817224Y-44085274D01*
X66756868Y-43929161D01*
X66906043Y-43867371D01*
X67132886Y-43715799D01*
X67325799Y-43522886D01*
X67477371Y-43296043D01*
X67581775Y-43043989D01*
X67635000Y-42776411D01*
X67635000Y-42503589D01*
X67581775Y-42236011D01*
X67477371Y-41983957D01*
X67325799Y-41757114D01*
X67132886Y-41564201D01*
X66906043Y-41412629D01*
X66803127Y-41370000D01*
X66906043Y-41327371D01*
X67132886Y-41175799D01*
X67325799Y-40982886D01*
X67477371Y-40756043D01*
X67581775Y-40503989D01*
X67635000Y-40236411D01*
X67635000Y-39963589D01*
X67581775Y-39696011D01*
X67477371Y-39443957D01*
X67325799Y-39217114D01*
X67132886Y-39024201D01*
X66906043Y-38872629D01*
X66803127Y-38830000D01*
X66906043Y-38787371D01*
X67132886Y-38635799D01*
X67325799Y-38442886D01*
X67477371Y-38216043D01*
X67581775Y-37963989D01*
X67635000Y-37696411D01*
X67635000Y-37423589D01*
X67581775Y-37156011D01*
X67477371Y-36903957D01*
X67325799Y-36677114D01*
X67132886Y-36484201D01*
X66906043Y-36332629D01*
X66803127Y-36290000D01*
X66906043Y-36247371D01*
X67132886Y-36095799D01*
X67325799Y-35902886D01*
X67477371Y-35676043D01*
X67581775Y-35423989D01*
X67635000Y-35156411D01*
X67635000Y-34883589D01*
X67581775Y-34616011D01*
X67477371Y-34363957D01*
X67325799Y-34137114D01*
X67132886Y-33944201D01*
X66906043Y-33792629D01*
X66756868Y-33730839D01*
X66817224Y-33574726D01*
X66250000Y-33007502D01*
X65682776Y-33574726D01*
X65743132Y-33730839D01*
X65593957Y-33792629D01*
X65367114Y-33944201D01*
X65174201Y-34137114D01*
X65022629Y-34363957D01*
X64918225Y-34616011D01*
X64865000Y-34883589D01*
X60635000Y-34883589D01*
X60635000Y-33073000D01*
X61073000Y-33073000D01*
X61073000Y-33676250D01*
X61231750Y-33835000D01*
X61337397Y-33823104D01*
X61456318Y-33784326D01*
X61565389Y-33723093D01*
X61660419Y-33641758D01*
X61737755Y-33543447D01*
X61794425Y-33431937D01*
X61828252Y-33311514D01*
X61835000Y-33231750D01*
X61676250Y-33073000D01*
X61073000Y-33073000D01*
X60635000Y-33073000D01*
X60635000Y-32529694D01*
X64859186Y-32529694D01*
X64895605Y-32800073D01*
X64946039Y-32966330D01*
X65155274Y-33047224D01*
X65722498Y-32480000D01*
X66777502Y-32480000D01*
X67344726Y-33047224D01*
X67553961Y-32966330D01*
X67623785Y-32702595D01*
X67640814Y-32430306D01*
X67604395Y-32159927D01*
X67553961Y-31993670D01*
X67344726Y-31912776D01*
X66777502Y-32480000D01*
X65722498Y-32480000D01*
X65155274Y-31912776D01*
X64946039Y-31993670D01*
X64876215Y-32257405D01*
X64859186Y-32529694D01*
X60635000Y-32529694D01*
X60635000Y-31705501D01*
X60701185Y-31651185D01*
X60780537Y-31554494D01*
X60800000Y-31518082D01*
X60819463Y-31554494D01*
X60898815Y-31651185D01*
X60995506Y-31730537D01*
X61105820Y-31789502D01*
X61106916Y-31789834D01*
X61073000Y-31823750D01*
X61073000Y-32427000D01*
X61676250Y-32427000D01*
X61835000Y-32268250D01*
X61828252Y-32188486D01*
X61794425Y-32068063D01*
X61737755Y-31956553D01*
X61660419Y-31858242D01*
X61636853Y-31838072D01*
X62150000Y-31838072D01*
X62274482Y-31825812D01*
X62394180Y-31789502D01*
X62504494Y-31730537D01*
X62601185Y-31651185D01*
X62680537Y-31554494D01*
X62739502Y-31444180D01*
X62775812Y-31324482D01*
X62788072Y-31200000D01*
X62788072Y-30300000D01*
X62775812Y-30175518D01*
X62739502Y-30055820D01*
X62680537Y-29945506D01*
X62635000Y-29890019D01*
X62635000Y-27186578D01*
X64865000Y-24956579D01*
X64865000Y-24996411D01*
X64918225Y-25263989D01*
X65022629Y-25516043D01*
X65174201Y-25742886D01*
X65367114Y-25935799D01*
X65593957Y-26087371D01*
X65696873Y-26130000D01*
X65593957Y-26172629D01*
X65367114Y-26324201D01*
X65174201Y-26517114D01*
X65022629Y-26743957D01*
X64918225Y-26996011D01*
X64865000Y-27263589D01*
X64865000Y-27536411D01*
X64918225Y-27803989D01*
X65022629Y-28056043D01*
X65174201Y-28282886D01*
X65367114Y-28475799D01*
X65593957Y-28627371D01*
X65696873Y-28670000D01*
X65593957Y-28712629D01*
X65367114Y-28864201D01*
X65174201Y-29057114D01*
X65022629Y-29283957D01*
X64918225Y-29536011D01*
X64865000Y-29803589D01*
X64865000Y-30076411D01*
X64918225Y-30343989D01*
X65022629Y-30596043D01*
X65174201Y-30822886D01*
X65367114Y-31015799D01*
X65593957Y-31167371D01*
X65743132Y-31229161D01*
X65682776Y-31385274D01*
X66250000Y-31952498D01*
X66817224Y-31385274D01*
X66756868Y-31229161D01*
X66906043Y-31167371D01*
X67132886Y-31015799D01*
X67325799Y-30822886D01*
X67477371Y-30596043D01*
X67581775Y-30343989D01*
X67635000Y-30076411D01*
X67635000Y-29803589D01*
X67581775Y-29536011D01*
X67477371Y-29283957D01*
X67325799Y-29057114D01*
X67132886Y-28864201D01*
X66906043Y-28712629D01*
X66803127Y-28670000D01*
X66906043Y-28627371D01*
X67132886Y-28475799D01*
X67325799Y-28282886D01*
X67477371Y-28056043D01*
X67581775Y-27803989D01*
X67635000Y-27536411D01*
X67635000Y-27263589D01*
X67581775Y-26996011D01*
X67477371Y-26743957D01*
X67325799Y-26517114D01*
X67132886Y-26324201D01*
X66906043Y-26172629D01*
X66803127Y-26130000D01*
X66906043Y-26087371D01*
X67132886Y-25935799D01*
X67325799Y-25742886D01*
X67477371Y-25516043D01*
X67581775Y-25263989D01*
X67635000Y-24996411D01*
X67635000Y-24723589D01*
X67606167Y-24578635D01*
X69886009Y-22298794D01*
X69915001Y-22275001D01*
X69938795Y-22246008D01*
X69938799Y-22246004D01*
X70009973Y-22159277D01*
X70009974Y-22159276D01*
X70080546Y-22027247D01*
X70124003Y-21883986D01*
X70135000Y-21772333D01*
X70135000Y-21772324D01*
X70138676Y-21735001D01*
X70135000Y-21697678D01*
X70135000Y-18650072D01*
X70665000Y-18650072D01*
X70665001Y-26621288D01*
X70546063Y-26740226D01*
X70432795Y-26909744D01*
X70354774Y-27098102D01*
X70315000Y-27298061D01*
X70315000Y-27501939D01*
X70354774Y-27701898D01*
X70432795Y-27890256D01*
X70546063Y-28059774D01*
X70690226Y-28203937D01*
X70859744Y-28317205D01*
X71048102Y-28395226D01*
X71248061Y-28435000D01*
X71451939Y-28435000D01*
X71651898Y-28395226D01*
X71840256Y-28317205D01*
X72009774Y-28203937D01*
X72153937Y-28059774D01*
X72267205Y-27890256D01*
X72345226Y-27701898D01*
X72385000Y-27501939D01*
X72385000Y-27298061D01*
X72345226Y-27098102D01*
X72267205Y-26909744D01*
X72185000Y-26786715D01*
X72185000Y-20349258D01*
X72280750Y-20360000D01*
X72439500Y-20201250D01*
X72439500Y-19598000D01*
X72357000Y-19598000D01*
X72357000Y-18902000D01*
X72439500Y-18902000D01*
X72439500Y-18857000D01*
X72802490Y-18857000D01*
X72802491Y-34233798D01*
X72676063Y-34360226D01*
X72562795Y-34529744D01*
X72484774Y-34718102D01*
X72445000Y-34918061D01*
X72445000Y-35121939D01*
X72484774Y-35321898D01*
X72562795Y-35510256D01*
X72676063Y-35679774D01*
X72820226Y-35823937D01*
X72989744Y-35937205D01*
X73178102Y-36015226D01*
X73378061Y-36055000D01*
X73581939Y-36055000D01*
X73781898Y-36015226D01*
X73970256Y-35937205D01*
X74139774Y-35823937D01*
X74283937Y-35679774D01*
X74397205Y-35510256D01*
X74475226Y-35321898D01*
X74515000Y-35121939D01*
X74515000Y-34918061D01*
X74475226Y-34718102D01*
X74397205Y-34529744D01*
X74322490Y-34417925D01*
X74322490Y-21535000D01*
X74426939Y-21535000D01*
X74626898Y-21495226D01*
X74815256Y-21417205D01*
X74984774Y-21303937D01*
X75065000Y-21223711D01*
X75065001Y-36732827D01*
X75030226Y-36756063D01*
X74886063Y-36900226D01*
X74772795Y-37069744D01*
X74694774Y-37258102D01*
X74655000Y-37458061D01*
X74655000Y-37661939D01*
X74694774Y-37861898D01*
X74772795Y-38050256D01*
X74886063Y-38219774D01*
X75030226Y-38363937D01*
X75199744Y-38477205D01*
X75388102Y-38555226D01*
X75588061Y-38595000D01*
X75791939Y-38595000D01*
X75991898Y-38555226D01*
X76180256Y-38477205D01*
X76349774Y-38363937D01*
X76493937Y-38219774D01*
X76607205Y-38050256D01*
X76685226Y-37861898D01*
X76725000Y-37661939D01*
X76725000Y-37458061D01*
X76685226Y-37258102D01*
X76607205Y-37069744D01*
X76585000Y-37036512D01*
X76585000Y-30804444D01*
X76623102Y-30820226D01*
X76823061Y-30860000D01*
X77026939Y-30860000D01*
X77226898Y-30820226D01*
X77415256Y-30742205D01*
X77584774Y-30628937D01*
X77728937Y-30484774D01*
X77842205Y-30315256D01*
X77920226Y-30126898D01*
X77960000Y-29926939D01*
X77960000Y-29723061D01*
X77920226Y-29523102D01*
X77842205Y-29334744D01*
X77728937Y-29165226D01*
X77685000Y-29121289D01*
X77685000Y-20205750D01*
X80640000Y-20205750D01*
X80798750Y-20364500D01*
X81402000Y-20364500D01*
X81402000Y-19761250D01*
X82098000Y-19761250D01*
X82098000Y-20364500D01*
X82701250Y-20364500D01*
X82778960Y-20286790D01*
X82935274Y-20347224D01*
X83502498Y-19780000D01*
X84557502Y-19780000D01*
X85124726Y-20347224D01*
X85333961Y-20266330D01*
X85403785Y-20002595D01*
X85420814Y-19730306D01*
X85384395Y-19459927D01*
X85333961Y-19293670D01*
X85124726Y-19212776D01*
X84557502Y-19780000D01*
X83502498Y-19780000D01*
X82935274Y-19212776D01*
X82726039Y-19293670D01*
X82656215Y-19557405D01*
X82643613Y-19758902D01*
X82568797Y-19699969D01*
X82457324Y-19643226D01*
X82336923Y-19609321D01*
X82256750Y-19602500D01*
X82098000Y-19761250D01*
X81402000Y-19761250D01*
X81243250Y-19602500D01*
X81163077Y-19609321D01*
X81042676Y-19643226D01*
X80931203Y-19699969D01*
X80832942Y-19777369D01*
X80751669Y-19872452D01*
X80690507Y-19981563D01*
X80651807Y-20100510D01*
X80640000Y-20205750D01*
X77685000Y-20205750D01*
X77685000Y-18650072D01*
X78375000Y-18650072D01*
X78499482Y-18637812D01*
X78619180Y-18601502D01*
X78725000Y-18544939D01*
X78830820Y-18601502D01*
X78950518Y-18637812D01*
X79075000Y-18650072D01*
X80075000Y-18650072D01*
X80199482Y-18637812D01*
X80319180Y-18601502D01*
X80429494Y-18542537D01*
X80526185Y-18463185D01*
X80605537Y-18366494D01*
X80664502Y-18256180D01*
X80700812Y-18136482D01*
X80713072Y-18012000D01*
X80713072Y-16812000D01*
X80700812Y-16687518D01*
X80664502Y-16567820D01*
X80605537Y-16457506D01*
X80526185Y-16360815D01*
X80429494Y-16281463D01*
X80319180Y-16222498D01*
X80199482Y-16186188D01*
X80075000Y-16173928D01*
X79075000Y-16173928D01*
X78950518Y-16186188D01*
X78830820Y-16222498D01*
X78725000Y-16279061D01*
X78619180Y-16222498D01*
X78499482Y-16186188D01*
X78375000Y-16173928D01*
X77675000Y-16173928D01*
X77550518Y-16186188D01*
X77475000Y-16209096D01*
X77399482Y-16186188D01*
X77275000Y-16173928D01*
X76575000Y-16173928D01*
X76450518Y-16186188D01*
X76375000Y-16209096D01*
X76299482Y-16186188D01*
X76175000Y-16173928D01*
X75475000Y-16173928D01*
X75350518Y-16186188D01*
X75275000Y-16209096D01*
X75199482Y-16186188D01*
X75075000Y-16173928D01*
X74375000Y-16173928D01*
X74250518Y-16186188D01*
X74175000Y-16209096D01*
X74099482Y-16186188D01*
X73975000Y-16173928D01*
X73275000Y-16173928D01*
X73150518Y-16186188D01*
X73074682Y-16209192D01*
X73010289Y-16188436D01*
X72906750Y-16177000D01*
X72748000Y-16335750D01*
X72748000Y-16453196D01*
X72744463Y-16457506D01*
X72685498Y-16567820D01*
X72649188Y-16687518D01*
X72636928Y-16812000D01*
X72636928Y-18012000D01*
X72649188Y-18136482D01*
X72650255Y-18140000D01*
X72399745Y-18140000D01*
X72400812Y-18136482D01*
X72413072Y-18012000D01*
X72413072Y-16812000D01*
X72400812Y-16687518D01*
X72364502Y-16567820D01*
X72305537Y-16457506D01*
X72302000Y-16453196D01*
X72302000Y-16335750D01*
X72143250Y-16177000D01*
X72039711Y-16188436D01*
X71975318Y-16209192D01*
X71899482Y-16186188D01*
X71775000Y-16173928D01*
X71075000Y-16173928D01*
X70950518Y-16186188D01*
X70875000Y-16209096D01*
X70799482Y-16186188D01*
X70675000Y-16173928D01*
X70269593Y-16173928D01*
X70342205Y-16065256D01*
X70420226Y-15876898D01*
X70460000Y-15676939D01*
X70460000Y-15473061D01*
X70420226Y-15273102D01*
X70342205Y-15084744D01*
X70228937Y-14915226D01*
X70084774Y-14771063D01*
X69915256Y-14657795D01*
X69726898Y-14579774D01*
X69526939Y-14540000D01*
X69323061Y-14540000D01*
X69123102Y-14579774D01*
X68934744Y-14657795D01*
X68765226Y-14771063D01*
X68621063Y-14915226D01*
X68507795Y-15084744D01*
X68429774Y-15273102D01*
X68390000Y-15473061D01*
X68390000Y-15676939D01*
X68429774Y-15876898D01*
X68507795Y-16065256D01*
X68615001Y-16225701D01*
X68615001Y-16327015D01*
X68573815Y-16360815D01*
X68494463Y-16457506D01*
X68435498Y-16567820D01*
X68399188Y-16687518D01*
X68386928Y-16812000D01*
X68386928Y-18012000D01*
X68399188Y-18136482D01*
X68435498Y-18256180D01*
X68494463Y-18366494D01*
X68573815Y-18463185D01*
X68615001Y-18496985D01*
X68615000Y-21420197D01*
X67635000Y-22400198D01*
X67635000Y-22183589D01*
X67581775Y-21916011D01*
X67477371Y-21663957D01*
X67325799Y-21437114D01*
X67132886Y-21244201D01*
X66906043Y-21092629D01*
X66756868Y-21030839D01*
X66817224Y-20874726D01*
X66250000Y-20307502D01*
X65682776Y-20874726D01*
X65743132Y-21030839D01*
X65593957Y-21092629D01*
X65367114Y-21244201D01*
X65174201Y-21437114D01*
X65022629Y-21663957D01*
X64918225Y-21916011D01*
X64865000Y-22183589D01*
X64865000Y-22453421D01*
X61154952Y-26163470D01*
X61121184Y-26191183D01*
X61093471Y-26224951D01*
X61093468Y-26224954D01*
X61010590Y-26325941D01*
X60928412Y-26479687D01*
X60877805Y-26646510D01*
X60860719Y-26820000D01*
X60865001Y-26863479D01*
X60865000Y-29890019D01*
X60819463Y-29945506D01*
X60800000Y-29981918D01*
X60780537Y-29945506D01*
X60701185Y-29848815D01*
X60604494Y-29769463D01*
X60494180Y-29710498D01*
X60374482Y-29674188D01*
X60250000Y-29661928D01*
X59450000Y-29661928D01*
X59325518Y-29674188D01*
X59205820Y-29710498D01*
X59095506Y-29769463D01*
X58998815Y-29848815D01*
X58919463Y-29945506D01*
X58860498Y-30055820D01*
X58824188Y-30175518D01*
X58811928Y-30300000D01*
X58811928Y-31200000D01*
X58824188Y-31324482D01*
X58860498Y-31444180D01*
X58865001Y-31452604D01*
X58865000Y-34888446D01*
X58790713Y-34962733D01*
X58760000Y-35008698D01*
X58760000Y-25804801D01*
X64867464Y-19697338D01*
X64859186Y-19829694D01*
X64895605Y-20100073D01*
X64946039Y-20266330D01*
X65155274Y-20347224D01*
X65722498Y-19780000D01*
X66777502Y-19780000D01*
X67344726Y-20347224D01*
X67553961Y-20266330D01*
X67623785Y-20002595D01*
X67640814Y-19730306D01*
X67604395Y-19459927D01*
X67553961Y-19293670D01*
X67344726Y-19212776D01*
X66777502Y-19780000D01*
X65722498Y-19780000D01*
X65708356Y-19765858D01*
X66235858Y-19238356D01*
X66250000Y-19252498D01*
X66817224Y-18685274D01*
X66756868Y-18529161D01*
X66906043Y-18467371D01*
X67132886Y-18315799D01*
X67325799Y-18122886D01*
X67477371Y-17896043D01*
X67581775Y-17643989D01*
X67635000Y-17376411D01*
X67635000Y-17103589D01*
X67581775Y-16836011D01*
X67477371Y-16583957D01*
X67325799Y-16357114D01*
X67132886Y-16164201D01*
X66906043Y-16012629D01*
X66803127Y-15970000D01*
X66906043Y-15927371D01*
X67132886Y-15775799D01*
X67325799Y-15582886D01*
X67477371Y-15356043D01*
X67581775Y-15103989D01*
X67635000Y-14836411D01*
X67635000Y-14563589D01*
X67581775Y-14296011D01*
X67554022Y-14229009D01*
X67570506Y-14242537D01*
X67680820Y-14301502D01*
X67800518Y-14337812D01*
X67925000Y-14350072D01*
X68925000Y-14350072D01*
X69049482Y-14337812D01*
X69169180Y-14301502D01*
X69279494Y-14242537D01*
X69376185Y-14163185D01*
X69455537Y-14066494D01*
X69514502Y-13956180D01*
X69550812Y-13836482D01*
X69563072Y-13712000D01*
X69563072Y-12512000D01*
X69550812Y-12387518D01*
X69514502Y-12267820D01*
X69455537Y-12157506D01*
X69376185Y-12060815D01*
X69279494Y-11981463D01*
X69169180Y-11922498D01*
X69049482Y-11886188D01*
X68925000Y-11873928D01*
X67925000Y-11873928D01*
X67800518Y-11886188D01*
X67680820Y-11922498D01*
X67621228Y-11954351D01*
X67581775Y-11756011D01*
X67477371Y-11503957D01*
X67325799Y-11277114D01*
X67132886Y-11084201D01*
X66906043Y-10932629D01*
X66803127Y-10890000D01*
X66906043Y-10847371D01*
X67132886Y-10695799D01*
X67325799Y-10502886D01*
X67477371Y-10276043D01*
X67581775Y-10023989D01*
X67635000Y-9756411D01*
X67635000Y-9483589D01*
X67581775Y-9216011D01*
X67477371Y-8963957D01*
X67325799Y-8737114D01*
X67132886Y-8544201D01*
X66906043Y-8392629D01*
X66756868Y-8330839D01*
X66817224Y-8174726D01*
X66250000Y-7607502D01*
X65682776Y-8174726D01*
X65743132Y-8330839D01*
X65593957Y-8392629D01*
X65367114Y-8544201D01*
X65174201Y-8737114D01*
X65022629Y-8963957D01*
X64918225Y-9216011D01*
X64865000Y-9483589D01*
X64865000Y-9756411D01*
X64918225Y-10023989D01*
X65022629Y-10276043D01*
X65174201Y-10502886D01*
X65367114Y-10695799D01*
X65593957Y-10847371D01*
X65696873Y-10890000D01*
X65593957Y-10932629D01*
X65367114Y-11084201D01*
X65174201Y-11277114D01*
X65022629Y-11503957D01*
X64918225Y-11756011D01*
X64865000Y-12023589D01*
X64865000Y-12296411D01*
X64918225Y-12563989D01*
X65022629Y-12816043D01*
X65174201Y-13042886D01*
X65367114Y-13235799D01*
X65593957Y-13387371D01*
X65696873Y-13430000D01*
X65593957Y-13472629D01*
X65367114Y-13624201D01*
X65174201Y-13817114D01*
X65022629Y-14043957D01*
X64918225Y-14296011D01*
X64865000Y-14563589D01*
X64865000Y-14836411D01*
X64893833Y-14981365D01*
X56738998Y-23136201D01*
X56710000Y-23159999D01*
X56686202Y-23188997D01*
X56686201Y-23188998D01*
X56615026Y-23275724D01*
X56544454Y-23407754D01*
X56514707Y-23505820D01*
X56500998Y-23551014D01*
X56497868Y-23582795D01*
X56486324Y-23700000D01*
X56490001Y-23737332D01*
X56490000Y-35185198D01*
X55985000Y-35690198D01*
X55985000Y-35628363D01*
X55937540Y-35389764D01*
X55844443Y-35165008D01*
X55709287Y-34962733D01*
X55635000Y-34888446D01*
X55635000Y-33121729D01*
X55718671Y-33019775D01*
X55797850Y-32871642D01*
X55846608Y-32710908D01*
X55863072Y-32543750D01*
X55863072Y-32106250D01*
X55846608Y-31939092D01*
X55797850Y-31778358D01*
X55718671Y-31630225D01*
X55642574Y-31537500D01*
X55718671Y-31444775D01*
X55797850Y-31296642D01*
X55846608Y-31135908D01*
X55863072Y-30968750D01*
X55863072Y-30531250D01*
X55846608Y-30364092D01*
X55797850Y-30203358D01*
X55718671Y-30055225D01*
X55612115Y-29925385D01*
X55482275Y-29818829D01*
X55334142Y-29739650D01*
X55173408Y-29690892D01*
X55006250Y-29674428D01*
X54926007Y-29674428D01*
X46906534Y-21654956D01*
X46878817Y-21621183D01*
X46744059Y-21510589D01*
X46590313Y-21428411D01*
X46423490Y-21377805D01*
X46293477Y-21365000D01*
X46293469Y-21365000D01*
X46250000Y-21360719D01*
X46206531Y-21365000D01*
X41124077Y-21365000D01*
X55864076Y-6625001D01*
X64937744Y-6625001D01*
X64876215Y-6857405D01*
X64859186Y-7129694D01*
X64895605Y-7400073D01*
X64946039Y-7566330D01*
X65155274Y-7647224D01*
X65722498Y-7080000D01*
X65708356Y-7065858D01*
X66149213Y-6625001D01*
X66350787Y-6625001D01*
X66791644Y-7065858D01*
X66777502Y-7080000D01*
X67344726Y-7647224D01*
X67377318Y-7634623D01*
X67401445Y-7677728D01*
X67482660Y-7772860D01*
X67580874Y-7850320D01*
X67692312Y-7907131D01*
X67812692Y-7941111D01*
X67893250Y-7948000D01*
X68052000Y-7789250D01*
X68052000Y-7186000D01*
X68798000Y-7186000D01*
X68798000Y-7789250D01*
X68956750Y-7948000D01*
X69037308Y-7941111D01*
X69157688Y-7907131D01*
X69269126Y-7850320D01*
X69367340Y-7772860D01*
X69448555Y-7677728D01*
X69509650Y-7568579D01*
X69548277Y-7449609D01*
X69560000Y-7344750D01*
X69401250Y-7186000D01*
X68798000Y-7186000D01*
X68052000Y-7186000D01*
X68032000Y-7186000D01*
X68032000Y-6640000D01*
X68052000Y-6640000D01*
X68052000Y-6625001D01*
X68798000Y-6625001D01*
X68798000Y-6640000D01*
X69401250Y-6640000D01*
X69416249Y-6625001D01*
X82717744Y-6625001D01*
X82656215Y-6857405D01*
X82639186Y-7129694D01*
X82675605Y-7400073D01*
X82726039Y-7566330D01*
X82935274Y-7647224D01*
X83502498Y-7080000D01*
X84557502Y-7080000D01*
X85124726Y-7647224D01*
X85333961Y-7566330D01*
X85403785Y-7302595D01*
X85420814Y-7030306D01*
X85384395Y-6759927D01*
X85333961Y-6593670D01*
X85124726Y-6512776D01*
X84557502Y-7080000D01*
X83502498Y-7080000D01*
X83488356Y-7065858D01*
X84015858Y-6538356D01*
X84030000Y-6552498D01*
X84597224Y-5985274D01*
X84536868Y-5829161D01*
X84686043Y-5767371D01*
X84912886Y-5615799D01*
X85105799Y-5422886D01*
X85257371Y-5196043D01*
X85361775Y-4943989D01*
X85415000Y-4676411D01*
X85415000Y-4403589D01*
X85361775Y-4136011D01*
X85257371Y-3883957D01*
X85105799Y-3657114D01*
X84912886Y-3464201D01*
X84686043Y-3312629D01*
X84583127Y-3270000D01*
X84686043Y-3227371D01*
X84912886Y-3075799D01*
X85105799Y-2882886D01*
X85257371Y-2656043D01*
X85361775Y-2403989D01*
X85409995Y-2161573D01*
X85665000Y-2416579D01*
X85664999Y-13150540D01*
X85568829Y-13267725D01*
X85489650Y-13415858D01*
X85440892Y-13576592D01*
X85424428Y-13743750D01*
X85424428Y-14256250D01*
X85440892Y-14423408D01*
X85476763Y-14541658D01*
X85415000Y-14603421D01*
X85415000Y-14563589D01*
X85361775Y-14296011D01*
X85257371Y-14043957D01*
X85105799Y-13817114D01*
X84912886Y-13624201D01*
X84686043Y-13472629D01*
X84583127Y-13430000D01*
X84686043Y-13387371D01*
X84912886Y-13235799D01*
X85105799Y-13042886D01*
X85257371Y-12816043D01*
X85361775Y-12563989D01*
X85415000Y-12296411D01*
X85415000Y-12023589D01*
X85361775Y-11756011D01*
X85257371Y-11503957D01*
X85105799Y-11277114D01*
X84912886Y-11084201D01*
X84686043Y-10932629D01*
X84583127Y-10890000D01*
X84686043Y-10847371D01*
X84912886Y-10695799D01*
X85105799Y-10502886D01*
X85257371Y-10276043D01*
X85361775Y-10023989D01*
X85415000Y-9756411D01*
X85415000Y-9483589D01*
X85361775Y-9216011D01*
X85257371Y-8963957D01*
X85105799Y-8737114D01*
X84912886Y-8544201D01*
X84686043Y-8392629D01*
X84536868Y-8330839D01*
X84597224Y-8174726D01*
X84030000Y-7607502D01*
X83462776Y-8174726D01*
X83523132Y-8330839D01*
X83373957Y-8392629D01*
X83147114Y-8544201D01*
X82954201Y-8737114D01*
X82802629Y-8963957D01*
X82698225Y-9216011D01*
X82645000Y-9483589D01*
X82645000Y-9756411D01*
X82698225Y-10023989D01*
X82802629Y-10276043D01*
X82954201Y-10502886D01*
X83147114Y-10695799D01*
X83373957Y-10847371D01*
X83476873Y-10890000D01*
X83373957Y-10932629D01*
X83147114Y-11084201D01*
X82954201Y-11277114D01*
X82802629Y-11503957D01*
X82698225Y-11756011D01*
X82645000Y-12023589D01*
X82645000Y-12296411D01*
X82698225Y-12563989D01*
X82802629Y-12816043D01*
X82954201Y-13042886D01*
X83147114Y-13235799D01*
X83373957Y-13387371D01*
X83476873Y-13430000D01*
X83373957Y-13472629D01*
X83147114Y-13624201D01*
X82954201Y-13817114D01*
X82802629Y-14043957D01*
X82698225Y-14296011D01*
X82645000Y-14563589D01*
X82645000Y-14836411D01*
X82698225Y-15103989D01*
X82802629Y-15356043D01*
X82954201Y-15582886D01*
X83147114Y-15775799D01*
X83373957Y-15927371D01*
X83476873Y-15970000D01*
X83373957Y-16012629D01*
X83147114Y-16164201D01*
X82954201Y-16357114D01*
X82802629Y-16583957D01*
X82698225Y-16836011D01*
X82645000Y-17103589D01*
X82645000Y-17376411D01*
X82698225Y-17643989D01*
X82802629Y-17896043D01*
X82954201Y-18122886D01*
X83147114Y-18315799D01*
X83373957Y-18467371D01*
X83523132Y-18529161D01*
X83462776Y-18685274D01*
X84030000Y-19252498D01*
X84597224Y-18685274D01*
X84536868Y-18529161D01*
X84686043Y-18467371D01*
X84912886Y-18315799D01*
X85105799Y-18122886D01*
X85168179Y-18029527D01*
X86747974Y-18029527D01*
X86861302Y-18263678D01*
X87168877Y-18359197D01*
X87489178Y-18392875D01*
X87809895Y-18363418D01*
X88118703Y-18271960D01*
X88138698Y-18263678D01*
X88252026Y-18029527D01*
X87500000Y-17277502D01*
X86747974Y-18029527D01*
X85168179Y-18029527D01*
X85257371Y-17896043D01*
X85361775Y-17643989D01*
X85415000Y-17376411D01*
X85415000Y-17106578D01*
X85865905Y-16655673D01*
X85857125Y-16739178D01*
X85886582Y-17059895D01*
X85978040Y-17368703D01*
X85986322Y-17388698D01*
X86220473Y-17502026D01*
X86972498Y-16750000D01*
X88027502Y-16750000D01*
X88779527Y-17502026D01*
X89013678Y-17388698D01*
X89109197Y-17081123D01*
X89142875Y-16760822D01*
X89127091Y-16588967D01*
X90365000Y-16588967D01*
X90365000Y-16911033D01*
X90427832Y-17226912D01*
X90551082Y-17524463D01*
X90730013Y-17792252D01*
X90957748Y-18019987D01*
X91225537Y-18198918D01*
X91523088Y-18322168D01*
X91838967Y-18385000D01*
X92161033Y-18385000D01*
X92476912Y-18322168D01*
X92774463Y-18198918D01*
X93042252Y-18019987D01*
X93269987Y-17792252D01*
X93448918Y-17524463D01*
X93572168Y-17226912D01*
X93635000Y-16911033D01*
X93635000Y-16588967D01*
X93572168Y-16273088D01*
X93448918Y-15975537D01*
X93269987Y-15707748D01*
X93042252Y-15480013D01*
X92774463Y-15301082D01*
X92476912Y-15177832D01*
X92161033Y-15115000D01*
X91838967Y-15115000D01*
X91523088Y-15177832D01*
X91225537Y-15301082D01*
X90957748Y-15480013D01*
X90730013Y-15707748D01*
X90551082Y-15975537D01*
X90427832Y-16273088D01*
X90365000Y-16588967D01*
X89127091Y-16588967D01*
X89113418Y-16440105D01*
X89021960Y-16131297D01*
X89013678Y-16111302D01*
X88779527Y-15997974D01*
X88027502Y-16750000D01*
X86972498Y-16750000D01*
X86958356Y-16735858D01*
X87485858Y-16208356D01*
X87500000Y-16222498D01*
X88252026Y-15470473D01*
X88138698Y-15236322D01*
X87831123Y-15140803D01*
X87510822Y-15107125D01*
X87338087Y-15122990D01*
X87342358Y-15115000D01*
X87371588Y-15060314D01*
X87373251Y-15054833D01*
X87381563Y-15059493D01*
X87500510Y-15098193D01*
X87605750Y-15110000D01*
X87764500Y-14951250D01*
X87764500Y-14348000D01*
X88385500Y-14348000D01*
X88385500Y-14951250D01*
X88544250Y-15110000D01*
X88649490Y-15098193D01*
X88768437Y-15059493D01*
X88877548Y-14998331D01*
X88972631Y-14917058D01*
X89050031Y-14818797D01*
X89106774Y-14707324D01*
X89140679Y-14586923D01*
X89147500Y-14506750D01*
X88988750Y-14348000D01*
X88385500Y-14348000D01*
X87764500Y-14348000D01*
X87682000Y-14348000D01*
X87682000Y-13652000D01*
X87764500Y-13652000D01*
X87764500Y-13048750D01*
X88385500Y-13048750D01*
X88385500Y-13652000D01*
X88988750Y-13652000D01*
X89147500Y-13493250D01*
X89140679Y-13413077D01*
X89106774Y-13292676D01*
X89050031Y-13181203D01*
X88972631Y-13082942D01*
X88877548Y-13001669D01*
X88768437Y-12940507D01*
X88649490Y-12901807D01*
X88544250Y-12890000D01*
X88385500Y-13048750D01*
X87764500Y-13048750D01*
X87605750Y-12890000D01*
X87500510Y-12901807D01*
X87434999Y-12923121D01*
X87434999Y-7222113D01*
X87842188Y-7629302D01*
X88396601Y-7999748D01*
X89012632Y-8254917D01*
X89666607Y-8385000D01*
X90333393Y-8385000D01*
X90987368Y-8254917D01*
X91603399Y-7999748D01*
X92157812Y-7629302D01*
X92629302Y-7157812D01*
X92999748Y-6603399D01*
X93254917Y-5987368D01*
X93385000Y-5333393D01*
X93385000Y-4666607D01*
X93254917Y-4012632D01*
X92999748Y-3396601D01*
X92629302Y-2842188D01*
X92157812Y-2370698D01*
X91603399Y-2000252D01*
X90987368Y-1745083D01*
X90333393Y-1615000D01*
X89666607Y-1615000D01*
X89012632Y-1745083D01*
X88396601Y-2000252D01*
X87842188Y-2370698D01*
X87434999Y-2777887D01*
X87434999Y-2093468D01*
X87439280Y-2049999D01*
X87434999Y-2006530D01*
X87434999Y-2006522D01*
X87422194Y-1876509D01*
X87371588Y-1709686D01*
X87289410Y-1555940D01*
X87261227Y-1521599D01*
X87206531Y-1454952D01*
X87206529Y-1454950D01*
X87178816Y-1421182D01*
X87145048Y-1393469D01*
X86636579Y-885000D01*
X94115000Y-885000D01*
X94115001Y-64115000D01*
G37*
X94115001Y-64115000D02*
X75386578Y-64115000D01*
X79834971Y-59666607D01*
X86615000Y-59666607D01*
X86615000Y-60333393D01*
X86745083Y-60987368D01*
X87000252Y-61603399D01*
X87370698Y-62157812D01*
X87842188Y-62629302D01*
X88396601Y-62999748D01*
X89012632Y-63254917D01*
X89666607Y-63385000D01*
X90333393Y-63385000D01*
X90987368Y-63254917D01*
X91603399Y-62999748D01*
X92157812Y-62629302D01*
X92629302Y-62157812D01*
X92999748Y-61603399D01*
X93254917Y-60987368D01*
X93385000Y-60333393D01*
X93385000Y-59666607D01*
X93254917Y-59012632D01*
X92999748Y-58396601D01*
X92629302Y-57842188D01*
X92157812Y-57370698D01*
X91603399Y-57000252D01*
X90987368Y-56745083D01*
X90333393Y-56615000D01*
X89666607Y-56615000D01*
X89012632Y-56745083D01*
X88396601Y-57000252D01*
X87842188Y-57370698D01*
X87370698Y-57842188D01*
X87000252Y-58396601D01*
X86745083Y-59012632D01*
X86615000Y-59666607D01*
X79834971Y-59666607D01*
X81420041Y-58081538D01*
X81453807Y-58053827D01*
X81506673Y-57989411D01*
X81541440Y-57947047D01*
X81564401Y-57919069D01*
X81646579Y-57765323D01*
X81697185Y-57598500D01*
X81709990Y-57468487D01*
X81709990Y-57468477D01*
X81714271Y-57425011D01*
X81709990Y-57381544D01*
X81709990Y-47583589D01*
X82645000Y-47583589D01*
X82645000Y-47856411D01*
X82698225Y-48123989D01*
X82802629Y-48376043D01*
X82954201Y-48602886D01*
X83147114Y-48795799D01*
X83373957Y-48947371D01*
X83476873Y-48990000D01*
X83373957Y-49032629D01*
X83147114Y-49184201D01*
X82954201Y-49377114D01*
X82802629Y-49603957D01*
X82698225Y-49856011D01*
X82645000Y-50123589D01*
X82645000Y-50396411D01*
X82698225Y-50663989D01*
X82802629Y-50916043D01*
X82954201Y-51142886D01*
X83147114Y-51335799D01*
X83373957Y-51487371D01*
X83626011Y-51591775D01*
X83893589Y-51645000D01*
X84166411Y-51645000D01*
X84433989Y-51591775D01*
X84686043Y-51487371D01*
X84912886Y-51335799D01*
X85105799Y-51142886D01*
X85257371Y-50916043D01*
X85361775Y-50663989D01*
X85415000Y-50396411D01*
X85415000Y-50123589D01*
X85361775Y-49856011D01*
X85257371Y-49603957D01*
X85105799Y-49377114D01*
X84912886Y-49184201D01*
X84686043Y-49032629D01*
X84583127Y-48990000D01*
X84686043Y-48947371D01*
X84912886Y-48795799D01*
X85105799Y-48602886D01*
X85257371Y-48376043D01*
X85361775Y-48123989D01*
X85415000Y-47856411D01*
X85415000Y-47583589D01*
X85361775Y-47316011D01*
X85257371Y-47063957D01*
X85105799Y-46837114D01*
X84912886Y-46644201D01*
X84686043Y-46492629D01*
X84536868Y-46430839D01*
X84597224Y-46274726D01*
X84030000Y-45707502D01*
X83462776Y-46274726D01*
X83523132Y-46430839D01*
X83373957Y-46492629D01*
X83147114Y-46644201D01*
X82954201Y-46837114D01*
X82802629Y-47063957D01*
X82698225Y-47316011D01*
X82645000Y-47583589D01*
X81709990Y-47583589D01*
X81709990Y-45229694D01*
X82639186Y-45229694D01*
X82675605Y-45500073D01*
X82726039Y-45666330D01*
X82935274Y-45747224D01*
X83502498Y-45180000D01*
X84557502Y-45180000D01*
X85124726Y-45747224D01*
X85333961Y-45666330D01*
X85403785Y-45402595D01*
X85420814Y-45130306D01*
X85384395Y-44859927D01*
X85333961Y-44693670D01*
X85124726Y-44612776D01*
X84557502Y-45180000D01*
X83502498Y-45180000D01*
X82935274Y-44612776D01*
X82726039Y-44693670D01*
X82656215Y-44957405D01*
X82639186Y-45229694D01*
X81709990Y-45229694D01*
X81709990Y-34883589D01*
X82645000Y-34883589D01*
X82645000Y-35156411D01*
X82698225Y-35423989D01*
X82802629Y-35676043D01*
X82954201Y-35902886D01*
X83147114Y-36095799D01*
X83373957Y-36247371D01*
X83476873Y-36290000D01*
X83373957Y-36332629D01*
X83147114Y-36484201D01*
X82954201Y-36677114D01*
X82802629Y-36903957D01*
X82698225Y-37156011D01*
X82645000Y-37423589D01*
X82645000Y-37696411D01*
X82698225Y-37963989D01*
X82802629Y-38216043D01*
X82954201Y-38442886D01*
X83147114Y-38635799D01*
X83373957Y-38787371D01*
X83476873Y-38830000D01*
X83373957Y-38872629D01*
X83147114Y-39024201D01*
X82954201Y-39217114D01*
X82802629Y-39443957D01*
X82698225Y-39696011D01*
X82645000Y-39963589D01*
X82645000Y-40236411D01*
X82698225Y-40503989D01*
X82802629Y-40756043D01*
X82954201Y-40982886D01*
X83147114Y-41175799D01*
X83373957Y-41327371D01*
X83476873Y-41370000D01*
X83373957Y-41412629D01*
X83147114Y-41564201D01*
X82954201Y-41757114D01*
X82802629Y-41983957D01*
X82698225Y-42236011D01*
X82645000Y-42503589D01*
X82645000Y-42776411D01*
X82698225Y-43043989D01*
X82802629Y-43296043D01*
X82954201Y-43522886D01*
X83147114Y-43715799D01*
X83373957Y-43867371D01*
X83523132Y-43929161D01*
X83462776Y-44085274D01*
X84030000Y-44652498D01*
X84597224Y-44085274D01*
X84536868Y-43929161D01*
X84686043Y-43867371D01*
X84912886Y-43715799D01*
X85105799Y-43522886D01*
X85257371Y-43296043D01*
X85361775Y-43043989D01*
X85415000Y-42776411D01*
X85415000Y-42503589D01*
X85361775Y-42236011D01*
X85257371Y-41983957D01*
X85105799Y-41757114D01*
X84912886Y-41564201D01*
X84686043Y-41412629D01*
X84583127Y-41370000D01*
X84686043Y-41327371D01*
X84912886Y-41175799D01*
X85105799Y-40982886D01*
X85257371Y-40756043D01*
X85361775Y-40503989D01*
X85415000Y-40236411D01*
X85415000Y-39963589D01*
X85361775Y-39696011D01*
X85257371Y-39443957D01*
X85105799Y-39217114D01*
X84912886Y-39024201D01*
X84686043Y-38872629D01*
X84583127Y-38830000D01*
X84686043Y-38787371D01*
X84912886Y-38635799D01*
X85105799Y-38442886D01*
X85257371Y-38216043D01*
X85361775Y-37963989D01*
X85415000Y-37696411D01*
X85415000Y-37423589D01*
X85361775Y-37156011D01*
X85257371Y-36903957D01*
X85105799Y-36677114D01*
X84958685Y-36530000D01*
X88511928Y-36530000D01*
X88511928Y-38230000D01*
X88524188Y-38354482D01*
X88560498Y-38474180D01*
X88619463Y-38584494D01*
X88698815Y-38681185D01*
X88795506Y-38760537D01*
X88905820Y-38819502D01*
X88978380Y-38841513D01*
X88846525Y-38973368D01*
X88684010Y-39216589D01*
X88572068Y-39486842D01*
X88515000Y-39773740D01*
X88515000Y-40066260D01*
X88572068Y-40353158D01*
X88684010Y-40623411D01*
X88846525Y-40866632D01*
X89053368Y-41073475D01*
X89227760Y-41190000D01*
X89053368Y-41306525D01*
X88846525Y-41513368D01*
X88684010Y-41756589D01*
X88572068Y-42026842D01*
X88515000Y-42313740D01*
X88515000Y-42606260D01*
X88572068Y-42893158D01*
X88684010Y-43163411D01*
X88846525Y-43406632D01*
X89053368Y-43613475D01*
X89227760Y-43730000D01*
X89053368Y-43846525D01*
X88846525Y-44053368D01*
X88684010Y-44296589D01*
X88572068Y-44566842D01*
X88515000Y-44853740D01*
X88515000Y-45146260D01*
X88572068Y-45433158D01*
X88684010Y-45703411D01*
X88846525Y-45946632D01*
X89053368Y-46153475D01*
X89227760Y-46270000D01*
X89053368Y-46386525D01*
X88846525Y-46593368D01*
X88684010Y-46836589D01*
X88572068Y-47106842D01*
X88515000Y-47393740D01*
X88515000Y-47686260D01*
X88572068Y-47973158D01*
X88684010Y-48243411D01*
X88846525Y-48486632D01*
X89053368Y-48693475D01*
X89227760Y-48810000D01*
X89053368Y-48926525D01*
X88846525Y-49133368D01*
X88684010Y-49376589D01*
X88572068Y-49646842D01*
X88515000Y-49933740D01*
X88515000Y-50226260D01*
X88572068Y-50513158D01*
X88684010Y-50783411D01*
X88846525Y-51026632D01*
X89053368Y-51233475D01*
X89227760Y-51350000D01*
X89053368Y-51466525D01*
X88846525Y-51673368D01*
X88684010Y-51916589D01*
X88572068Y-52186842D01*
X88515000Y-52473740D01*
X88515000Y-52766260D01*
X88572068Y-53053158D01*
X88684010Y-53323411D01*
X88846525Y-53566632D01*
X89053368Y-53773475D01*
X89296589Y-53935990D01*
X89566842Y-54047932D01*
X89853740Y-54105000D01*
X90146260Y-54105000D01*
X90433158Y-54047932D01*
X90703411Y-53935990D01*
X90946632Y-53773475D01*
X91153475Y-53566632D01*
X91315990Y-53323411D01*
X91427932Y-53053158D01*
X91485000Y-52766260D01*
X91485000Y-52473740D01*
X91427932Y-52186842D01*
X91315990Y-51916589D01*
X91153475Y-51673368D01*
X90946632Y-51466525D01*
X90772240Y-51350000D01*
X90946632Y-51233475D01*
X91153475Y-51026632D01*
X91315990Y-50783411D01*
X91427932Y-50513158D01*
X91485000Y-50226260D01*
X91485000Y-49933740D01*
X91427932Y-49646842D01*
X91315990Y-49376589D01*
X91153475Y-49133368D01*
X90946632Y-48926525D01*
X90772240Y-48810000D01*
X90946632Y-48693475D01*
X91153475Y-48486632D01*
X91315990Y-48243411D01*
X91427932Y-47973158D01*
X91485000Y-47686260D01*
X91485000Y-47393740D01*
X91427932Y-47106842D01*
X91315990Y-46836589D01*
X91153475Y-46593368D01*
X90946632Y-46386525D01*
X90772240Y-46270000D01*
X90946632Y-46153475D01*
X91153475Y-45946632D01*
X91315990Y-45703411D01*
X91427932Y-45433158D01*
X91485000Y-45146260D01*
X91485000Y-44853740D01*
X91427932Y-44566842D01*
X91315990Y-44296589D01*
X91153475Y-44053368D01*
X90946632Y-43846525D01*
X90772240Y-43730000D01*
X90946632Y-43613475D01*
X91153475Y-43406632D01*
X91315990Y-43163411D01*
X91427932Y-42893158D01*
X91485000Y-42606260D01*
X91485000Y-42313740D01*
X91427932Y-42026842D01*
X91315990Y-41756589D01*
X91153475Y-41513368D01*
X90946632Y-41306525D01*
X90772240Y-41190000D01*
X90946632Y-41073475D01*
X91153475Y-40866632D01*
X91315990Y-40623411D01*
X91427932Y-40353158D01*
X91485000Y-40066260D01*
X91485000Y-39773740D01*
X91427932Y-39486842D01*
X91315990Y-39216589D01*
X91153475Y-38973368D01*
X91021620Y-38841513D01*
X91094180Y-38819502D01*
X91204494Y-38760537D01*
X91301185Y-38681185D01*
X91380537Y-38584494D01*
X91439502Y-38474180D01*
X91475812Y-38354482D01*
X91488072Y-38230000D01*
X91488072Y-36530000D01*
X91475812Y-36405518D01*
X91439502Y-36285820D01*
X91380537Y-36175506D01*
X91301185Y-36078815D01*
X91204494Y-35999463D01*
X91094180Y-35940498D01*
X90974482Y-35904188D01*
X90850000Y-35891928D01*
X89150000Y-35891928D01*
X89025518Y-35904188D01*
X88905820Y-35940498D01*
X88795506Y-35999463D01*
X88698815Y-36078815D01*
X88619463Y-36175506D01*
X88560498Y-36285820D01*
X88524188Y-36405518D01*
X88511928Y-36530000D01*
X84958685Y-36530000D01*
X84912886Y-36484201D01*
X84686043Y-36332629D01*
X84583127Y-36290000D01*
X84686043Y-36247371D01*
X84912886Y-36095799D01*
X85105799Y-35902886D01*
X85257371Y-35676043D01*
X85361775Y-35423989D01*
X85415000Y-35156411D01*
X85415000Y-34883589D01*
X85361775Y-34616011D01*
X85257371Y-34363957D01*
X85105799Y-34137114D01*
X84912886Y-33944201D01*
X84686043Y-33792629D01*
X84536868Y-33730839D01*
X84597224Y-33574726D01*
X84030000Y-33007502D01*
X83462776Y-33574726D01*
X83523132Y-33730839D01*
X83373957Y-33792629D01*
X83147114Y-33944201D01*
X82954201Y-34137114D01*
X82802629Y-34363957D01*
X82698225Y-34616011D01*
X82645000Y-34883589D01*
X81709990Y-34883589D01*
X81709990Y-32529694D01*
X82639186Y-32529694D01*
X82675605Y-32800073D01*
X82726039Y-32966330D01*
X82935274Y-33047224D01*
X83502498Y-32480000D01*
X84557502Y-32480000D01*
X85124726Y-33047224D01*
X85333961Y-32966330D01*
X85403785Y-32702595D01*
X85420814Y-32430306D01*
X85384395Y-32159927D01*
X85333961Y-31993670D01*
X85124726Y-31912776D01*
X84557502Y-32480000D01*
X83502498Y-32480000D01*
X82935274Y-31912776D01*
X82726039Y-31993670D01*
X82656215Y-32257405D01*
X82639186Y-32529694D01*
X81709990Y-32529694D01*
X81709990Y-26445816D01*
X81973807Y-26182000D01*
X82098000Y-26182000D01*
X82098000Y-26264500D01*
X82701250Y-26264500D01*
X82860000Y-26105750D01*
X82848193Y-26000510D01*
X82809493Y-25881563D01*
X82748331Y-25772452D01*
X82724866Y-25745000D01*
X82956315Y-25745000D01*
X83147114Y-25935799D01*
X83373957Y-26087371D01*
X83476873Y-26130000D01*
X83373957Y-26172629D01*
X83147114Y-26324201D01*
X82954201Y-26517114D01*
X82802629Y-26743957D01*
X82731479Y-26915729D01*
X82701250Y-26885500D01*
X82098000Y-26885500D01*
X82098000Y-27488750D01*
X82256750Y-27647500D01*
X82336923Y-27640679D01*
X82457324Y-27606774D01*
X82568797Y-27550031D01*
X82645000Y-27490006D01*
X82645000Y-27536411D01*
X82698225Y-27803989D01*
X82802629Y-28056043D01*
X82954201Y-28282886D01*
X83147114Y-28475799D01*
X83373957Y-28627371D01*
X83476873Y-28670000D01*
X83373957Y-28712629D01*
X83147114Y-28864201D01*
X82954201Y-29057114D01*
X82802629Y-29283957D01*
X82698225Y-29536011D01*
X82645000Y-29803589D01*
X82645000Y-30076411D01*
X82698225Y-30343989D01*
X82802629Y-30596043D01*
X82954201Y-30822886D01*
X83147114Y-31015799D01*
X83373957Y-31167371D01*
X83523132Y-31229161D01*
X83462776Y-31385274D01*
X84030000Y-31952498D01*
X84597224Y-31385274D01*
X84536868Y-31229161D01*
X84686043Y-31167371D01*
X84912886Y-31015799D01*
X85105799Y-30822886D01*
X85257371Y-30596043D01*
X85361775Y-30343989D01*
X85415000Y-30076411D01*
X85415000Y-29803589D01*
X85361775Y-29536011D01*
X85257371Y-29283957D01*
X85105799Y-29057114D01*
X84912886Y-28864201D01*
X84686043Y-28712629D01*
X84583127Y-28670000D01*
X84686043Y-28627371D01*
X84912886Y-28475799D01*
X85105799Y-28282886D01*
X85257371Y-28056043D01*
X85361775Y-27803989D01*
X85415000Y-27536411D01*
X85415000Y-27263589D01*
X85361775Y-26996011D01*
X85257371Y-26743957D01*
X85105799Y-26517114D01*
X84912886Y-26324201D01*
X84686043Y-26172629D01*
X84583127Y-26130000D01*
X84686043Y-26087371D01*
X84912886Y-25935799D01*
X85105799Y-25742886D01*
X85257371Y-25516043D01*
X85361775Y-25263989D01*
X85415000Y-24996411D01*
X85415000Y-24723589D01*
X85376399Y-24529527D01*
X86747974Y-24529527D01*
X86861302Y-24763678D01*
X87168877Y-24859197D01*
X87489178Y-24892875D01*
X87809895Y-24863418D01*
X88118703Y-24771960D01*
X88138698Y-24763678D01*
X88252026Y-24529527D01*
X87500000Y-23777502D01*
X86747974Y-24529527D01*
X85376399Y-24529527D01*
X85361775Y-24456011D01*
X85257371Y-24203957D01*
X85105799Y-23977114D01*
X84912886Y-23784201D01*
X84686043Y-23632629D01*
X84583127Y-23590000D01*
X84686043Y-23547371D01*
X84912886Y-23395799D01*
X85069507Y-23239178D01*
X85857125Y-23239178D01*
X85886582Y-23559895D01*
X85978040Y-23868703D01*
X85986322Y-23888698D01*
X86220473Y-24002026D01*
X86972498Y-23250000D01*
X88027502Y-23250000D01*
X88779527Y-24002026D01*
X89013678Y-23888698D01*
X89109197Y-23581123D01*
X89142875Y-23260822D01*
X89127091Y-23088967D01*
X90365000Y-23088967D01*
X90365000Y-23411033D01*
X90427832Y-23726912D01*
X90551082Y-24024463D01*
X90730013Y-24292252D01*
X90957748Y-24519987D01*
X91225537Y-24698918D01*
X91523088Y-24822168D01*
X91838967Y-24885000D01*
X92161033Y-24885000D01*
X92476912Y-24822168D01*
X92774463Y-24698918D01*
X93042252Y-24519987D01*
X93269987Y-24292252D01*
X93448918Y-24024463D01*
X93572168Y-23726912D01*
X93635000Y-23411033D01*
X93635000Y-23088967D01*
X93572168Y-22773088D01*
X93448918Y-22475537D01*
X93269987Y-22207748D01*
X93042252Y-21980013D01*
X92774463Y-21801082D01*
X92476912Y-21677832D01*
X92161033Y-21615000D01*
X91838967Y-21615000D01*
X91523088Y-21677832D01*
X91225537Y-21801082D01*
X90957748Y-21980013D01*
X90730013Y-22207748D01*
X90551082Y-22475537D01*
X90427832Y-22773088D01*
X90365000Y-23088967D01*
X89127091Y-23088967D01*
X89113418Y-22940105D01*
X89021960Y-22631297D01*
X89013678Y-22611302D01*
X88779527Y-22497974D01*
X88027502Y-23250000D01*
X86972498Y-23250000D01*
X86220473Y-22497974D01*
X85986322Y-22611302D01*
X85890803Y-22918877D01*
X85857125Y-23239178D01*
X85069507Y-23239178D01*
X85105799Y-23202886D01*
X85257371Y-22976043D01*
X85361775Y-22723989D01*
X85415000Y-22456411D01*
X85415000Y-22183589D01*
X85372609Y-21970473D01*
X86747974Y-21970473D01*
X87500000Y-22722498D01*
X88252026Y-21970473D01*
X88138698Y-21736322D01*
X87831123Y-21640803D01*
X87510822Y-21607125D01*
X87190105Y-21636582D01*
X86881297Y-21728040D01*
X86861302Y-21736322D01*
X86747974Y-21970473D01*
X85372609Y-21970473D01*
X85361775Y-21916011D01*
X85257371Y-21663957D01*
X85105799Y-21437114D01*
X84912886Y-21244201D01*
X84686043Y-21092629D01*
X84536868Y-21030839D01*
X84597224Y-20874726D01*
X84030000Y-20307502D01*
X83462776Y-20874726D01*
X83523132Y-21030839D01*
X83373957Y-21092629D01*
X83147114Y-21244201D01*
X82956315Y-21435000D01*
X82772181Y-21435000D01*
X82809493Y-21368437D01*
X82848193Y-21249490D01*
X82860000Y-21144250D01*
X82701250Y-20985500D01*
X82098000Y-20985500D01*
X82098000Y-21068000D01*
X81402000Y-21068000D01*
X81402000Y-20985500D01*
X80798750Y-20985500D01*
X80640000Y-21144250D01*
X80651807Y-21249490D01*
X80690507Y-21368437D01*
X80751669Y-21477548D01*
X80799323Y-21533299D01*
X80781329Y-21555225D01*
X80702150Y-21703358D01*
X80661693Y-21836729D01*
X79404956Y-23093466D01*
X79371183Y-23121183D01*
X79260589Y-23255942D01*
X79178411Y-23409688D01*
X79161632Y-23465000D01*
X79135540Y-23551014D01*
X79127805Y-23576511D01*
X79115000Y-23706524D01*
X79115000Y-23706531D01*
X79110719Y-23750000D01*
X79115000Y-23793469D01*
X79115001Y-56883420D01*
X73583432Y-62414990D01*
X19877000Y-62414990D01*
X19877000Y-62117750D01*
X20202756Y-62052953D01*
X20591302Y-61892012D01*
X20940983Y-61658363D01*
X21238363Y-61360983D01*
X21472012Y-61011302D01*
X21632953Y-60622756D01*
X21715000Y-60210279D01*
X21715000Y-59789721D01*
X22525000Y-59789721D01*
X22525000Y-60210279D01*
X22607047Y-60622756D01*
X22767988Y-61011302D01*
X23001637Y-61360983D01*
X23299017Y-61658363D01*
X23648698Y-61892012D01*
X24037244Y-62052953D01*
X24449721Y-62135000D01*
X24870279Y-62135000D01*
X25282756Y-62052953D01*
X25671302Y-61892012D01*
X26020983Y-61658363D01*
X26035854Y-61643492D01*
X28624009Y-61643492D01*
X28799976Y-61928418D01*
X29194254Y-62074754D01*
X29609506Y-62141358D01*
X30029771Y-62125670D01*
X30438901Y-62028295D01*
X30680024Y-61928418D01*
X30855991Y-61643492D01*
X29740000Y-60527502D01*
X28624009Y-61643492D01*
X26035854Y-61643492D01*
X26318363Y-61360983D01*
X26552012Y-61011302D01*
X26712953Y-60622756D01*
X26795000Y-60210279D01*
X26795000Y-59869506D01*
X27598642Y-59869506D01*
X27614330Y-60289771D01*
X27711705Y-60698901D01*
X27811582Y-60940024D01*
X28096508Y-61115991D01*
X29212498Y-60000000D01*
X30267502Y-60000000D01*
X31383492Y-61115991D01*
X31668418Y-60940024D01*
X31814754Y-60545746D01*
X31881358Y-60130494D01*
X31865670Y-59710229D01*
X31768295Y-59301099D01*
X31668418Y-59059976D01*
X31383492Y-58884009D01*
X30267502Y-60000000D01*
X29212498Y-60000000D01*
X28096508Y-58884009D01*
X27811582Y-59059976D01*
X27665246Y-59454254D01*
X27598642Y-59869506D01*
X26795000Y-59869506D01*
X26795000Y-59789721D01*
X26712953Y-59377244D01*
X26552012Y-58988698D01*
X26318363Y-58639017D01*
X26035854Y-58356508D01*
X28624009Y-58356508D01*
X29740000Y-59472498D01*
X30855991Y-58356508D01*
X30680024Y-58071582D01*
X30285746Y-57925246D01*
X29870494Y-57858642D01*
X29450229Y-57874330D01*
X29041099Y-57971705D01*
X28799976Y-58071582D01*
X28624009Y-58356508D01*
X26035854Y-58356508D01*
X26020983Y-58341637D01*
X25671302Y-58107988D01*
X25545000Y-58055672D01*
X25545000Y-55206578D01*
X32616579Y-48135000D01*
X34461546Y-48135000D01*
X34509744Y-48167205D01*
X34698102Y-48245226D01*
X34898061Y-48285000D01*
X35101939Y-48285000D01*
X35301898Y-48245226D01*
X35490256Y-48167205D01*
X35538454Y-48135000D01*
X40456531Y-48135000D01*
X40500000Y-48139281D01*
X40543469Y-48135000D01*
X40543477Y-48135000D01*
X40673490Y-48122195D01*
X40840313Y-48071589D01*
X40994059Y-47989411D01*
X41128817Y-47878817D01*
X41156534Y-47845044D01*
X41995044Y-47006535D01*
X42051898Y-46995226D01*
X42240256Y-46917205D01*
X42409774Y-46803937D01*
X42553937Y-46659774D01*
X42667205Y-46490256D01*
X42745226Y-46301898D01*
X42785000Y-46101939D01*
X42785000Y-45898061D01*
X42745226Y-45698102D01*
X42667205Y-45509744D01*
X42553937Y-45340226D01*
X42522510Y-45308799D01*
X42522510Y-45010027D01*
X42648061Y-45035000D01*
X42851939Y-45035000D01*
X43051898Y-44995226D01*
X43240256Y-44917205D01*
X43409774Y-44803937D01*
X43553937Y-44659774D01*
X43667205Y-44490256D01*
X43745226Y-44301898D01*
X43785000Y-44101939D01*
X43785000Y-43898061D01*
X43745226Y-43698102D01*
X43667205Y-43509744D01*
X43553937Y-43340226D01*
X43409774Y-43196063D01*
X43335000Y-43146101D01*
X43335000Y-42407644D01*
X43399615Y-42354616D01*
X43506171Y-42224776D01*
X43585350Y-42076643D01*
X43634108Y-41915909D01*
X43650572Y-41748751D01*
X43650572Y-41236251D01*
X43634108Y-41069093D01*
X43585350Y-40908359D01*
X43506171Y-40760226D01*
X43399615Y-40630386D01*
X43269775Y-40523830D01*
X43121642Y-40444651D01*
X42960908Y-40395893D01*
X42793750Y-40379429D01*
X42522510Y-40379429D01*
X42522510Y-39260561D01*
X44327500Y-39260561D01*
X44327500Y-39464439D01*
X44367274Y-39664398D01*
X44445295Y-39852756D01*
X44558563Y-40022274D01*
X44702726Y-40166437D01*
X44872244Y-40279705D01*
X45060602Y-40357726D01*
X45260561Y-40397500D01*
X45464439Y-40397500D01*
X45664398Y-40357726D01*
X45852756Y-40279705D01*
X46022274Y-40166437D01*
X46066211Y-40122500D01*
X48183789Y-40122500D01*
X48227726Y-40166437D01*
X48397244Y-40279705D01*
X48585602Y-40357726D01*
X48785561Y-40397500D01*
X48989439Y-40397500D01*
X49189398Y-40357726D01*
X49377756Y-40279705D01*
X49547274Y-40166437D01*
X49691437Y-40022274D01*
X49804705Y-39852756D01*
X49882726Y-39664398D01*
X49922500Y-39464439D01*
X49922500Y-39260561D01*
X49882726Y-39060602D01*
X49804705Y-38872244D01*
X49691437Y-38702726D01*
X49547274Y-38558563D01*
X49377756Y-38445295D01*
X49189398Y-38367274D01*
X48989439Y-38327500D01*
X48785561Y-38327500D01*
X48585602Y-38367274D01*
X48397244Y-38445295D01*
X48227726Y-38558563D01*
X48183789Y-38602500D01*
X46066211Y-38602500D01*
X46022274Y-38558563D01*
X45852756Y-38445295D01*
X45664398Y-38367274D01*
X45464439Y-38327500D01*
X45260561Y-38327500D01*
X45060602Y-38367274D01*
X44872244Y-38445295D01*
X44702726Y-38558563D01*
X44558563Y-38702726D01*
X44445295Y-38872244D01*
X44367274Y-39060602D01*
X44327500Y-39260561D01*
X42522510Y-39260561D01*
X42522510Y-38366201D01*
X42553937Y-38334774D01*
X42667205Y-38165256D01*
X42745226Y-37976898D01*
X42785000Y-37776939D01*
X42785000Y-37573061D01*
X42745226Y-37373102D01*
X42667205Y-37184744D01*
X42553937Y-37015226D01*
X42409774Y-36871063D01*
X42240256Y-36757795D01*
X42051898Y-36679774D01*
X41851939Y-36640000D01*
X41648061Y-36640000D01*
X41448102Y-36679774D01*
X41259744Y-36757795D01*
X41090226Y-36871063D01*
X40946063Y-37015226D01*
X40832795Y-37184744D01*
X40754774Y-37373102D01*
X40715000Y-37573061D01*
X40715000Y-37776939D01*
X40754774Y-37976898D01*
X40832795Y-38165256D01*
X40946063Y-38334774D01*
X41002510Y-38391221D01*
X41002510Y-40379429D01*
X40781250Y-40379429D01*
X40614092Y-40395893D01*
X40453358Y-40444651D01*
X40305225Y-40523830D01*
X40175385Y-40630386D01*
X40091582Y-40732501D01*
X38091211Y-40732501D01*
X38047274Y-40688564D01*
X37877756Y-40575296D01*
X37689398Y-40497275D01*
X37489439Y-40457501D01*
X37285561Y-40457501D01*
X37085602Y-40497275D01*
X36897244Y-40575296D01*
X36727726Y-40688564D01*
X36583563Y-40832727D01*
X36470295Y-41002245D01*
X36392274Y-41190603D01*
X36352500Y-41390562D01*
X36352500Y-41594440D01*
X36392274Y-41794399D01*
X36470295Y-41982757D01*
X36583563Y-42152275D01*
X36727726Y-42296438D01*
X36897244Y-42409706D01*
X37085602Y-42487727D01*
X37285561Y-42527501D01*
X37489439Y-42527501D01*
X37689398Y-42487727D01*
X37877756Y-42409706D01*
X38047274Y-42296438D01*
X38091211Y-42252501D01*
X40091582Y-42252501D01*
X40175385Y-42354616D01*
X40305225Y-42461172D01*
X40453358Y-42540351D01*
X40614092Y-42589109D01*
X40781250Y-42605573D01*
X41002511Y-42605573D01*
X41002511Y-45283778D01*
X40946063Y-45340226D01*
X40832795Y-45509744D01*
X40754774Y-45698102D01*
X40743465Y-45754956D01*
X40133422Y-46365000D01*
X35538454Y-46365000D01*
X35490256Y-46332795D01*
X35301898Y-46254774D01*
X35101939Y-46215000D01*
X34898061Y-46215000D01*
X34698102Y-46254774D01*
X34509744Y-46332795D01*
X34461546Y-46365000D01*
X32293469Y-46365000D01*
X32250000Y-46360719D01*
X32206531Y-46365000D01*
X32206523Y-46365000D01*
X32091306Y-46376348D01*
X32076509Y-46377805D01*
X32047764Y-46386525D01*
X31909687Y-46428411D01*
X31755941Y-46510589D01*
X31726934Y-46534395D01*
X31654953Y-46593468D01*
X31654951Y-46593470D01*
X31621183Y-46621183D01*
X31593470Y-46654951D01*
X24064952Y-54183470D01*
X24031184Y-54211183D01*
X24003471Y-54244951D01*
X24003468Y-54244954D01*
X23920590Y-54345941D01*
X23838412Y-54499687D01*
X23787805Y-54666510D01*
X23770719Y-54840000D01*
X23775001Y-54883479D01*
X23775000Y-58055672D01*
X23648698Y-58107988D01*
X23299017Y-58341637D01*
X23001637Y-58639017D01*
X22767988Y-58988698D01*
X22607047Y-59377244D01*
X22525000Y-59789721D01*
X21715000Y-59789721D01*
X21632953Y-59377244D01*
X21472012Y-58988698D01*
X21238363Y-58639017D01*
X20940983Y-58341637D01*
X20591302Y-58107988D01*
X20202756Y-57947047D01*
X19877000Y-57882250D01*
X19877000Y-48880405D01*
X20042252Y-48769987D01*
X20269987Y-48542252D01*
X20448918Y-48274463D01*
X20572168Y-47976912D01*
X20635000Y-47661033D01*
X20635000Y-47338967D01*
X20572168Y-47023088D01*
X20448918Y-46725537D01*
X20269987Y-46457748D01*
X20042252Y-46230013D01*
X19885000Y-46124941D01*
X19885000Y-45580000D01*
X21857319Y-45580000D01*
X21887970Y-45891204D01*
X21978745Y-46190449D01*
X22126155Y-46466235D01*
X22324537Y-46707963D01*
X22566265Y-46906345D01*
X22842051Y-47053755D01*
X23141296Y-47144530D01*
X23374514Y-47167500D01*
X23625486Y-47167500D01*
X23858704Y-47144530D01*
X24157949Y-47053755D01*
X24433735Y-46906345D01*
X24675463Y-46707963D01*
X24873845Y-46466235D01*
X25021255Y-46190449D01*
X25112030Y-45891204D01*
X25142681Y-45580000D01*
X25112030Y-45268796D01*
X25021255Y-44969551D01*
X24873845Y-44693765D01*
X24675463Y-44452037D01*
X24491475Y-44301041D01*
X24634280Y-44190495D01*
X24837848Y-43956368D01*
X24991829Y-43687026D01*
X25013210Y-43649795D01*
X24926702Y-43413000D01*
X23873000Y-43413000D01*
X23873000Y-43433000D01*
X23127000Y-43433000D01*
X23127000Y-43413000D01*
X22073298Y-43413000D01*
X21986790Y-43649795D01*
X22008171Y-43687026D01*
X22162152Y-43956368D01*
X22365720Y-44190495D01*
X22508525Y-44301041D01*
X22324537Y-44452037D01*
X22126155Y-44693765D01*
X21978745Y-44969551D01*
X21887970Y-45268796D01*
X21857319Y-45580000D01*
X19885000Y-45580000D01*
X19885000Y-42604076D01*
X21861928Y-40627148D01*
X21861928Y-41452500D01*
X21874188Y-41576982D01*
X21910498Y-41696680D01*
X21969463Y-41806994D01*
X22048815Y-41903685D01*
X22145506Y-41983037D01*
X22240328Y-42033721D01*
X22162152Y-42123632D01*
X22008171Y-42392974D01*
X21986790Y-42430205D01*
X22073298Y-42667000D01*
X23127000Y-42667000D01*
X23127000Y-42647000D01*
X23873000Y-42647000D01*
X23873000Y-42667000D01*
X24926702Y-42667000D01*
X25013210Y-42430205D01*
X24991829Y-42392974D01*
X24837848Y-42123632D01*
X24759672Y-42033721D01*
X24854494Y-41983037D01*
X24951185Y-41903685D01*
X25030537Y-41806994D01*
X25089502Y-41696680D01*
X25125812Y-41576982D01*
X25138072Y-41452500D01*
X25138072Y-39547500D01*
X25125812Y-39423018D01*
X25089502Y-39303320D01*
X25030537Y-39193006D01*
X24951185Y-39096315D01*
X24854494Y-39016963D01*
X24744180Y-38957998D01*
X24624482Y-38921688D01*
X24563369Y-38915669D01*
X32449511Y-31029527D01*
X43497974Y-31029527D01*
X43611302Y-31263678D01*
X43918877Y-31359197D01*
X44239178Y-31392875D01*
X44559895Y-31363418D01*
X44868703Y-31271960D01*
X44888698Y-31263678D01*
X45002026Y-31029527D01*
X44250000Y-30277502D01*
X43497974Y-31029527D01*
X32449511Y-31029527D01*
X33739860Y-29739178D01*
X42607125Y-29739178D01*
X42636582Y-30059895D01*
X42728040Y-30368703D01*
X42736322Y-30388698D01*
X42970473Y-30502026D01*
X43722498Y-29750000D01*
X44777502Y-29750000D01*
X45529527Y-30502026D01*
X45763678Y-30388698D01*
X45859197Y-30081123D01*
X45892875Y-29760822D01*
X45863418Y-29440105D01*
X45771960Y-29131297D01*
X45763678Y-29111302D01*
X45529527Y-28997974D01*
X44777502Y-29750000D01*
X43722498Y-29750000D01*
X42970473Y-28997974D01*
X42736322Y-29111302D01*
X42640803Y-29418877D01*
X42607125Y-29739178D01*
X33739860Y-29739178D01*
X35008565Y-28470473D01*
X43497974Y-28470473D01*
X44250000Y-29222498D01*
X45002026Y-28470473D01*
X44888698Y-28236322D01*
X44581123Y-28140803D01*
X44260822Y-28107125D01*
X43940105Y-28136582D01*
X43631297Y-28228040D01*
X43611302Y-28236322D01*
X43497974Y-28470473D01*
X35008565Y-28470473D01*
X40344039Y-23135000D01*
X43089876Y-23135000D01*
X43005820Y-23160498D01*
X42895506Y-23219463D01*
X42798815Y-23298815D01*
X42719463Y-23395506D01*
X42660498Y-23505820D01*
X42624188Y-23625518D01*
X42611928Y-23750000D01*
X42611928Y-25750000D01*
X42624188Y-25874482D01*
X42660498Y-25994180D01*
X42719463Y-26104494D01*
X42798815Y-26201185D01*
X42895506Y-26280537D01*
X43005820Y-26339502D01*
X43125518Y-26375812D01*
X43250000Y-26388072D01*
X45250000Y-26388072D01*
X45374482Y-26375812D01*
X45494180Y-26339502D01*
X45604494Y-26280537D01*
X45701185Y-26201185D01*
X45780537Y-26104494D01*
X45839502Y-25994180D01*
X45875812Y-25874482D01*
X45888072Y-25750000D01*
X45888072Y-23750000D01*
X45875812Y-23625518D01*
X45839502Y-23505820D01*
X45780537Y-23395506D01*
X45701185Y-23298815D01*
X45604494Y-23219463D01*
X45494180Y-23160498D01*
X45410124Y-23135000D01*
X45883422Y-23135000D01*
X53636928Y-30888507D01*
X53636928Y-30968750D01*
X53653392Y-31135908D01*
X53702150Y-31296642D01*
X53781329Y-31444775D01*
X53857426Y-31537500D01*
X53781329Y-31630225D01*
X53702150Y-31778358D01*
X53653392Y-31939092D01*
X53636928Y-32106250D01*
X53636928Y-32543750D01*
X53653392Y-32710908D01*
X53702150Y-32871642D01*
X53781329Y-33019775D01*
X53865001Y-33121730D01*
X53865000Y-34888446D01*
X53790713Y-34962733D01*
X53655557Y-35165008D01*
X53562460Y-35389764D01*
X53515000Y-35628363D01*
X53515000Y-35871637D01*
X53562460Y-36110236D01*
X53655557Y-36334992D01*
X53790713Y-36537267D01*
X53962733Y-36709287D01*
X54165008Y-36844443D01*
X54389764Y-36937540D01*
X54628363Y-36985000D01*
X54690198Y-36985000D01*
X42435199Y-49240000D01*
X40203711Y-49240000D01*
X40159774Y-49196063D01*
X39990256Y-49082795D01*
X39801898Y-49004774D01*
X39601939Y-48965000D01*
X39398061Y-48965000D01*
X39198102Y-49004774D01*
X39009744Y-49082795D01*
X38840226Y-49196063D01*
X38696063Y-49340226D01*
X38582795Y-49509744D01*
X38504774Y-49698102D01*
X38495372Y-49745372D01*
X38448102Y-49754774D01*
X38259744Y-49832795D01*
X38090226Y-49946063D01*
X37946063Y-50090226D01*
X37832795Y-50259744D01*
X37754774Y-50448102D01*
X37715000Y-50648061D01*
X37715000Y-50851939D01*
X37754774Y-51051898D01*
X37832795Y-51240256D01*
X37946063Y-51409774D01*
X38090226Y-51553937D01*
X38259744Y-51667205D01*
X38448102Y-51745226D01*
X38648061Y-51785000D01*
X38851939Y-51785000D01*
X39051898Y-51745226D01*
X39240256Y-51667205D01*
X39409774Y-51553937D01*
X39453711Y-51510000D01*
X42962678Y-51510000D01*
X43000000Y-51513676D01*
X43037322Y-51510000D01*
X43037333Y-51510000D01*
X43148986Y-51499003D01*
X43292247Y-51455546D01*
X43424276Y-51384974D01*
X43540001Y-51290001D01*
X43563804Y-51260997D01*
X47241212Y-47583589D01*
X64865000Y-47583589D01*
X64865000Y-47856411D01*
X64918225Y-48123989D01*
X65022629Y-48376043D01*
X65174201Y-48602886D01*
X65367114Y-48795799D01*
X65593957Y-48947371D01*
X65696873Y-48990000D01*
X65593957Y-49032629D01*
X65367114Y-49184201D01*
X65174201Y-49377114D01*
X65022629Y-49603957D01*
X64918225Y-49856011D01*
X64865000Y-50123589D01*
X64865000Y-50396411D01*
X64918225Y-50663989D01*
X65022629Y-50916043D01*
X65174201Y-51142886D01*
X65367114Y-51335799D01*
X65593957Y-51487371D01*
X65846011Y-51591775D01*
X66113589Y-51645000D01*
X66386411Y-51645000D01*
X66653989Y-51591775D01*
X66906043Y-51487371D01*
X67132886Y-51335799D01*
X67325799Y-51142886D01*
X67477371Y-50916043D01*
X67581775Y-50663989D01*
X67635000Y-50396411D01*
X67635000Y-50123589D01*
X67581775Y-49856011D01*
X67497930Y-49653589D01*
X71215000Y-49653589D01*
X71215000Y-49926411D01*
X71268225Y-50193989D01*
X71372629Y-50446043D01*
X71524201Y-50672886D01*
X71717114Y-50865799D01*
X71943957Y-51017371D01*
X72196011Y-51121775D01*
X72463589Y-51175000D01*
X72736411Y-51175000D01*
X73003989Y-51121775D01*
X73256043Y-51017371D01*
X73454559Y-50884726D01*
X74572776Y-50884726D01*
X74653670Y-51093961D01*
X74917405Y-51163785D01*
X75189694Y-51180814D01*
X75460073Y-51144395D01*
X75626330Y-51093961D01*
X75707224Y-50884726D01*
X75140000Y-50317502D01*
X74572776Y-50884726D01*
X73454559Y-50884726D01*
X73482886Y-50865799D01*
X73675799Y-50672886D01*
X73827371Y-50446043D01*
X73889161Y-50296868D01*
X74045274Y-50357224D01*
X74612498Y-49790000D01*
X75667502Y-49790000D01*
X76234726Y-50357224D01*
X76390839Y-50296868D01*
X76452629Y-50446043D01*
X76604201Y-50672886D01*
X76797114Y-50865799D01*
X77023957Y-51017371D01*
X77276011Y-51121775D01*
X77543589Y-51175000D01*
X77816411Y-51175000D01*
X78083989Y-51121775D01*
X78336043Y-51017371D01*
X78562886Y-50865799D01*
X78755799Y-50672886D01*
X78907371Y-50446043D01*
X79011775Y-50193989D01*
X79065000Y-49926411D01*
X79065000Y-49653589D01*
X79011775Y-49386011D01*
X78907371Y-49133957D01*
X78755799Y-48907114D01*
X78562886Y-48714201D01*
X78336043Y-48562629D01*
X78083989Y-48458225D01*
X77816411Y-48405000D01*
X77543589Y-48405000D01*
X77276011Y-48458225D01*
X77023957Y-48562629D01*
X76797114Y-48714201D01*
X76604201Y-48907114D01*
X76452629Y-49133957D01*
X76390839Y-49283132D01*
X76234726Y-49222776D01*
X75667502Y-49790000D01*
X74612498Y-49790000D01*
X74045274Y-49222776D01*
X73889161Y-49283132D01*
X73827371Y-49133957D01*
X73675799Y-48907114D01*
X73482886Y-48714201D01*
X73454560Y-48695274D01*
X74572776Y-48695274D01*
X75140000Y-49262498D01*
X75707224Y-48695274D01*
X75626330Y-48486039D01*
X75362595Y-48416215D01*
X75090306Y-48399186D01*
X74819927Y-48435605D01*
X74653670Y-48486039D01*
X74572776Y-48695274D01*
X73454560Y-48695274D01*
X73256043Y-48562629D01*
X73003989Y-48458225D01*
X72736411Y-48405000D01*
X72463589Y-48405000D01*
X72196011Y-48458225D01*
X71943957Y-48562629D01*
X71717114Y-48714201D01*
X71524201Y-48907114D01*
X71372629Y-49133957D01*
X71268225Y-49386011D01*
X71215000Y-49653589D01*
X67497930Y-49653589D01*
X67477371Y-49603957D01*
X67325799Y-49377114D01*
X67132886Y-49184201D01*
X66906043Y-49032629D01*
X66803127Y-48990000D01*
X66906043Y-48947371D01*
X67132886Y-48795799D01*
X67325799Y-48602886D01*
X67477371Y-48376043D01*
X67581775Y-48123989D01*
X67635000Y-47856411D01*
X67635000Y-47583589D01*
X67581775Y-47316011D01*
X67477371Y-47063957D01*
X67325799Y-46837114D01*
X67132886Y-46644201D01*
X66906043Y-46492629D01*
X66756868Y-46430839D01*
X66817224Y-46274726D01*
X66250000Y-45707502D01*
X65682776Y-46274726D01*
X65743132Y-46430839D01*
X65593957Y-46492629D01*
X65367114Y-46644201D01*
X65174201Y-46837114D01*
X65022629Y-47063957D01*
X64918225Y-47316011D01*
X64865000Y-47583589D01*
X47241212Y-47583589D01*
X49595107Y-45229694D01*
X64859186Y-45229694D01*
X64895605Y-45500073D01*
X64946039Y-45666330D01*
X65155274Y-45747224D01*
X65722498Y-45180000D01*
X66777502Y-45180000D01*
X67344726Y-45747224D01*
X67553961Y-45666330D01*
X67623785Y-45402595D01*
X67640814Y-45130306D01*
X67604395Y-44859927D01*
X67553961Y-44693670D01*
X67344726Y-44612776D01*
X66777502Y-45180000D01*
X65722498Y-45180000D01*
X65155274Y-44612776D01*
X64946039Y-44693670D01*
X64876215Y-44957405D01*
X64859186Y-45229694D01*
X49595107Y-45229694D01*
X58511010Y-36313793D01*
X58540001Y-36290001D01*
X58563795Y-36261008D01*
X58563799Y-36261004D01*
X58604412Y-36211517D01*
X58655557Y-36334992D01*
X58790713Y-36537267D01*
X58962733Y-36709287D01*
X59165008Y-36844443D01*
X59389764Y-36937540D01*
X59628363Y-36985000D01*
X59871637Y-36985000D01*
X60110236Y-36937540D01*
X60334992Y-36844443D01*
X60537267Y-36709287D01*
X60709287Y-36537267D01*
X60844443Y-36334992D01*
X60937540Y-36110236D01*
X60985000Y-35871637D01*
X60985000Y-35628363D01*
X60937540Y-35389764D01*
X60844443Y-35165008D01*
X60709287Y-34962733D01*
X60635000Y-34888446D01*
X60635000Y-34883589D01*
X64865000Y-34883589D01*
X64865000Y-35156411D01*
X64918225Y-35423989D01*
X65022629Y-35676043D01*
X65174201Y-35902886D01*
X65367114Y-36095799D01*
X65593957Y-36247371D01*
X65696873Y-36290000D01*
X65593957Y-36332629D01*
X65367114Y-36484201D01*
X65174201Y-36677114D01*
X65022629Y-36903957D01*
X64918225Y-37156011D01*
X64865000Y-37423589D01*
X64865000Y-37696411D01*
X64918225Y-37963989D01*
X65022629Y-38216043D01*
X65174201Y-38442886D01*
X65367114Y-38635799D01*
X65593957Y-38787371D01*
X65696873Y-38830000D01*
X65593957Y-38872629D01*
X65367114Y-39024201D01*
X65174201Y-39217114D01*
X65022629Y-39443957D01*
X64918225Y-39696011D01*
X64865000Y-39963589D01*
X64865000Y-40236411D01*
X64918225Y-40503989D01*
X65022629Y-40756043D01*
X65174201Y-40982886D01*
X65367114Y-41175799D01*
X65593957Y-41327371D01*
X65696873Y-41370000D01*
X65593957Y-41412629D01*
X65367114Y-41564201D01*
X65174201Y-41757114D01*
X65022629Y-41983957D01*
X64918225Y-42236011D01*
X64865000Y-42503589D01*
X64865000Y-42776411D01*
X64918225Y-43043989D01*
X65022629Y-43296043D01*
X65174201Y-43522886D01*
X65367114Y-43715799D01*
X65593957Y-43867371D01*
X65743132Y-43929161D01*
X65682776Y-44085274D01*
X66250000Y-44652498D01*
X66817224Y-44085274D01*
X66756868Y-43929161D01*
X66906043Y-43867371D01*
X67132886Y-43715799D01*
X67325799Y-43522886D01*
X67477371Y-43296043D01*
X67581775Y-43043989D01*
X67635000Y-42776411D01*
X67635000Y-42503589D01*
X67581775Y-42236011D01*
X67477371Y-41983957D01*
X67325799Y-41757114D01*
X67132886Y-41564201D01*
X66906043Y-41412629D01*
X66803127Y-41370000D01*
X66906043Y-41327371D01*
X67132886Y-41175799D01*
X67325799Y-40982886D01*
X67477371Y-40756043D01*
X67581775Y-40503989D01*
X67635000Y-40236411D01*
X67635000Y-39963589D01*
X67581775Y-39696011D01*
X67477371Y-39443957D01*
X67325799Y-39217114D01*
X67132886Y-39024201D01*
X66906043Y-38872629D01*
X66803127Y-38830000D01*
X66906043Y-38787371D01*
X67132886Y-38635799D01*
X67325799Y-38442886D01*
X67477371Y-38216043D01*
X67581775Y-37963989D01*
X67635000Y-37696411D01*
X67635000Y-37423589D01*
X67581775Y-37156011D01*
X67477371Y-36903957D01*
X67325799Y-36677114D01*
X67132886Y-36484201D01*
X66906043Y-36332629D01*
X66803127Y-36290000D01*
X66906043Y-36247371D01*
X67132886Y-36095799D01*
X67325799Y-35902886D01*
X67477371Y-35676043D01*
X67581775Y-35423989D01*
X67635000Y-35156411D01*
X67635000Y-34883589D01*
X67581775Y-34616011D01*
X67477371Y-34363957D01*
X67325799Y-34137114D01*
X67132886Y-33944201D01*
X66906043Y-33792629D01*
X66756868Y-33730839D01*
X66817224Y-33574726D01*
X66250000Y-33007502D01*
X65682776Y-33574726D01*
X65743132Y-33730839D01*
X65593957Y-33792629D01*
X65367114Y-33944201D01*
X65174201Y-34137114D01*
X65022629Y-34363957D01*
X64918225Y-34616011D01*
X64865000Y-34883589D01*
X60635000Y-34883589D01*
X60635000Y-33073000D01*
X61073000Y-33073000D01*
X61073000Y-33676250D01*
X61231750Y-33835000D01*
X61337397Y-33823104D01*
X61456318Y-33784326D01*
X61565389Y-33723093D01*
X61660419Y-33641758D01*
X61737755Y-33543447D01*
X61794425Y-33431937D01*
X61828252Y-33311514D01*
X61835000Y-33231750D01*
X61676250Y-33073000D01*
X61073000Y-33073000D01*
X60635000Y-33073000D01*
X60635000Y-32529694D01*
X64859186Y-32529694D01*
X64895605Y-32800073D01*
X64946039Y-32966330D01*
X65155274Y-33047224D01*
X65722498Y-32480000D01*
X66777502Y-32480000D01*
X67344726Y-33047224D01*
X67553961Y-32966330D01*
X67623785Y-32702595D01*
X67640814Y-32430306D01*
X67604395Y-32159927D01*
X67553961Y-31993670D01*
X67344726Y-31912776D01*
X66777502Y-32480000D01*
X65722498Y-32480000D01*
X65155274Y-31912776D01*
X64946039Y-31993670D01*
X64876215Y-32257405D01*
X64859186Y-32529694D01*
X60635000Y-32529694D01*
X60635000Y-31705501D01*
X60701185Y-31651185D01*
X60780537Y-31554494D01*
X60800000Y-31518082D01*
X60819463Y-31554494D01*
X60898815Y-31651185D01*
X60995506Y-31730537D01*
X61105820Y-31789502D01*
X61106916Y-31789834D01*
X61073000Y-31823750D01*
X61073000Y-32427000D01*
X61676250Y-32427000D01*
X61835000Y-32268250D01*
X61828252Y-32188486D01*
X61794425Y-32068063D01*
X61737755Y-31956553D01*
X61660419Y-31858242D01*
X61636853Y-31838072D01*
X62150000Y-31838072D01*
X62274482Y-31825812D01*
X62394180Y-31789502D01*
X62504494Y-31730537D01*
X62601185Y-31651185D01*
X62680537Y-31554494D01*
X62739502Y-31444180D01*
X62775812Y-31324482D01*
X62788072Y-31200000D01*
X62788072Y-30300000D01*
X62775812Y-30175518D01*
X62739502Y-30055820D01*
X62680537Y-29945506D01*
X62635000Y-29890019D01*
X62635000Y-27186578D01*
X64865000Y-24956579D01*
X64865000Y-24996411D01*
X64918225Y-25263989D01*
X65022629Y-25516043D01*
X65174201Y-25742886D01*
X65367114Y-25935799D01*
X65593957Y-26087371D01*
X65696873Y-26130000D01*
X65593957Y-26172629D01*
X65367114Y-26324201D01*
X65174201Y-26517114D01*
X65022629Y-26743957D01*
X64918225Y-26996011D01*
X64865000Y-27263589D01*
X64865000Y-27536411D01*
X64918225Y-27803989D01*
X65022629Y-28056043D01*
X65174201Y-28282886D01*
X65367114Y-28475799D01*
X65593957Y-28627371D01*
X65696873Y-28670000D01*
X65593957Y-28712629D01*
X65367114Y-28864201D01*
X65174201Y-29057114D01*
X65022629Y-29283957D01*
X64918225Y-29536011D01*
X64865000Y-29803589D01*
X64865000Y-30076411D01*
X64918225Y-30343989D01*
X65022629Y-30596043D01*
X65174201Y-30822886D01*
X65367114Y-31015799D01*
X65593957Y-31167371D01*
X65743132Y-31229161D01*
X65682776Y-31385274D01*
X66250000Y-31952498D01*
X66817224Y-31385274D01*
X66756868Y-31229161D01*
X66906043Y-31167371D01*
X67132886Y-31015799D01*
X67325799Y-30822886D01*
X67477371Y-30596043D01*
X67581775Y-30343989D01*
X67635000Y-30076411D01*
X67635000Y-29803589D01*
X67581775Y-29536011D01*
X67477371Y-29283957D01*
X67325799Y-29057114D01*
X67132886Y-28864201D01*
X66906043Y-28712629D01*
X66803127Y-28670000D01*
X66906043Y-28627371D01*
X67132886Y-28475799D01*
X67325799Y-28282886D01*
X67477371Y-28056043D01*
X67581775Y-27803989D01*
X67635000Y-27536411D01*
X67635000Y-27263589D01*
X67581775Y-26996011D01*
X67477371Y-26743957D01*
X67325799Y-26517114D01*
X67132886Y-26324201D01*
X66906043Y-26172629D01*
X66803127Y-26130000D01*
X66906043Y-26087371D01*
X67132886Y-25935799D01*
X67325799Y-25742886D01*
X67477371Y-25516043D01*
X67581775Y-25263989D01*
X67635000Y-24996411D01*
X67635000Y-24723589D01*
X67606167Y-24578635D01*
X69886009Y-22298794D01*
X69915001Y-22275001D01*
X69938795Y-22246008D01*
X69938799Y-22246004D01*
X70009973Y-22159277D01*
X70009974Y-22159276D01*
X70080546Y-22027247D01*
X70124003Y-21883986D01*
X70135000Y-21772333D01*
X70135000Y-21772324D01*
X70138676Y-21735001D01*
X70135000Y-21697678D01*
X70135000Y-18650072D01*
X70665000Y-18650072D01*
X70665001Y-26621288D01*
X70546063Y-26740226D01*
X70432795Y-26909744D01*
X70354774Y-27098102D01*
X70315000Y-27298061D01*
X70315000Y-27501939D01*
X70354774Y-27701898D01*
X70432795Y-27890256D01*
X70546063Y-28059774D01*
X70690226Y-28203937D01*
X70859744Y-28317205D01*
X71048102Y-28395226D01*
X71248061Y-28435000D01*
X71451939Y-28435000D01*
X71651898Y-28395226D01*
X71840256Y-28317205D01*
X72009774Y-28203937D01*
X72153937Y-28059774D01*
X72267205Y-27890256D01*
X72345226Y-27701898D01*
X72385000Y-27501939D01*
X72385000Y-27298061D01*
X72345226Y-27098102D01*
X72267205Y-26909744D01*
X72185000Y-26786715D01*
X72185000Y-20349258D01*
X72280750Y-20360000D01*
X72439500Y-20201250D01*
X72439500Y-19598000D01*
X72357000Y-19598000D01*
X72357000Y-18902000D01*
X72439500Y-18902000D01*
X72439500Y-18857000D01*
X72802490Y-18857000D01*
X72802491Y-34233798D01*
X72676063Y-34360226D01*
X72562795Y-34529744D01*
X72484774Y-34718102D01*
X72445000Y-34918061D01*
X72445000Y-35121939D01*
X72484774Y-35321898D01*
X72562795Y-35510256D01*
X72676063Y-35679774D01*
X72820226Y-35823937D01*
X72989744Y-35937205D01*
X73178102Y-36015226D01*
X73378061Y-36055000D01*
X73581939Y-36055000D01*
X73781898Y-36015226D01*
X73970256Y-35937205D01*
X74139774Y-35823937D01*
X74283937Y-35679774D01*
X74397205Y-35510256D01*
X74475226Y-35321898D01*
X74515000Y-35121939D01*
X74515000Y-34918061D01*
X74475226Y-34718102D01*
X74397205Y-34529744D01*
X74322490Y-34417925D01*
X74322490Y-21535000D01*
X74426939Y-21535000D01*
X74626898Y-21495226D01*
X74815256Y-21417205D01*
X74984774Y-21303937D01*
X75065000Y-21223711D01*
X75065001Y-36732827D01*
X75030226Y-36756063D01*
X74886063Y-36900226D01*
X74772795Y-37069744D01*
X74694774Y-37258102D01*
X74655000Y-37458061D01*
X74655000Y-37661939D01*
X74694774Y-37861898D01*
X74772795Y-38050256D01*
X74886063Y-38219774D01*
X75030226Y-38363937D01*
X75199744Y-38477205D01*
X75388102Y-38555226D01*
X75588061Y-38595000D01*
X75791939Y-38595000D01*
X75991898Y-38555226D01*
X76180256Y-38477205D01*
X76349774Y-38363937D01*
X76493937Y-38219774D01*
X76607205Y-38050256D01*
X76685226Y-37861898D01*
X76725000Y-37661939D01*
X76725000Y-37458061D01*
X76685226Y-37258102D01*
X76607205Y-37069744D01*
X76585000Y-37036512D01*
X76585000Y-30804444D01*
X76623102Y-30820226D01*
X76823061Y-30860000D01*
X77026939Y-30860000D01*
X77226898Y-30820226D01*
X77415256Y-30742205D01*
X77584774Y-30628937D01*
X77728937Y-30484774D01*
X77842205Y-30315256D01*
X77920226Y-30126898D01*
X77960000Y-29926939D01*
X77960000Y-29723061D01*
X77920226Y-29523102D01*
X77842205Y-29334744D01*
X77728937Y-29165226D01*
X77685000Y-29121289D01*
X77685000Y-20205750D01*
X80640000Y-20205750D01*
X80798750Y-20364500D01*
X81402000Y-20364500D01*
X81402000Y-19761250D01*
X82098000Y-19761250D01*
X82098000Y-20364500D01*
X82701250Y-20364500D01*
X82778960Y-20286790D01*
X82935274Y-20347224D01*
X83502498Y-19780000D01*
X84557502Y-19780000D01*
X85124726Y-20347224D01*
X85333961Y-20266330D01*
X85403785Y-20002595D01*
X85420814Y-19730306D01*
X85384395Y-19459927D01*
X85333961Y-19293670D01*
X85124726Y-19212776D01*
X84557502Y-19780000D01*
X83502498Y-19780000D01*
X82935274Y-19212776D01*
X82726039Y-19293670D01*
X82656215Y-19557405D01*
X82643613Y-19758902D01*
X82568797Y-19699969D01*
X82457324Y-19643226D01*
X82336923Y-19609321D01*
X82256750Y-19602500D01*
X82098000Y-19761250D01*
X81402000Y-19761250D01*
X81243250Y-19602500D01*
X81163077Y-19609321D01*
X81042676Y-19643226D01*
X80931203Y-19699969D01*
X80832942Y-19777369D01*
X80751669Y-19872452D01*
X80690507Y-19981563D01*
X80651807Y-20100510D01*
X80640000Y-20205750D01*
X77685000Y-20205750D01*
X77685000Y-18650072D01*
X78375000Y-18650072D01*
X78499482Y-18637812D01*
X78619180Y-18601502D01*
X78725000Y-18544939D01*
X78830820Y-18601502D01*
X78950518Y-18637812D01*
X79075000Y-18650072D01*
X80075000Y-18650072D01*
X80199482Y-18637812D01*
X80319180Y-18601502D01*
X80429494Y-18542537D01*
X80526185Y-18463185D01*
X80605537Y-18366494D01*
X80664502Y-18256180D01*
X80700812Y-18136482D01*
X80713072Y-18012000D01*
X80713072Y-16812000D01*
X80700812Y-16687518D01*
X80664502Y-16567820D01*
X80605537Y-16457506D01*
X80526185Y-16360815D01*
X80429494Y-16281463D01*
X80319180Y-16222498D01*
X80199482Y-16186188D01*
X80075000Y-16173928D01*
X79075000Y-16173928D01*
X78950518Y-16186188D01*
X78830820Y-16222498D01*
X78725000Y-16279061D01*
X78619180Y-16222498D01*
X78499482Y-16186188D01*
X78375000Y-16173928D01*
X77675000Y-16173928D01*
X77550518Y-16186188D01*
X77475000Y-16209096D01*
X77399482Y-16186188D01*
X77275000Y-16173928D01*
X76575000Y-16173928D01*
X76450518Y-16186188D01*
X76375000Y-16209096D01*
X76299482Y-16186188D01*
X76175000Y-16173928D01*
X75475000Y-16173928D01*
X75350518Y-16186188D01*
X75275000Y-16209096D01*
X75199482Y-16186188D01*
X75075000Y-16173928D01*
X74375000Y-16173928D01*
X74250518Y-16186188D01*
X74175000Y-16209096D01*
X74099482Y-16186188D01*
X73975000Y-16173928D01*
X73275000Y-16173928D01*
X73150518Y-16186188D01*
X73074682Y-16209192D01*
X73010289Y-16188436D01*
X72906750Y-16177000D01*
X72748000Y-16335750D01*
X72748000Y-16453196D01*
X72744463Y-16457506D01*
X72685498Y-16567820D01*
X72649188Y-16687518D01*
X72636928Y-16812000D01*
X72636928Y-18012000D01*
X72649188Y-18136482D01*
X72650255Y-18140000D01*
X72399745Y-18140000D01*
X72400812Y-18136482D01*
X72413072Y-18012000D01*
X72413072Y-16812000D01*
X72400812Y-16687518D01*
X72364502Y-16567820D01*
X72305537Y-16457506D01*
X72302000Y-16453196D01*
X72302000Y-16335750D01*
X72143250Y-16177000D01*
X72039711Y-16188436D01*
X71975318Y-16209192D01*
X71899482Y-16186188D01*
X71775000Y-16173928D01*
X71075000Y-16173928D01*
X70950518Y-16186188D01*
X70875000Y-16209096D01*
X70799482Y-16186188D01*
X70675000Y-16173928D01*
X70269593Y-16173928D01*
X70342205Y-16065256D01*
X70420226Y-15876898D01*
X70460000Y-15676939D01*
X70460000Y-15473061D01*
X70420226Y-15273102D01*
X70342205Y-15084744D01*
X70228937Y-14915226D01*
X70084774Y-14771063D01*
X69915256Y-14657795D01*
X69726898Y-14579774D01*
X69526939Y-14540000D01*
X69323061Y-14540000D01*
X69123102Y-14579774D01*
X68934744Y-14657795D01*
X68765226Y-14771063D01*
X68621063Y-14915226D01*
X68507795Y-15084744D01*
X68429774Y-15273102D01*
X68390000Y-15473061D01*
X68390000Y-15676939D01*
X68429774Y-15876898D01*
X68507795Y-16065256D01*
X68615001Y-16225701D01*
X68615001Y-16327015D01*
X68573815Y-16360815D01*
X68494463Y-16457506D01*
X68435498Y-16567820D01*
X68399188Y-16687518D01*
X68386928Y-16812000D01*
X68386928Y-18012000D01*
X68399188Y-18136482D01*
X68435498Y-18256180D01*
X68494463Y-18366494D01*
X68573815Y-18463185D01*
X68615001Y-18496985D01*
X68615000Y-21420197D01*
X67635000Y-22400198D01*
X67635000Y-22183589D01*
X67581775Y-21916011D01*
X67477371Y-21663957D01*
X67325799Y-21437114D01*
X67132886Y-21244201D01*
X66906043Y-21092629D01*
X66756868Y-21030839D01*
X66817224Y-20874726D01*
X66250000Y-20307502D01*
X65682776Y-20874726D01*
X65743132Y-21030839D01*
X65593957Y-21092629D01*
X65367114Y-21244201D01*
X65174201Y-21437114D01*
X65022629Y-21663957D01*
X64918225Y-21916011D01*
X64865000Y-22183589D01*
X64865000Y-22453421D01*
X61154952Y-26163470D01*
X61121184Y-26191183D01*
X61093471Y-26224951D01*
X61093468Y-26224954D01*
X61010590Y-26325941D01*
X60928412Y-26479687D01*
X60877805Y-26646510D01*
X60860719Y-26820000D01*
X60865001Y-26863479D01*
X60865000Y-29890019D01*
X60819463Y-29945506D01*
X60800000Y-29981918D01*
X60780537Y-29945506D01*
X60701185Y-29848815D01*
X60604494Y-29769463D01*
X60494180Y-29710498D01*
X60374482Y-29674188D01*
X60250000Y-29661928D01*
X59450000Y-29661928D01*
X59325518Y-29674188D01*
X59205820Y-29710498D01*
X59095506Y-29769463D01*
X58998815Y-29848815D01*
X58919463Y-29945506D01*
X58860498Y-30055820D01*
X58824188Y-30175518D01*
X58811928Y-30300000D01*
X58811928Y-31200000D01*
X58824188Y-31324482D01*
X58860498Y-31444180D01*
X58865001Y-31452604D01*
X58865000Y-34888446D01*
X58790713Y-34962733D01*
X58760000Y-35008698D01*
X58760000Y-25804801D01*
X64867464Y-19697338D01*
X64859186Y-19829694D01*
X64895605Y-20100073D01*
X64946039Y-20266330D01*
X65155274Y-20347224D01*
X65722498Y-19780000D01*
X66777502Y-19780000D01*
X67344726Y-20347224D01*
X67553961Y-20266330D01*
X67623785Y-20002595D01*
X67640814Y-19730306D01*
X67604395Y-19459927D01*
X67553961Y-19293670D01*
X67344726Y-19212776D01*
X66777502Y-19780000D01*
X65722498Y-19780000D01*
X65708356Y-19765858D01*
X66235858Y-19238356D01*
X66250000Y-19252498D01*
X66817224Y-18685274D01*
X66756868Y-18529161D01*
X66906043Y-18467371D01*
X67132886Y-18315799D01*
X67325799Y-18122886D01*
X67477371Y-17896043D01*
X67581775Y-17643989D01*
X67635000Y-17376411D01*
X67635000Y-17103589D01*
X67581775Y-16836011D01*
X67477371Y-16583957D01*
X67325799Y-16357114D01*
X67132886Y-16164201D01*
X66906043Y-16012629D01*
X66803127Y-15970000D01*
X66906043Y-15927371D01*
X67132886Y-15775799D01*
X67325799Y-15582886D01*
X67477371Y-15356043D01*
X67581775Y-15103989D01*
X67635000Y-14836411D01*
X67635000Y-14563589D01*
X67581775Y-14296011D01*
X67554022Y-14229009D01*
X67570506Y-14242537D01*
X67680820Y-14301502D01*
X67800518Y-14337812D01*
X67925000Y-14350072D01*
X68925000Y-14350072D01*
X69049482Y-14337812D01*
X69169180Y-14301502D01*
X69279494Y-14242537D01*
X69376185Y-14163185D01*
X69455537Y-14066494D01*
X69514502Y-13956180D01*
X69550812Y-13836482D01*
X69563072Y-13712000D01*
X69563072Y-12512000D01*
X69550812Y-12387518D01*
X69514502Y-12267820D01*
X69455537Y-12157506D01*
X69376185Y-12060815D01*
X69279494Y-11981463D01*
X69169180Y-11922498D01*
X69049482Y-11886188D01*
X68925000Y-11873928D01*
X67925000Y-11873928D01*
X67800518Y-11886188D01*
X67680820Y-11922498D01*
X67621228Y-11954351D01*
X67581775Y-11756011D01*
X67477371Y-11503957D01*
X67325799Y-11277114D01*
X67132886Y-11084201D01*
X66906043Y-10932629D01*
X66803127Y-10890000D01*
X66906043Y-10847371D01*
X67132886Y-10695799D01*
X67325799Y-10502886D01*
X67477371Y-10276043D01*
X67581775Y-10023989D01*
X67635000Y-9756411D01*
X67635000Y-9483589D01*
X67581775Y-9216011D01*
X67477371Y-8963957D01*
X67325799Y-8737114D01*
X67132886Y-8544201D01*
X66906043Y-8392629D01*
X66756868Y-8330839D01*
X66817224Y-8174726D01*
X66250000Y-7607502D01*
X65682776Y-8174726D01*
X65743132Y-8330839D01*
X65593957Y-8392629D01*
X65367114Y-8544201D01*
X65174201Y-8737114D01*
X65022629Y-8963957D01*
X64918225Y-9216011D01*
X64865000Y-9483589D01*
X64865000Y-9756411D01*
X64918225Y-10023989D01*
X65022629Y-10276043D01*
X65174201Y-10502886D01*
X65367114Y-10695799D01*
X65593957Y-10847371D01*
X65696873Y-10890000D01*
X65593957Y-10932629D01*
X65367114Y-11084201D01*
X65174201Y-11277114D01*
X65022629Y-11503957D01*
X64918225Y-11756011D01*
X64865000Y-12023589D01*
X64865000Y-12296411D01*
X64918225Y-12563989D01*
X65022629Y-12816043D01*
X65174201Y-13042886D01*
X65367114Y-13235799D01*
X65593957Y-13387371D01*
X65696873Y-13430000D01*
X65593957Y-13472629D01*
X65367114Y-13624201D01*
X65174201Y-13817114D01*
X65022629Y-14043957D01*
X64918225Y-14296011D01*
X64865000Y-14563589D01*
X64865000Y-14836411D01*
X64893833Y-14981365D01*
X56738998Y-23136201D01*
X56710000Y-23159999D01*
X56686202Y-23188997D01*
X56686201Y-23188998D01*
X56615026Y-23275724D01*
X56544454Y-23407754D01*
X56514707Y-23505820D01*
X56500998Y-23551014D01*
X56497868Y-23582795D01*
X56486324Y-23700000D01*
X56490001Y-23737332D01*
X56490000Y-35185198D01*
X55985000Y-35690198D01*
X55985000Y-35628363D01*
X55937540Y-35389764D01*
X55844443Y-35165008D01*
X55709287Y-34962733D01*
X55635000Y-34888446D01*
X55635000Y-33121729D01*
X55718671Y-33019775D01*
X55797850Y-32871642D01*
X55846608Y-32710908D01*
X55863072Y-32543750D01*
X55863072Y-32106250D01*
X55846608Y-31939092D01*
X55797850Y-31778358D01*
X55718671Y-31630225D01*
X55642574Y-31537500D01*
X55718671Y-31444775D01*
X55797850Y-31296642D01*
X55846608Y-31135908D01*
X55863072Y-30968750D01*
X55863072Y-30531250D01*
X55846608Y-30364092D01*
X55797850Y-30203358D01*
X55718671Y-30055225D01*
X55612115Y-29925385D01*
X55482275Y-29818829D01*
X55334142Y-29739650D01*
X55173408Y-29690892D01*
X55006250Y-29674428D01*
X54926007Y-29674428D01*
X46906534Y-21654956D01*
X46878817Y-21621183D01*
X46744059Y-21510589D01*
X46590313Y-21428411D01*
X46423490Y-21377805D01*
X46293477Y-21365000D01*
X46293469Y-21365000D01*
X46250000Y-21360719D01*
X46206531Y-21365000D01*
X41124077Y-21365000D01*
X55864076Y-6625001D01*
X64937744Y-6625001D01*
X64876215Y-6857405D01*
X64859186Y-7129694D01*
X64895605Y-7400073D01*
X64946039Y-7566330D01*
X65155274Y-7647224D01*
X65722498Y-7080000D01*
X65708356Y-7065858D01*
X66149213Y-6625001D01*
X66350787Y-6625001D01*
X66791644Y-7065858D01*
X66777502Y-7080000D01*
X67344726Y-7647224D01*
X67377318Y-7634623D01*
X67401445Y-7677728D01*
X67482660Y-7772860D01*
X67580874Y-7850320D01*
X67692312Y-7907131D01*
X67812692Y-7941111D01*
X67893250Y-7948000D01*
X68052000Y-7789250D01*
X68052000Y-7186000D01*
X68798000Y-7186000D01*
X68798000Y-7789250D01*
X68956750Y-7948000D01*
X69037308Y-7941111D01*
X69157688Y-7907131D01*
X69269126Y-7850320D01*
X69367340Y-7772860D01*
X69448555Y-7677728D01*
X69509650Y-7568579D01*
X69548277Y-7449609D01*
X69560000Y-7344750D01*
X69401250Y-7186000D01*
X68798000Y-7186000D01*
X68052000Y-7186000D01*
X68032000Y-7186000D01*
X68032000Y-6640000D01*
X68052000Y-6640000D01*
X68052000Y-6625001D01*
X68798000Y-6625001D01*
X68798000Y-6640000D01*
X69401250Y-6640000D01*
X69416249Y-6625001D01*
X82717744Y-6625001D01*
X82656215Y-6857405D01*
X82639186Y-7129694D01*
X82675605Y-7400073D01*
X82726039Y-7566330D01*
X82935274Y-7647224D01*
X83502498Y-7080000D01*
X84557502Y-7080000D01*
X85124726Y-7647224D01*
X85333961Y-7566330D01*
X85403785Y-7302595D01*
X85420814Y-7030306D01*
X85384395Y-6759927D01*
X85333961Y-6593670D01*
X85124726Y-6512776D01*
X84557502Y-7080000D01*
X83502498Y-7080000D01*
X83488356Y-7065858D01*
X84015858Y-6538356D01*
X84030000Y-6552498D01*
X84597224Y-5985274D01*
X84536868Y-5829161D01*
X84686043Y-5767371D01*
X84912886Y-5615799D01*
X85105799Y-5422886D01*
X85257371Y-5196043D01*
X85361775Y-4943989D01*
X85415000Y-4676411D01*
X85415000Y-4403589D01*
X85361775Y-4136011D01*
X85257371Y-3883957D01*
X85105799Y-3657114D01*
X84912886Y-3464201D01*
X84686043Y-3312629D01*
X84583127Y-3270000D01*
X84686043Y-3227371D01*
X84912886Y-3075799D01*
X85105799Y-2882886D01*
X85257371Y-2656043D01*
X85361775Y-2403989D01*
X85409995Y-2161573D01*
X85665000Y-2416579D01*
X85664999Y-13150540D01*
X85568829Y-13267725D01*
X85489650Y-13415858D01*
X85440892Y-13576592D01*
X85424428Y-13743750D01*
X85424428Y-14256250D01*
X85440892Y-14423408D01*
X85476763Y-14541658D01*
X85415000Y-14603421D01*
X85415000Y-14563589D01*
X85361775Y-14296011D01*
X85257371Y-14043957D01*
X85105799Y-13817114D01*
X84912886Y-13624201D01*
X84686043Y-13472629D01*
X84583127Y-13430000D01*
X84686043Y-13387371D01*
X84912886Y-13235799D01*
X85105799Y-13042886D01*
X85257371Y-12816043D01*
X85361775Y-12563989D01*
X85415000Y-12296411D01*
X85415000Y-12023589D01*
X85361775Y-11756011D01*
X85257371Y-11503957D01*
X85105799Y-11277114D01*
X84912886Y-11084201D01*
X84686043Y-10932629D01*
X84583127Y-10890000D01*
X84686043Y-10847371D01*
X84912886Y-10695799D01*
X85105799Y-10502886D01*
X85257371Y-10276043D01*
X85361775Y-10023989D01*
X85415000Y-9756411D01*
X85415000Y-9483589D01*
X85361775Y-9216011D01*
X85257371Y-8963957D01*
X85105799Y-8737114D01*
X84912886Y-8544201D01*
X84686043Y-8392629D01*
X84536868Y-8330839D01*
X84597224Y-8174726D01*
X84030000Y-7607502D01*
X83462776Y-8174726D01*
X83523132Y-8330839D01*
X83373957Y-8392629D01*
X83147114Y-8544201D01*
X82954201Y-8737114D01*
X82802629Y-8963957D01*
X82698225Y-9216011D01*
X82645000Y-9483589D01*
X82645000Y-9756411D01*
X82698225Y-10023989D01*
X82802629Y-10276043D01*
X82954201Y-10502886D01*
X83147114Y-10695799D01*
X83373957Y-10847371D01*
X83476873Y-10890000D01*
X83373957Y-10932629D01*
X83147114Y-11084201D01*
X82954201Y-11277114D01*
X82802629Y-11503957D01*
X82698225Y-11756011D01*
X82645000Y-12023589D01*
X82645000Y-12296411D01*
X82698225Y-12563989D01*
X82802629Y-12816043D01*
X82954201Y-13042886D01*
X83147114Y-13235799D01*
X83373957Y-13387371D01*
X83476873Y-13430000D01*
X83373957Y-13472629D01*
X83147114Y-13624201D01*
X82954201Y-13817114D01*
X82802629Y-14043957D01*
X82698225Y-14296011D01*
X82645000Y-14563589D01*
X82645000Y-14836411D01*
X82698225Y-15103989D01*
X82802629Y-15356043D01*
X82954201Y-15582886D01*
X83147114Y-15775799D01*
X83373957Y-15927371D01*
X83476873Y-15970000D01*
X83373957Y-16012629D01*
X83147114Y-16164201D01*
X82954201Y-16357114D01*
X82802629Y-16583957D01*
X82698225Y-16836011D01*
X82645000Y-17103589D01*
X82645000Y-17376411D01*
X82698225Y-17643989D01*
X82802629Y-17896043D01*
X82954201Y-18122886D01*
X83147114Y-18315799D01*
X83373957Y-18467371D01*
X83523132Y-18529161D01*
X83462776Y-18685274D01*
X84030000Y-19252498D01*
X84597224Y-18685274D01*
X84536868Y-18529161D01*
X84686043Y-18467371D01*
X84912886Y-18315799D01*
X85105799Y-18122886D01*
X85168179Y-18029527D01*
X86747974Y-18029527D01*
X86861302Y-18263678D01*
X87168877Y-18359197D01*
X87489178Y-18392875D01*
X87809895Y-18363418D01*
X88118703Y-18271960D01*
X88138698Y-18263678D01*
X88252026Y-18029527D01*
X87500000Y-17277502D01*
X86747974Y-18029527D01*
X85168179Y-18029527D01*
X85257371Y-17896043D01*
X85361775Y-17643989D01*
X85415000Y-17376411D01*
X85415000Y-17106578D01*
X85865905Y-16655673D01*
X85857125Y-16739178D01*
X85886582Y-17059895D01*
X85978040Y-17368703D01*
X85986322Y-17388698D01*
X86220473Y-17502026D01*
X86972498Y-16750000D01*
X88027502Y-16750000D01*
X88779527Y-17502026D01*
X89013678Y-17388698D01*
X89109197Y-17081123D01*
X89142875Y-16760822D01*
X89127091Y-16588967D01*
X90365000Y-16588967D01*
X90365000Y-16911033D01*
X90427832Y-17226912D01*
X90551082Y-17524463D01*
X90730013Y-17792252D01*
X90957748Y-18019987D01*
X91225537Y-18198918D01*
X91523088Y-18322168D01*
X91838967Y-18385000D01*
X92161033Y-18385000D01*
X92476912Y-18322168D01*
X92774463Y-18198918D01*
X93042252Y-18019987D01*
X93269987Y-17792252D01*
X93448918Y-17524463D01*
X93572168Y-17226912D01*
X93635000Y-16911033D01*
X93635000Y-16588967D01*
X93572168Y-16273088D01*
X93448918Y-15975537D01*
X93269987Y-15707748D01*
X93042252Y-15480013D01*
X92774463Y-15301082D01*
X92476912Y-15177832D01*
X92161033Y-15115000D01*
X91838967Y-15115000D01*
X91523088Y-15177832D01*
X91225537Y-15301082D01*
X90957748Y-15480013D01*
X90730013Y-15707748D01*
X90551082Y-15975537D01*
X90427832Y-16273088D01*
X90365000Y-16588967D01*
X89127091Y-16588967D01*
X89113418Y-16440105D01*
X89021960Y-16131297D01*
X89013678Y-16111302D01*
X88779527Y-15997974D01*
X88027502Y-16750000D01*
X86972498Y-16750000D01*
X86958356Y-16735858D01*
X87485858Y-16208356D01*
X87500000Y-16222498D01*
X88252026Y-15470473D01*
X88138698Y-15236322D01*
X87831123Y-15140803D01*
X87510822Y-15107125D01*
X87338087Y-15122990D01*
X87342358Y-15115000D01*
X87371588Y-15060314D01*
X87373251Y-15054833D01*
X87381563Y-15059493D01*
X87500510Y-15098193D01*
X87605750Y-15110000D01*
X87764500Y-14951250D01*
X87764500Y-14348000D01*
X88385500Y-14348000D01*
X88385500Y-14951250D01*
X88544250Y-15110000D01*
X88649490Y-15098193D01*
X88768437Y-15059493D01*
X88877548Y-14998331D01*
X88972631Y-14917058D01*
X89050031Y-14818797D01*
X89106774Y-14707324D01*
X89140679Y-14586923D01*
X89147500Y-14506750D01*
X88988750Y-14348000D01*
X88385500Y-14348000D01*
X87764500Y-14348000D01*
X87682000Y-14348000D01*
X87682000Y-13652000D01*
X87764500Y-13652000D01*
X87764500Y-13048750D01*
X88385500Y-13048750D01*
X88385500Y-13652000D01*
X88988750Y-13652000D01*
X89147500Y-13493250D01*
X89140679Y-13413077D01*
X89106774Y-13292676D01*
X89050031Y-13181203D01*
X88972631Y-13082942D01*
X88877548Y-13001669D01*
X88768437Y-12940507D01*
X88649490Y-12901807D01*
X88544250Y-12890000D01*
X88385500Y-13048750D01*
X87764500Y-13048750D01*
X87605750Y-12890000D01*
X87500510Y-12901807D01*
X87434999Y-12923121D01*
X87434999Y-7222113D01*
X87842188Y-7629302D01*
X88396601Y-7999748D01*
X89012632Y-8254917D01*
X89666607Y-8385000D01*
X90333393Y-8385000D01*
X90987368Y-8254917D01*
X91603399Y-7999748D01*
X92157812Y-7629302D01*
X92629302Y-7157812D01*
X92999748Y-6603399D01*
X93254917Y-5987368D01*
X93385000Y-5333393D01*
X93385000Y-4666607D01*
X93254917Y-4012632D01*
X92999748Y-3396601D01*
X92629302Y-2842188D01*
X92157812Y-2370698D01*
X91603399Y-2000252D01*
X90987368Y-1745083D01*
X90333393Y-1615000D01*
X89666607Y-1615000D01*
X89012632Y-1745083D01*
X88396601Y-2000252D01*
X87842188Y-2370698D01*
X87434999Y-2777887D01*
X87434999Y-2093468D01*
X87439280Y-2049999D01*
X87434999Y-2006530D01*
X87434999Y-2006522D01*
X87422194Y-1876509D01*
X87371588Y-1709686D01*
X87289410Y-1555940D01*
X87261227Y-1521599D01*
X87206531Y-1454952D01*
X87206529Y-1454950D01*
X87178816Y-1421182D01*
X87145048Y-1393469D01*
X86636579Y-885000D01*
X94115000Y-885000D01*
X94115001Y-64115000D01*
G36*
X64865000Y-4403589D02*
G01*
X64865000Y-4676411D01*
X64900524Y-4855001D01*
X55540962Y-4855001D01*
X55497496Y-4850720D01*
X55454030Y-4855001D01*
X55454020Y-4855001D01*
X55324007Y-4867806D01*
X55157184Y-4918412D01*
X55003438Y-5000590D01*
X55003436Y-5000591D01*
X55003437Y-5000591D01*
X54902450Y-5083469D01*
X54902448Y-5083471D01*
X54868680Y-5111184D01*
X54840967Y-5144952D01*
X19877000Y-40108920D01*
X19877000Y-31377000D01*
X24250000Y-31377000D01*
X24274776Y-31374560D01*
X24298601Y-31367333D01*
X24320557Y-31355597D01*
X24339803Y-31339803D01*
X24355597Y-31320557D01*
X24367333Y-31298601D01*
X24374560Y-31274776D01*
X24377000Y-31250000D01*
X24377000Y-28802606D01*
X26552606Y-26627000D01*
X33250000Y-26627000D01*
X33274776Y-26624560D01*
X33298601Y-26617333D01*
X33320557Y-26605597D01*
X33339803Y-26589803D01*
X33355597Y-26570557D01*
X33367333Y-26548601D01*
X33374560Y-26524776D01*
X33377000Y-26500000D01*
X33377000Y-12250000D01*
X34107319Y-12250000D01*
X34137970Y-12561204D01*
X34228745Y-12860449D01*
X34376155Y-13136235D01*
X34574537Y-13377963D01*
X34747609Y-13520000D01*
X34574537Y-13662037D01*
X34376155Y-13903765D01*
X34228745Y-14179551D01*
X34137970Y-14478796D01*
X34107319Y-14790000D01*
X34137970Y-15101204D01*
X34228745Y-15400449D01*
X34376155Y-15676235D01*
X34479446Y-15802095D01*
X34395506Y-15846963D01*
X34298815Y-15926315D01*
X34219463Y-16023006D01*
X34160498Y-16133320D01*
X34124188Y-16253018D01*
X34111928Y-16377500D01*
X34111928Y-18282500D01*
X34124188Y-18406982D01*
X34160498Y-18526680D01*
X34219463Y-18636994D01*
X34298815Y-18733685D01*
X34395506Y-18813037D01*
X34505820Y-18872002D01*
X34625518Y-18908312D01*
X34750000Y-18920572D01*
X36750000Y-18920572D01*
X36874482Y-18908312D01*
X36994180Y-18872002D01*
X37104494Y-18813037D01*
X37201185Y-18733685D01*
X37280537Y-18636994D01*
X37339502Y-18526680D01*
X37375812Y-18406982D01*
X37388072Y-18282500D01*
X37388072Y-16377500D01*
X37375812Y-16253018D01*
X37339502Y-16133320D01*
X37280537Y-16023006D01*
X37201185Y-15926315D01*
X37104494Y-15846963D01*
X37020554Y-15802095D01*
X37123845Y-15676235D01*
X37271255Y-15400449D01*
X37362030Y-15101204D01*
X37392681Y-14790000D01*
X37362030Y-14478796D01*
X37271255Y-14179551D01*
X37123845Y-13903765D01*
X36925463Y-13662037D01*
X36752391Y-13520000D01*
X36925463Y-13377963D01*
X37123845Y-13136235D01*
X37271255Y-12860449D01*
X37362030Y-12561204D01*
X37392681Y-12250000D01*
X37362030Y-11938796D01*
X37271255Y-11639551D01*
X37123845Y-11363765D01*
X36925463Y-11122037D01*
X36683735Y-10923655D01*
X36407949Y-10776245D01*
X36108704Y-10685470D01*
X35875486Y-10662500D01*
X35624514Y-10662500D01*
X35391296Y-10685470D01*
X35092051Y-10776245D01*
X34816265Y-10923655D01*
X34574537Y-11122037D01*
X34376155Y-11363765D01*
X34228745Y-11639551D01*
X34137970Y-11938796D01*
X34107319Y-12250000D01*
X33377000Y-12250000D01*
X33377000Y-5124579D01*
X34116579Y-4385000D01*
X64706531Y-4385000D01*
X64750000Y-4389281D01*
X64793469Y-4385000D01*
X64793477Y-4385000D01*
X64870201Y-4377443D01*
X64865000Y-4403589D01*
G37*
X64865000Y-4403589D02*
X64865000Y-4676411D01*
X64900524Y-4855001D01*
X55540962Y-4855001D01*
X55497496Y-4850720D01*
X55454030Y-4855001D01*
X55454020Y-4855001D01*
X55324007Y-4867806D01*
X55157184Y-4918412D01*
X55003438Y-5000590D01*
X55003436Y-5000591D01*
X55003437Y-5000591D01*
X54902450Y-5083469D01*
X54902448Y-5083471D01*
X54868680Y-5111184D01*
X54840967Y-5144952D01*
X19877000Y-40108920D01*
X19877000Y-31377000D01*
X24250000Y-31377000D01*
X24274776Y-31374560D01*
X24298601Y-31367333D01*
X24320557Y-31355597D01*
X24339803Y-31339803D01*
X24355597Y-31320557D01*
X24367333Y-31298601D01*
X24374560Y-31274776D01*
X24377000Y-31250000D01*
X24377000Y-28802606D01*
X26552606Y-26627000D01*
X33250000Y-26627000D01*
X33274776Y-26624560D01*
X33298601Y-26617333D01*
X33320557Y-26605597D01*
X33339803Y-26589803D01*
X33355597Y-26570557D01*
X33367333Y-26548601D01*
X33374560Y-26524776D01*
X33377000Y-26500000D01*
X33377000Y-12250000D01*
X34107319Y-12250000D01*
X34137970Y-12561204D01*
X34228745Y-12860449D01*
X34376155Y-13136235D01*
X34574537Y-13377963D01*
X34747609Y-13520000D01*
X34574537Y-13662037D01*
X34376155Y-13903765D01*
X34228745Y-14179551D01*
X34137970Y-14478796D01*
X34107319Y-14790000D01*
X34137970Y-15101204D01*
X34228745Y-15400449D01*
X34376155Y-15676235D01*
X34479446Y-15802095D01*
X34395506Y-15846963D01*
X34298815Y-15926315D01*
X34219463Y-16023006D01*
X34160498Y-16133320D01*
X34124188Y-16253018D01*
X34111928Y-16377500D01*
X34111928Y-18282500D01*
X34124188Y-18406982D01*
X34160498Y-18526680D01*
X34219463Y-18636994D01*
X34298815Y-18733685D01*
X34395506Y-18813037D01*
X34505820Y-18872002D01*
X34625518Y-18908312D01*
X34750000Y-18920572D01*
X36750000Y-18920572D01*
X36874482Y-18908312D01*
X36994180Y-18872002D01*
X37104494Y-18813037D01*
X37201185Y-18733685D01*
X37280537Y-18636994D01*
X37339502Y-18526680D01*
X37375812Y-18406982D01*
X37388072Y-18282500D01*
X37388072Y-16377500D01*
X37375812Y-16253018D01*
X37339502Y-16133320D01*
X37280537Y-16023006D01*
X37201185Y-15926315D01*
X37104494Y-15846963D01*
X37020554Y-15802095D01*
X37123845Y-15676235D01*
X37271255Y-15400449D01*
X37362030Y-15101204D01*
X37392681Y-14790000D01*
X37362030Y-14478796D01*
X37271255Y-14179551D01*
X37123845Y-13903765D01*
X36925463Y-13662037D01*
X36752391Y-13520000D01*
X36925463Y-13377963D01*
X37123845Y-13136235D01*
X37271255Y-12860449D01*
X37362030Y-12561204D01*
X37392681Y-12250000D01*
X37362030Y-11938796D01*
X37271255Y-11639551D01*
X37123845Y-11363765D01*
X36925463Y-11122037D01*
X36683735Y-10923655D01*
X36407949Y-10776245D01*
X36108704Y-10685470D01*
X35875486Y-10662500D01*
X35624514Y-10662500D01*
X35391296Y-10685470D01*
X35092051Y-10776245D01*
X34816265Y-10923655D01*
X34574537Y-11122037D01*
X34376155Y-11363765D01*
X34228745Y-11639551D01*
X34137970Y-11938796D01*
X34107319Y-12250000D01*
X33377000Y-12250000D01*
X33377000Y-5124579D01*
X34116579Y-4385000D01*
X64706531Y-4385000D01*
X64750000Y-4389281D01*
X64793469Y-4385000D01*
X64793477Y-4385000D01*
X64870201Y-4377443D01*
X64865000Y-4403589D01*
G36*
X80636928Y-3262000D02*
G01*
X80649188Y-3386482D01*
X80685498Y-3506180D01*
X80744463Y-3616494D01*
X80823815Y-3713185D01*
X80920506Y-3792537D01*
X81030820Y-3851502D01*
X81150518Y-3887812D01*
X81275000Y-3900072D01*
X82575000Y-3900072D01*
X82699482Y-3887812D01*
X82819180Y-3851502D01*
X82827168Y-3847232D01*
X82802629Y-3883957D01*
X82698225Y-4136011D01*
X82645000Y-4403589D01*
X82645000Y-4673422D01*
X82463421Y-4855001D01*
X67599476Y-4855001D01*
X67625723Y-4723051D01*
X67680820Y-4752502D01*
X67800518Y-4788812D01*
X67925000Y-4801072D01*
X68925000Y-4801072D01*
X69049482Y-4788812D01*
X69169180Y-4752502D01*
X69279494Y-4693537D01*
X69376185Y-4614185D01*
X69455537Y-4517494D01*
X69514502Y-4407180D01*
X69550812Y-4287482D01*
X69563072Y-4163000D01*
X69563072Y-1585010D01*
X80636928Y-1585010D01*
X80636928Y-3262000D01*
G37*
X80636928Y-3262000D02*
X80649188Y-3386482D01*
X80685498Y-3506180D01*
X80744463Y-3616494D01*
X80823815Y-3713185D01*
X80920506Y-3792537D01*
X81030820Y-3851502D01*
X81150518Y-3887812D01*
X81275000Y-3900072D01*
X82575000Y-3900072D01*
X82699482Y-3887812D01*
X82819180Y-3851502D01*
X82827168Y-3847232D01*
X82802629Y-3883957D01*
X82698225Y-4136011D01*
X82645000Y-4403589D01*
X82645000Y-4673422D01*
X82463421Y-4855001D01*
X67599476Y-4855001D01*
X67625723Y-4723051D01*
X67680820Y-4752502D01*
X67800518Y-4788812D01*
X67925000Y-4801072D01*
X68925000Y-4801072D01*
X69049482Y-4788812D01*
X69169180Y-4752502D01*
X69279494Y-4693537D01*
X69376185Y-4614185D01*
X69455537Y-4517494D01*
X69514502Y-4407180D01*
X69550812Y-4287482D01*
X69563072Y-4163000D01*
X69563072Y-1585010D01*
X80636928Y-1585010D01*
X80636928Y-3262000D01*
G36*
X64861928Y-2136494D02*
G01*
X64383422Y-2615000D01*
X33793469Y-2615000D01*
X33750000Y-2610719D01*
X33706531Y-2615000D01*
X33706523Y-2615000D01*
X33591306Y-2626348D01*
X33576509Y-2627805D01*
X33525903Y-2643157D01*
X33409687Y-2678411D01*
X33377000Y-2695882D01*
X33377000Y-1585010D01*
X64861928Y-1585010D01*
X64861928Y-2136494D01*
G37*
X64861928Y-2136494D02*
X64383422Y-2615000D01*
X33793469Y-2615000D01*
X33750000Y-2610719D01*
X33706531Y-2615000D01*
X33706523Y-2615000D01*
X33591306Y-2626348D01*
X33576509Y-2627805D01*
X33525903Y-2643157D01*
X33409687Y-2678411D01*
X33377000Y-2695882D01*
X33377000Y-1585010D01*
X64861928Y-1585010D01*
X64861928Y-2136494D01*
%TD*%
M02*
