%TF.GenerationSoftware,KiCad,Pcbnew,(5.1.6)-1*%
%TF.CreationDate,2022-03-23T15:28:11-04:00*%
%TF.ProjectId,MPPT_picoShield,4d505054-5f70-4696-936f-536869656c64,rev?*%
%TF.SameCoordinates,Original*%
%TF.FileFunction,Paste,Bot*%
%TF.FilePolarity,Positive*%
%FSLAX46Y46*%
G04 Gerber Fmt 4.6, Leading zero omitted, Abs format (unit mm)*
G04 Created by KiCad (PCBNEW (5.1.6)-1) date 2022-03-23 15:28:11*
%MOMM*%
%LPD*%
G01*
G04 APERTURE LIST*
%ADD10R,0.800000X0.900000*%
%ADD11R,1.300000X1.900000*%
%ADD12R,1.000000X2.800000*%
%ADD13R,1.000000X0.800000*%
%ADD14R,1.000000X1.200000*%
%ADD15R,0.700000X1.200000*%
G04 APERTURE END LIST*
%TO.C,C33*%
G36*
G01*
X81493750Y-26137500D02*
X82006250Y-26137500D01*
G75*
G02*
X82225000Y-26356250I0J-218750D01*
G01*
X82225000Y-26793750D01*
G75*
G02*
X82006250Y-27012500I-218750J0D01*
G01*
X81493750Y-27012500D01*
G75*
G02*
X81275000Y-26793750I0J218750D01*
G01*
X81275000Y-26356250D01*
G75*
G02*
X81493750Y-26137500I218750J0D01*
G01*
G37*
G36*
G01*
X81493750Y-24562500D02*
X82006250Y-24562500D01*
G75*
G02*
X82225000Y-24781250I0J-218750D01*
G01*
X82225000Y-25218750D01*
G75*
G02*
X82006250Y-25437500I-218750J0D01*
G01*
X81493750Y-25437500D01*
G75*
G02*
X81275000Y-25218750I0J218750D01*
G01*
X81275000Y-24781250D01*
G75*
G02*
X81493750Y-24562500I218750J0D01*
G01*
G37*
%TD*%
%TO.C,C32*%
G36*
G01*
X82006250Y-21112500D02*
X81493750Y-21112500D01*
G75*
G02*
X81275000Y-20893750I0J218750D01*
G01*
X81275000Y-20456250D01*
G75*
G02*
X81493750Y-20237500I218750J0D01*
G01*
X82006250Y-20237500D01*
G75*
G02*
X82225000Y-20456250I0J-218750D01*
G01*
X82225000Y-20893750D01*
G75*
G02*
X82006250Y-21112500I-218750J0D01*
G01*
G37*
G36*
G01*
X82006250Y-22687500D02*
X81493750Y-22687500D01*
G75*
G02*
X81275000Y-22468750I0J218750D01*
G01*
X81275000Y-22031250D01*
G75*
G02*
X81493750Y-21812500I218750J0D01*
G01*
X82006250Y-21812500D01*
G75*
G02*
X82225000Y-22031250I0J-218750D01*
G01*
X82225000Y-22468750D01*
G75*
G02*
X82006250Y-22687500I-218750J0D01*
G01*
G37*
%TD*%
%TO.C,C31*%
G36*
G01*
X87637500Y-14256250D02*
X87637500Y-13743750D01*
G75*
G02*
X87856250Y-13525000I218750J0D01*
G01*
X88293750Y-13525000D01*
G75*
G02*
X88512500Y-13743750I0J-218750D01*
G01*
X88512500Y-14256250D01*
G75*
G02*
X88293750Y-14475000I-218750J0D01*
G01*
X87856250Y-14475000D01*
G75*
G02*
X87637500Y-14256250I0J218750D01*
G01*
G37*
G36*
G01*
X86062500Y-14256250D02*
X86062500Y-13743750D01*
G75*
G02*
X86281250Y-13525000I218750J0D01*
G01*
X86718750Y-13525000D01*
G75*
G02*
X86937500Y-13743750I0J-218750D01*
G01*
X86937500Y-14256250D01*
G75*
G02*
X86718750Y-14475000I-218750J0D01*
G01*
X86281250Y-14475000D01*
G75*
G02*
X86062500Y-14256250I0J218750D01*
G01*
G37*
%TD*%
%TO.C,R35*%
G36*
G01*
X15137500Y-35006250D02*
X15137500Y-34493750D01*
G75*
G02*
X15356250Y-34275000I218750J0D01*
G01*
X15793750Y-34275000D01*
G75*
G02*
X16012500Y-34493750I0J-218750D01*
G01*
X16012500Y-35006250D01*
G75*
G02*
X15793750Y-35225000I-218750J0D01*
G01*
X15356250Y-35225000D01*
G75*
G02*
X15137500Y-35006250I0J218750D01*
G01*
G37*
G36*
G01*
X13562500Y-35006250D02*
X13562500Y-34493750D01*
G75*
G02*
X13781250Y-34275000I218750J0D01*
G01*
X14218750Y-34275000D01*
G75*
G02*
X14437500Y-34493750I0J-218750D01*
G01*
X14437500Y-35006250D01*
G75*
G02*
X14218750Y-35225000I-218750J0D01*
G01*
X13781250Y-35225000D01*
G75*
G02*
X13562500Y-35006250I0J218750D01*
G01*
G37*
%TD*%
%TO.C,R34*%
G36*
G01*
X11600000Y-35006250D02*
X11600000Y-34493750D01*
G75*
G02*
X11818750Y-34275000I218750J0D01*
G01*
X12256250Y-34275000D01*
G75*
G02*
X12475000Y-34493750I0J-218750D01*
G01*
X12475000Y-35006250D01*
G75*
G02*
X12256250Y-35225000I-218750J0D01*
G01*
X11818750Y-35225000D01*
G75*
G02*
X11600000Y-35006250I0J218750D01*
G01*
G37*
G36*
G01*
X10025000Y-35006250D02*
X10025000Y-34493750D01*
G75*
G02*
X10243750Y-34275000I218750J0D01*
G01*
X10681250Y-34275000D01*
G75*
G02*
X10900000Y-34493750I0J-218750D01*
G01*
X10900000Y-35006250D01*
G75*
G02*
X10681250Y-35225000I-218750J0D01*
G01*
X10243750Y-35225000D01*
G75*
G02*
X10025000Y-35006250I0J218750D01*
G01*
G37*
%TD*%
%TO.C,R33*%
G36*
G01*
X15137500Y-40086250D02*
X15137500Y-39573750D01*
G75*
G02*
X15356250Y-39355000I218750J0D01*
G01*
X15793750Y-39355000D01*
G75*
G02*
X16012500Y-39573750I0J-218750D01*
G01*
X16012500Y-40086250D01*
G75*
G02*
X15793750Y-40305000I-218750J0D01*
G01*
X15356250Y-40305000D01*
G75*
G02*
X15137500Y-40086250I0J218750D01*
G01*
G37*
G36*
G01*
X13562500Y-40086250D02*
X13562500Y-39573750D01*
G75*
G02*
X13781250Y-39355000I218750J0D01*
G01*
X14218750Y-39355000D01*
G75*
G02*
X14437500Y-39573750I0J-218750D01*
G01*
X14437500Y-40086250D01*
G75*
G02*
X14218750Y-40305000I-218750J0D01*
G01*
X13781250Y-40305000D01*
G75*
G02*
X13562500Y-40086250I0J218750D01*
G01*
G37*
%TD*%
%TO.C,R32*%
G36*
G01*
X11637500Y-40086250D02*
X11637500Y-39573750D01*
G75*
G02*
X11856250Y-39355000I218750J0D01*
G01*
X12293750Y-39355000D01*
G75*
G02*
X12512500Y-39573750I0J-218750D01*
G01*
X12512500Y-40086250D01*
G75*
G02*
X12293750Y-40305000I-218750J0D01*
G01*
X11856250Y-40305000D01*
G75*
G02*
X11637500Y-40086250I0J218750D01*
G01*
G37*
G36*
G01*
X10062500Y-40086250D02*
X10062500Y-39573750D01*
G75*
G02*
X10281250Y-39355000I218750J0D01*
G01*
X10718750Y-39355000D01*
G75*
G02*
X10937500Y-39573750I0J-218750D01*
G01*
X10937500Y-40086250D01*
G75*
G02*
X10718750Y-40305000I-218750J0D01*
G01*
X10281250Y-40305000D01*
G75*
G02*
X10062500Y-40086250I0J218750D01*
G01*
G37*
%TD*%
%TO.C,R31*%
G36*
G01*
X15506250Y-5362500D02*
X14993750Y-5362500D01*
G75*
G02*
X14775000Y-5143750I0J218750D01*
G01*
X14775000Y-4706250D01*
G75*
G02*
X14993750Y-4487500I218750J0D01*
G01*
X15506250Y-4487500D01*
G75*
G02*
X15725000Y-4706250I0J-218750D01*
G01*
X15725000Y-5143750D01*
G75*
G02*
X15506250Y-5362500I-218750J0D01*
G01*
G37*
G36*
G01*
X15506250Y-6937500D02*
X14993750Y-6937500D01*
G75*
G02*
X14775000Y-6718750I0J218750D01*
G01*
X14775000Y-6281250D01*
G75*
G02*
X14993750Y-6062500I218750J0D01*
G01*
X15506250Y-6062500D01*
G75*
G02*
X15725000Y-6281250I0J-218750D01*
G01*
X15725000Y-6718750D01*
G75*
G02*
X15506250Y-6937500I-218750J0D01*
G01*
G37*
%TD*%
%TO.C,R30*%
G36*
G01*
X15506250Y-8612500D02*
X14993750Y-8612500D01*
G75*
G02*
X14775000Y-8393750I0J218750D01*
G01*
X14775000Y-7956250D01*
G75*
G02*
X14993750Y-7737500I218750J0D01*
G01*
X15506250Y-7737500D01*
G75*
G02*
X15725000Y-7956250I0J-218750D01*
G01*
X15725000Y-8393750D01*
G75*
G02*
X15506250Y-8612500I-218750J0D01*
G01*
G37*
G36*
G01*
X15506250Y-10187500D02*
X14993750Y-10187500D01*
G75*
G02*
X14775000Y-9968750I0J218750D01*
G01*
X14775000Y-9531250D01*
G75*
G02*
X14993750Y-9312500I218750J0D01*
G01*
X15506250Y-9312500D01*
G75*
G02*
X15725000Y-9531250I0J-218750D01*
G01*
X15725000Y-9968750D01*
G75*
G02*
X15506250Y-10187500I-218750J0D01*
G01*
G37*
%TD*%
%TO.C,R13*%
G36*
G01*
X42137500Y-41748751D02*
X42137500Y-41236251D01*
G75*
G02*
X42356250Y-41017501I218750J0D01*
G01*
X42793750Y-41017501D01*
G75*
G02*
X43012500Y-41236251I0J-218750D01*
G01*
X43012500Y-41748751D01*
G75*
G02*
X42793750Y-41967501I-218750J0D01*
G01*
X42356250Y-41967501D01*
G75*
G02*
X42137500Y-41748751I0J218750D01*
G01*
G37*
G36*
G01*
X40562500Y-41748751D02*
X40562500Y-41236251D01*
G75*
G02*
X40781250Y-41017501I218750J0D01*
G01*
X41218750Y-41017501D01*
G75*
G02*
X41437500Y-41236251I0J-218750D01*
G01*
X41437500Y-41748751D01*
G75*
G02*
X41218750Y-41967501I-218750J0D01*
G01*
X40781250Y-41967501D01*
G75*
G02*
X40562500Y-41748751I0J218750D01*
G01*
G37*
%TD*%
%TO.C,R6*%
G36*
G01*
X54493750Y-31887500D02*
X55006250Y-31887500D01*
G75*
G02*
X55225000Y-32106250I0J-218750D01*
G01*
X55225000Y-32543750D01*
G75*
G02*
X55006250Y-32762500I-218750J0D01*
G01*
X54493750Y-32762500D01*
G75*
G02*
X54275000Y-32543750I0J218750D01*
G01*
X54275000Y-32106250D01*
G75*
G02*
X54493750Y-31887500I218750J0D01*
G01*
G37*
G36*
G01*
X54493750Y-30312500D02*
X55006250Y-30312500D01*
G75*
G02*
X55225000Y-30531250I0J-218750D01*
G01*
X55225000Y-30968750D01*
G75*
G02*
X55006250Y-31187500I-218750J0D01*
G01*
X54493750Y-31187500D01*
G75*
G02*
X54275000Y-30968750I0J218750D01*
G01*
X54275000Y-30531250D01*
G75*
G02*
X54493750Y-30312500I218750J0D01*
G01*
G37*
%TD*%
D10*
%TO.C,Q3*%
X60800000Y-32750000D03*
X61750000Y-30750000D03*
X59850000Y-30750000D03*
%TD*%
D11*
%TO.C,J4*%
X81925000Y-2312000D03*
D12*
X68425000Y-2763000D03*
D13*
X68425000Y-6913000D03*
D14*
X68425000Y-13112000D03*
D15*
X69375000Y-17412000D03*
D14*
X79575000Y-17412000D03*
D15*
X70325000Y-17412000D03*
X71425000Y-17412000D03*
X72525000Y-17412000D03*
X73625000Y-17412000D03*
X74725000Y-17412000D03*
X75825000Y-17412000D03*
X76925000Y-17412000D03*
X78025000Y-17412000D03*
%TD*%
%TO.C,C11*%
G36*
G01*
X73187500Y-18993750D02*
X73187500Y-19506250D01*
G75*
G02*
X72968750Y-19725000I-218750J0D01*
G01*
X72531250Y-19725000D01*
G75*
G02*
X72312500Y-19506250I0J218750D01*
G01*
X72312500Y-18993750D01*
G75*
G02*
X72531250Y-18775000I218750J0D01*
G01*
X72968750Y-18775000D01*
G75*
G02*
X73187500Y-18993750I0J-218750D01*
G01*
G37*
G36*
G01*
X74762500Y-18993750D02*
X74762500Y-19506250D01*
G75*
G02*
X74543750Y-19725000I-218750J0D01*
G01*
X74106250Y-19725000D01*
G75*
G02*
X73887500Y-19506250I0J218750D01*
G01*
X73887500Y-18993750D01*
G75*
G02*
X74106250Y-18775000I218750J0D01*
G01*
X74543750Y-18775000D01*
G75*
G02*
X74762500Y-18993750I0J-218750D01*
G01*
G37*
%TD*%
M02*
