%TF.GenerationSoftware,KiCad,Pcbnew,(5.1.6)-1*%
%TF.CreationDate,2022-03-23T15:28:11-04:00*%
%TF.ProjectId,MPPT_picoShield,4d505054-5f70-4696-936f-536869656c64,rev?*%
%TF.SameCoordinates,Original*%
%TF.FileFunction,Soldermask,Top*%
%TF.FilePolarity,Negative*%
%FSLAX46Y46*%
G04 Gerber Fmt 4.6, Leading zero omitted, Abs format (unit mm)*
G04 Created by KiCad (PCBNEW (5.1.6)-1) date 2022-03-23 15:28:11*
%MOMM*%
%LPD*%
G01*
G04 APERTURE LIST*
%ADD10C,1.600000*%
%ADD11R,1.600000X1.600000*%
%ADD12R,2.100000X3.900000*%
%ADD13R,3.900000X2.100000*%
%ADD14C,2.100000*%
%ADD15O,2.100000X2.005000*%
%ADD16R,2.100000X2.005000*%
%ADD17R,2.200000X2.200000*%
%ADD18R,1.000000X0.900000*%
%ADD19O,1.800000X1.800000*%
%ADD20R,1.800000X1.800000*%
%ADD21C,3.100000*%
%ADD22R,3.100000X3.100000*%
%ADD23R,2.100000X2.100000*%
%ADD24C,1.300000*%
G04 APERTURE END LIST*
D10*
%TO.C,U1*%
X77680000Y-49790000D03*
X72600000Y-49790000D03*
X75140000Y-49790000D03*
X84030000Y-7080000D03*
X84030000Y-2000000D03*
X84030000Y-17240000D03*
X84030000Y-37560000D03*
X84030000Y-40100000D03*
X84030000Y-24860000D03*
X84030000Y-22320000D03*
X84030000Y-4540000D03*
X84030000Y-19780000D03*
X84030000Y-9620000D03*
X84030000Y-14700000D03*
X84030000Y-12160000D03*
X84030000Y-50260000D03*
X84030000Y-27400000D03*
X84030000Y-29940000D03*
X84030000Y-42640000D03*
X84030000Y-45180000D03*
X84030000Y-35020000D03*
X84030000Y-47720000D03*
X84030000Y-32480000D03*
X66250000Y-32480000D03*
X66250000Y-27400000D03*
X66250000Y-42640000D03*
X66250000Y-50260000D03*
X66250000Y-47720000D03*
X66250000Y-29940000D03*
X66250000Y-45180000D03*
X66250000Y-35020000D03*
X66250000Y-40100000D03*
X66250000Y-37560000D03*
X66250000Y-22320000D03*
X66250000Y-24860000D03*
X66250000Y-17240000D03*
X66250000Y-19780000D03*
X66250000Y-12160000D03*
X66250000Y-14700000D03*
X66250000Y-7080000D03*
X66250000Y-9620000D03*
X66250000Y-4540000D03*
D11*
X66250000Y-2000000D03*
%TD*%
D12*
%TO.C,GND*%
X29500000Y-50250000D03*
%TD*%
D13*
%TO.C,3V3*%
X88000000Y-13000000D03*
%TD*%
D12*
%TO.C,GND*%
X61750000Y-16250000D03*
%TD*%
%TO.C,Vbat*%
X5500000Y-53750000D03*
%TD*%
%TO.C,PV-*%
X5500000Y-26250000D03*
%TD*%
D13*
%TO.C,L-*%
X47250000Y-4250000D03*
%TD*%
%TO.C,QS1*%
X31250000Y-4250000D03*
%TD*%
%TO.C,PV+*%
X15250000Y-4250000D03*
%TD*%
D12*
%TO.C,out+*%
X34750000Y-23750000D03*
%TD*%
%TO.C,D12*%
G36*
G01*
X51893250Y-23040500D02*
X53606750Y-23040500D01*
G75*
G02*
X54171500Y-23605250I0J-564750D01*
G01*
X54171500Y-24734750D01*
G75*
G02*
X53606750Y-25299500I-564750J0D01*
G01*
X51893250Y-25299500D01*
G75*
G02*
X51328500Y-24734750I0J564750D01*
G01*
X51328500Y-23605250D01*
G75*
G02*
X51893250Y-23040500I564750J0D01*
G01*
G37*
G36*
G01*
X51893250Y-18620500D02*
X53606750Y-18620500D01*
G75*
G02*
X54171500Y-19185250I0J-564750D01*
G01*
X54171500Y-20314750D01*
G75*
G02*
X53606750Y-20879500I-564750J0D01*
G01*
X51893250Y-20879500D01*
G75*
G02*
X51328500Y-20314750I0J564750D01*
G01*
X51328500Y-19185250D01*
G75*
G02*
X51893250Y-18620500I564750J0D01*
G01*
G37*
%TD*%
%TO.C,D11*%
G36*
G01*
X23459500Y-11393250D02*
X23459500Y-13106750D01*
G75*
G02*
X22894750Y-13671500I-564750J0D01*
G01*
X21765250Y-13671500D01*
G75*
G02*
X21200500Y-13106750I0J564750D01*
G01*
X21200500Y-11393250D01*
G75*
G02*
X21765250Y-10828500I564750J0D01*
G01*
X22894750Y-10828500D01*
G75*
G02*
X23459500Y-11393250I0J-564750D01*
G01*
G37*
G36*
G01*
X27879500Y-11393250D02*
X27879500Y-13106750D01*
G75*
G02*
X27314750Y-13671500I-564750J0D01*
G01*
X26185250Y-13671500D01*
G75*
G02*
X25620500Y-13106750I0J564750D01*
G01*
X25620500Y-11393250D01*
G75*
G02*
X26185250Y-10828500I564750J0D01*
G01*
X27314750Y-10828500D01*
G75*
G02*
X27879500Y-11393250I0J-564750D01*
G01*
G37*
%TD*%
%TO.C,D13*%
G36*
G01*
X17290500Y-35606750D02*
X17290500Y-33893250D01*
G75*
G02*
X17855250Y-33328500I564750J0D01*
G01*
X18984750Y-33328500D01*
G75*
G02*
X19549500Y-33893250I0J-564750D01*
G01*
X19549500Y-35606750D01*
G75*
G02*
X18984750Y-36171500I-564750J0D01*
G01*
X17855250Y-36171500D01*
G75*
G02*
X17290500Y-35606750I0J564750D01*
G01*
G37*
G36*
G01*
X12870500Y-35606750D02*
X12870500Y-33893250D01*
G75*
G02*
X13435250Y-33328500I564750J0D01*
G01*
X14564750Y-33328500D01*
G75*
G02*
X15129500Y-33893250I0J-564750D01*
G01*
X15129500Y-35606750D01*
G75*
G02*
X14564750Y-36171500I-564750J0D01*
G01*
X13435250Y-36171500D01*
G75*
G02*
X12870500Y-35606750I0J564750D01*
G01*
G37*
%TD*%
D14*
%TO.C,SW1*%
X87500000Y-16750000D03*
X92000000Y-16750000D03*
X87500000Y-23250000D03*
X92000000Y-23250000D03*
%TD*%
%TO.C,R28*%
G36*
G01*
X13345000Y-40325000D02*
X14655000Y-40325000D01*
G75*
G02*
X14925000Y-40595000I0J-270000D01*
G01*
X14925000Y-41405000D01*
G75*
G02*
X14655000Y-41675000I-270000J0D01*
G01*
X13345000Y-41675000D01*
G75*
G02*
X13075000Y-41405000I0J270000D01*
G01*
X13075000Y-40595000D01*
G75*
G02*
X13345000Y-40325000I270000J0D01*
G01*
G37*
G36*
G01*
X13345000Y-37525000D02*
X14655000Y-37525000D01*
G75*
G02*
X14925000Y-37795000I0J-270000D01*
G01*
X14925000Y-38605000D01*
G75*
G02*
X14655000Y-38875000I-270000J0D01*
G01*
X13345000Y-38875000D01*
G75*
G02*
X13075000Y-38605000I0J270000D01*
G01*
X13075000Y-37795000D01*
G75*
G02*
X13345000Y-37525000I270000J0D01*
G01*
G37*
%TD*%
%TO.C,R27*%
G36*
G01*
X22905000Y-32625000D02*
X21595000Y-32625000D01*
G75*
G02*
X21325000Y-32355000I0J270000D01*
G01*
X21325000Y-31545000D01*
G75*
G02*
X21595000Y-31275000I270000J0D01*
G01*
X22905000Y-31275000D01*
G75*
G02*
X23175000Y-31545000I0J-270000D01*
G01*
X23175000Y-32355000D01*
G75*
G02*
X22905000Y-32625000I-270000J0D01*
G01*
G37*
G36*
G01*
X22905000Y-35425000D02*
X21595000Y-35425000D01*
G75*
G02*
X21325000Y-35155000I0J270000D01*
G01*
X21325000Y-34345000D01*
G75*
G02*
X21595000Y-34075000I270000J0D01*
G01*
X22905000Y-34075000D01*
G75*
G02*
X23175000Y-34345000I0J-270000D01*
G01*
X23175000Y-35155000D01*
G75*
G02*
X22905000Y-35425000I-270000J0D01*
G01*
G37*
%TD*%
%TO.C,R26*%
G36*
G01*
X28575000Y-25155000D02*
X28575000Y-23845000D01*
G75*
G02*
X28845000Y-23575000I270000J0D01*
G01*
X29655000Y-23575000D01*
G75*
G02*
X29925000Y-23845000I0J-270000D01*
G01*
X29925000Y-25155000D01*
G75*
G02*
X29655000Y-25425000I-270000J0D01*
G01*
X28845000Y-25425000D01*
G75*
G02*
X28575000Y-25155000I0J270000D01*
G01*
G37*
G36*
G01*
X25775000Y-25155000D02*
X25775000Y-23845000D01*
G75*
G02*
X26045000Y-23575000I270000J0D01*
G01*
X26855000Y-23575000D01*
G75*
G02*
X27125000Y-23845000I0J-270000D01*
G01*
X27125000Y-25155000D01*
G75*
G02*
X26855000Y-25425000I-270000J0D01*
G01*
X26045000Y-25425000D01*
G75*
G02*
X25775000Y-25155000I0J270000D01*
G01*
G37*
%TD*%
%TO.C,L1*%
G36*
G01*
X47100000Y-9105000D02*
X47100000Y-11895000D01*
G75*
G02*
X46945000Y-12050000I-155000J0D01*
G01*
X41555000Y-12050000D01*
G75*
G02*
X41400000Y-11895000I0J155000D01*
G01*
X41400000Y-9105000D01*
G75*
G02*
X41555000Y-8950000I155000J0D01*
G01*
X46945000Y-8950000D01*
G75*
G02*
X47100000Y-9105000I0J-155000D01*
G01*
G37*
G36*
G01*
X47100000Y-18605000D02*
X47100000Y-21395000D01*
G75*
G02*
X46945000Y-21550000I-155000J0D01*
G01*
X41555000Y-21550000D01*
G75*
G02*
X41400000Y-21395000I0J155000D01*
G01*
X41400000Y-18605000D01*
G75*
G02*
X41555000Y-18450000I155000J0D01*
G01*
X46945000Y-18450000D01*
G75*
G02*
X47100000Y-18605000I0J-155000D01*
G01*
G37*
%TD*%
D15*
%TO.C,U10*%
X23500000Y-45580000D03*
X23500000Y-43040000D03*
D16*
X23500000Y-40500000D03*
%TD*%
D17*
%TO.C,U2*%
X39250000Y-43500000D03*
G36*
G01*
X38050000Y-42087500D02*
X38050000Y-41187500D01*
G75*
G02*
X38162500Y-41075000I112500J0D01*
G01*
X38387500Y-41075000D01*
G75*
G02*
X38500000Y-41187500I0J-112500D01*
G01*
X38500000Y-42087500D01*
G75*
G02*
X38387500Y-42200000I-112500J0D01*
G01*
X38162500Y-42200000D01*
G75*
G02*
X38050000Y-42087500I0J112500D01*
G01*
G37*
G36*
G01*
X38700000Y-42087500D02*
X38700000Y-41187500D01*
G75*
G02*
X38812500Y-41075000I112500J0D01*
G01*
X39037500Y-41075000D01*
G75*
G02*
X39150000Y-41187500I0J-112500D01*
G01*
X39150000Y-42087500D01*
G75*
G02*
X39037500Y-42200000I-112500J0D01*
G01*
X38812500Y-42200000D01*
G75*
G02*
X38700000Y-42087500I0J112500D01*
G01*
G37*
G36*
G01*
X39350000Y-42087500D02*
X39350000Y-41187500D01*
G75*
G02*
X39462500Y-41075000I112500J0D01*
G01*
X39687500Y-41075000D01*
G75*
G02*
X39800000Y-41187500I0J-112500D01*
G01*
X39800000Y-42087500D01*
G75*
G02*
X39687500Y-42200000I-112500J0D01*
G01*
X39462500Y-42200000D01*
G75*
G02*
X39350000Y-42087500I0J112500D01*
G01*
G37*
G36*
G01*
X40000000Y-42087500D02*
X40000000Y-41187500D01*
G75*
G02*
X40112500Y-41075000I112500J0D01*
G01*
X40337500Y-41075000D01*
G75*
G02*
X40450000Y-41187500I0J-112500D01*
G01*
X40450000Y-42087500D01*
G75*
G02*
X40337500Y-42200000I-112500J0D01*
G01*
X40112500Y-42200000D01*
G75*
G02*
X40000000Y-42087500I0J112500D01*
G01*
G37*
G36*
G01*
X40550000Y-42637500D02*
X40550000Y-42412500D01*
G75*
G02*
X40662500Y-42300000I112500J0D01*
G01*
X41562500Y-42300000D01*
G75*
G02*
X41675000Y-42412500I0J-112500D01*
G01*
X41675000Y-42637500D01*
G75*
G02*
X41562500Y-42750000I-112500J0D01*
G01*
X40662500Y-42750000D01*
G75*
G02*
X40550000Y-42637500I0J112500D01*
G01*
G37*
G36*
G01*
X40550000Y-43287500D02*
X40550000Y-43062500D01*
G75*
G02*
X40662500Y-42950000I112500J0D01*
G01*
X41562500Y-42950000D01*
G75*
G02*
X41675000Y-43062500I0J-112500D01*
G01*
X41675000Y-43287500D01*
G75*
G02*
X41562500Y-43400000I-112500J0D01*
G01*
X40662500Y-43400000D01*
G75*
G02*
X40550000Y-43287500I0J112500D01*
G01*
G37*
G36*
G01*
X40550000Y-43937500D02*
X40550000Y-43712500D01*
G75*
G02*
X40662500Y-43600000I112500J0D01*
G01*
X41562500Y-43600000D01*
G75*
G02*
X41675000Y-43712500I0J-112500D01*
G01*
X41675000Y-43937500D01*
G75*
G02*
X41562500Y-44050000I-112500J0D01*
G01*
X40662500Y-44050000D01*
G75*
G02*
X40550000Y-43937500I0J112500D01*
G01*
G37*
G36*
G01*
X40550000Y-44587500D02*
X40550000Y-44362500D01*
G75*
G02*
X40662500Y-44250000I112500J0D01*
G01*
X41562500Y-44250000D01*
G75*
G02*
X41675000Y-44362500I0J-112500D01*
G01*
X41675000Y-44587500D01*
G75*
G02*
X41562500Y-44700000I-112500J0D01*
G01*
X40662500Y-44700000D01*
G75*
G02*
X40550000Y-44587500I0J112500D01*
G01*
G37*
G36*
G01*
X40000000Y-45812500D02*
X40000000Y-44912500D01*
G75*
G02*
X40112500Y-44800000I112500J0D01*
G01*
X40337500Y-44800000D01*
G75*
G02*
X40450000Y-44912500I0J-112500D01*
G01*
X40450000Y-45812500D01*
G75*
G02*
X40337500Y-45925000I-112500J0D01*
G01*
X40112500Y-45925000D01*
G75*
G02*
X40000000Y-45812500I0J112500D01*
G01*
G37*
G36*
G01*
X39350000Y-45812500D02*
X39350000Y-44912500D01*
G75*
G02*
X39462500Y-44800000I112500J0D01*
G01*
X39687500Y-44800000D01*
G75*
G02*
X39800000Y-44912500I0J-112500D01*
G01*
X39800000Y-45812500D01*
G75*
G02*
X39687500Y-45925000I-112500J0D01*
G01*
X39462500Y-45925000D01*
G75*
G02*
X39350000Y-45812500I0J112500D01*
G01*
G37*
G36*
G01*
X38700000Y-45812500D02*
X38700000Y-44912500D01*
G75*
G02*
X38812500Y-44800000I112500J0D01*
G01*
X39037500Y-44800000D01*
G75*
G02*
X39150000Y-44912500I0J-112500D01*
G01*
X39150000Y-45812500D01*
G75*
G02*
X39037500Y-45925000I-112500J0D01*
G01*
X38812500Y-45925000D01*
G75*
G02*
X38700000Y-45812500I0J112500D01*
G01*
G37*
G36*
G01*
X38050000Y-45812500D02*
X38050000Y-44912500D01*
G75*
G02*
X38162500Y-44800000I112500J0D01*
G01*
X38387500Y-44800000D01*
G75*
G02*
X38500000Y-44912500I0J-112500D01*
G01*
X38500000Y-45812500D01*
G75*
G02*
X38387500Y-45925000I-112500J0D01*
G01*
X38162500Y-45925000D01*
G75*
G02*
X38050000Y-45812500I0J112500D01*
G01*
G37*
G36*
G01*
X36825000Y-44587500D02*
X36825000Y-44362500D01*
G75*
G02*
X36937500Y-44250000I112500J0D01*
G01*
X37837500Y-44250000D01*
G75*
G02*
X37950000Y-44362500I0J-112500D01*
G01*
X37950000Y-44587500D01*
G75*
G02*
X37837500Y-44700000I-112500J0D01*
G01*
X36937500Y-44700000D01*
G75*
G02*
X36825000Y-44587500I0J112500D01*
G01*
G37*
G36*
G01*
X36825000Y-43937500D02*
X36825000Y-43712500D01*
G75*
G02*
X36937500Y-43600000I112500J0D01*
G01*
X37837500Y-43600000D01*
G75*
G02*
X37950000Y-43712500I0J-112500D01*
G01*
X37950000Y-43937500D01*
G75*
G02*
X37837500Y-44050000I-112500J0D01*
G01*
X36937500Y-44050000D01*
G75*
G02*
X36825000Y-43937500I0J112500D01*
G01*
G37*
G36*
G01*
X36825000Y-43287500D02*
X36825000Y-43062500D01*
G75*
G02*
X36937500Y-42950000I112500J0D01*
G01*
X37837500Y-42950000D01*
G75*
G02*
X37950000Y-43062500I0J-112500D01*
G01*
X37950000Y-43287500D01*
G75*
G02*
X37837500Y-43400000I-112500J0D01*
G01*
X36937500Y-43400000D01*
G75*
G02*
X36825000Y-43287500I0J112500D01*
G01*
G37*
G36*
G01*
X36825000Y-42637500D02*
X36825000Y-42412500D01*
G75*
G02*
X36937500Y-42300000I112500J0D01*
G01*
X37837500Y-42300000D01*
G75*
G02*
X37950000Y-42412500I0J-112500D01*
G01*
X37950000Y-42637500D01*
G75*
G02*
X37837500Y-42750000I-112500J0D01*
G01*
X36937500Y-42750000D01*
G75*
G02*
X36825000Y-42637500I0J112500D01*
G01*
G37*
%TD*%
%TO.C,R25*%
G36*
G01*
X38987500Y-37468750D02*
X38987500Y-38031250D01*
G75*
G02*
X38743750Y-38275000I-243750J0D01*
G01*
X38256250Y-38275000D01*
G75*
G02*
X38012500Y-38031250I0J243750D01*
G01*
X38012500Y-37468750D01*
G75*
G02*
X38256250Y-37225000I243750J0D01*
G01*
X38743750Y-37225000D01*
G75*
G02*
X38987500Y-37468750I0J-243750D01*
G01*
G37*
G36*
G01*
X40562500Y-37468750D02*
X40562500Y-38031250D01*
G75*
G02*
X40318750Y-38275000I-243750J0D01*
G01*
X39831250Y-38275000D01*
G75*
G02*
X39587500Y-38031250I0J243750D01*
G01*
X39587500Y-37468750D01*
G75*
G02*
X39831250Y-37225000I243750J0D01*
G01*
X40318750Y-37225000D01*
G75*
G02*
X40562500Y-37468750I0J-243750D01*
G01*
G37*
%TD*%
%TO.C,R24*%
G36*
G01*
X38950000Y-35718750D02*
X38950000Y-36281250D01*
G75*
G02*
X38706250Y-36525000I-243750J0D01*
G01*
X38218750Y-36525000D01*
G75*
G02*
X37975000Y-36281250I0J243750D01*
G01*
X37975000Y-35718750D01*
G75*
G02*
X38218750Y-35475000I243750J0D01*
G01*
X38706250Y-35475000D01*
G75*
G02*
X38950000Y-35718750I0J-243750D01*
G01*
G37*
G36*
G01*
X40525000Y-35718750D02*
X40525000Y-36281250D01*
G75*
G02*
X40281250Y-36525000I-243750J0D01*
G01*
X39793750Y-36525000D01*
G75*
G02*
X39550000Y-36281250I0J243750D01*
G01*
X39550000Y-35718750D01*
G75*
G02*
X39793750Y-35475000I243750J0D01*
G01*
X40281250Y-35475000D01*
G75*
G02*
X40525000Y-35718750I0J-243750D01*
G01*
G37*
%TD*%
%TO.C,R23*%
G36*
G01*
X31781250Y-41662500D02*
X31218750Y-41662500D01*
G75*
G02*
X30975000Y-41418750I0J243750D01*
G01*
X30975000Y-40931250D01*
G75*
G02*
X31218750Y-40687500I243750J0D01*
G01*
X31781250Y-40687500D01*
G75*
G02*
X32025000Y-40931250I0J-243750D01*
G01*
X32025000Y-41418750D01*
G75*
G02*
X31781250Y-41662500I-243750J0D01*
G01*
G37*
G36*
G01*
X31781250Y-43237500D02*
X31218750Y-43237500D01*
G75*
G02*
X30975000Y-42993750I0J243750D01*
G01*
X30975000Y-42506250D01*
G75*
G02*
X31218750Y-42262500I243750J0D01*
G01*
X31781250Y-42262500D01*
G75*
G02*
X32025000Y-42506250I0J-243750D01*
G01*
X32025000Y-42993750D01*
G75*
G02*
X31781250Y-43237500I-243750J0D01*
G01*
G37*
%TD*%
%TO.C,R22*%
G36*
G01*
X33531250Y-41662500D02*
X32968750Y-41662500D01*
G75*
G02*
X32725000Y-41418750I0J243750D01*
G01*
X32725000Y-40931250D01*
G75*
G02*
X32968750Y-40687500I243750J0D01*
G01*
X33531250Y-40687500D01*
G75*
G02*
X33775000Y-40931250I0J-243750D01*
G01*
X33775000Y-41418750D01*
G75*
G02*
X33531250Y-41662500I-243750J0D01*
G01*
G37*
G36*
G01*
X33531250Y-43237500D02*
X32968750Y-43237500D01*
G75*
G02*
X32725000Y-42993750I0J243750D01*
G01*
X32725000Y-42506250D01*
G75*
G02*
X32968750Y-42262500I243750J0D01*
G01*
X33531250Y-42262500D01*
G75*
G02*
X33775000Y-42506250I0J-243750D01*
G01*
X33775000Y-42993750D01*
G75*
G02*
X33531250Y-43237500I-243750J0D01*
G01*
G37*
%TD*%
%TO.C,R21*%
G36*
G01*
X47781250Y-41737500D02*
X47218750Y-41737500D01*
G75*
G02*
X46975000Y-41493750I0J243750D01*
G01*
X46975000Y-41006250D01*
G75*
G02*
X47218750Y-40762500I243750J0D01*
G01*
X47781250Y-40762500D01*
G75*
G02*
X48025000Y-41006250I0J-243750D01*
G01*
X48025000Y-41493750D01*
G75*
G02*
X47781250Y-41737500I-243750J0D01*
G01*
G37*
G36*
G01*
X47781250Y-43312500D02*
X47218750Y-43312500D01*
G75*
G02*
X46975000Y-43068750I0J243750D01*
G01*
X46975000Y-42581250D01*
G75*
G02*
X47218750Y-42337500I243750J0D01*
G01*
X47781250Y-42337500D01*
G75*
G02*
X48025000Y-42581250I0J-243750D01*
G01*
X48025000Y-43068750D01*
G75*
G02*
X47781250Y-43312500I-243750J0D01*
G01*
G37*
%TD*%
%TO.C,R20*%
G36*
G01*
X46031250Y-41737500D02*
X45468750Y-41737500D01*
G75*
G02*
X45225000Y-41493750I0J243750D01*
G01*
X45225000Y-41006250D01*
G75*
G02*
X45468750Y-40762500I243750J0D01*
G01*
X46031250Y-40762500D01*
G75*
G02*
X46275000Y-41006250I0J-243750D01*
G01*
X46275000Y-41493750D01*
G75*
G02*
X46031250Y-41737500I-243750J0D01*
G01*
G37*
G36*
G01*
X46031250Y-43312500D02*
X45468750Y-43312500D01*
G75*
G02*
X45225000Y-43068750I0J243750D01*
G01*
X45225000Y-42581250D01*
G75*
G02*
X45468750Y-42337500I243750J0D01*
G01*
X46031250Y-42337500D01*
G75*
G02*
X46275000Y-42581250I0J-243750D01*
G01*
X46275000Y-43068750D01*
G75*
G02*
X46031250Y-43312500I-243750J0D01*
G01*
G37*
%TD*%
%TO.C,R16*%
G36*
G01*
X42718750Y-38762500D02*
X43281250Y-38762500D01*
G75*
G02*
X43525000Y-39006250I0J-243750D01*
G01*
X43525000Y-39493750D01*
G75*
G02*
X43281250Y-39737500I-243750J0D01*
G01*
X42718750Y-39737500D01*
G75*
G02*
X42475000Y-39493750I0J243750D01*
G01*
X42475000Y-39006250D01*
G75*
G02*
X42718750Y-38762500I243750J0D01*
G01*
G37*
G36*
G01*
X42718750Y-37187500D02*
X43281250Y-37187500D01*
G75*
G02*
X43525000Y-37431250I0J-243750D01*
G01*
X43525000Y-37918750D01*
G75*
G02*
X43281250Y-38162500I-243750J0D01*
G01*
X42718750Y-38162500D01*
G75*
G02*
X42475000Y-37918750I0J243750D01*
G01*
X42475000Y-37431250D01*
G75*
G02*
X42718750Y-37187500I243750J0D01*
G01*
G37*
%TD*%
%TO.C,R15*%
G36*
G01*
X45468750Y-47087500D02*
X46031250Y-47087500D01*
G75*
G02*
X46275000Y-47331250I0J-243750D01*
G01*
X46275000Y-47818750D01*
G75*
G02*
X46031250Y-48062500I-243750J0D01*
G01*
X45468750Y-48062500D01*
G75*
G02*
X45225000Y-47818750I0J243750D01*
G01*
X45225000Y-47331250D01*
G75*
G02*
X45468750Y-47087500I243750J0D01*
G01*
G37*
G36*
G01*
X45468750Y-45512500D02*
X46031250Y-45512500D01*
G75*
G02*
X46275000Y-45756250I0J-243750D01*
G01*
X46275000Y-46243750D01*
G75*
G02*
X46031250Y-46487500I-243750J0D01*
G01*
X45468750Y-46487500D01*
G75*
G02*
X45225000Y-46243750I0J243750D01*
G01*
X45225000Y-45756250D01*
G75*
G02*
X45468750Y-45512500I243750J0D01*
G01*
G37*
%TD*%
%TO.C,R14*%
G36*
G01*
X44281250Y-44912500D02*
X43718750Y-44912500D01*
G75*
G02*
X43475000Y-44668750I0J243750D01*
G01*
X43475000Y-44181250D01*
G75*
G02*
X43718750Y-43937500I243750J0D01*
G01*
X44281250Y-43937500D01*
G75*
G02*
X44525000Y-44181250I0J-243750D01*
G01*
X44525000Y-44668750D01*
G75*
G02*
X44281250Y-44912500I-243750J0D01*
G01*
G37*
G36*
G01*
X44281250Y-46487500D02*
X43718750Y-46487500D01*
G75*
G02*
X43475000Y-46243750I0J243750D01*
G01*
X43475000Y-45756250D01*
G75*
G02*
X43718750Y-45512500I243750J0D01*
G01*
X44281250Y-45512500D01*
G75*
G02*
X44525000Y-45756250I0J-243750D01*
G01*
X44525000Y-46243750D01*
G75*
G02*
X44281250Y-46487500I-243750J0D01*
G01*
G37*
%TD*%
%TO.C,R12*%
G36*
G01*
X69912500Y-14218750D02*
X69912500Y-14781250D01*
G75*
G02*
X69668750Y-15025000I-243750J0D01*
G01*
X69181250Y-15025000D01*
G75*
G02*
X68937500Y-14781250I0J243750D01*
G01*
X68937500Y-14218750D01*
G75*
G02*
X69181250Y-13975000I243750J0D01*
G01*
X69668750Y-13975000D01*
G75*
G02*
X69912500Y-14218750I0J-243750D01*
G01*
G37*
G36*
G01*
X71487500Y-14218750D02*
X71487500Y-14781250D01*
G75*
G02*
X71243750Y-15025000I-243750J0D01*
G01*
X70756250Y-15025000D01*
G75*
G02*
X70512500Y-14781250I0J243750D01*
G01*
X70512500Y-14218750D01*
G75*
G02*
X70756250Y-13975000I243750J0D01*
G01*
X71243750Y-13975000D01*
G75*
G02*
X71487500Y-14218750I0J-243750D01*
G01*
G37*
%TD*%
%TO.C,R11*%
G36*
G01*
X38262500Y-47531250D02*
X38262500Y-46968750D01*
G75*
G02*
X38506250Y-46725000I243750J0D01*
G01*
X38993750Y-46725000D01*
G75*
G02*
X39237500Y-46968750I0J-243750D01*
G01*
X39237500Y-47531250D01*
G75*
G02*
X38993750Y-47775000I-243750J0D01*
G01*
X38506250Y-47775000D01*
G75*
G02*
X38262500Y-47531250I0J243750D01*
G01*
G37*
G36*
G01*
X36687500Y-47531250D02*
X36687500Y-46968750D01*
G75*
G02*
X36931250Y-46725000I243750J0D01*
G01*
X37418750Y-46725000D01*
G75*
G02*
X37662500Y-46968750I0J-243750D01*
G01*
X37662500Y-47531250D01*
G75*
G02*
X37418750Y-47775000I-243750J0D01*
G01*
X36931250Y-47775000D01*
G75*
G02*
X36687500Y-47531250I0J243750D01*
G01*
G37*
%TD*%
%TO.C,R10*%
G36*
G01*
X39012500Y-49031250D02*
X39012500Y-48468750D01*
G75*
G02*
X39256250Y-48225000I243750J0D01*
G01*
X39743750Y-48225000D01*
G75*
G02*
X39987500Y-48468750I0J-243750D01*
G01*
X39987500Y-49031250D01*
G75*
G02*
X39743750Y-49275000I-243750J0D01*
G01*
X39256250Y-49275000D01*
G75*
G02*
X39012500Y-49031250I0J243750D01*
G01*
G37*
G36*
G01*
X37437500Y-49031250D02*
X37437500Y-48468750D01*
G75*
G02*
X37681250Y-48225000I243750J0D01*
G01*
X38168750Y-48225000D01*
G75*
G02*
X38412500Y-48468750I0J-243750D01*
G01*
X38412500Y-49031250D01*
G75*
G02*
X38168750Y-49275000I-243750J0D01*
G01*
X37681250Y-49275000D01*
G75*
G02*
X37437500Y-49031250I0J243750D01*
G01*
G37*
%TD*%
%TO.C,R7*%
G36*
G01*
X26095000Y-17875000D02*
X27405000Y-17875000D01*
G75*
G02*
X27675000Y-18145000I0J-270000D01*
G01*
X27675000Y-18955000D01*
G75*
G02*
X27405000Y-19225000I-270000J0D01*
G01*
X26095000Y-19225000D01*
G75*
G02*
X25825000Y-18955000I0J270000D01*
G01*
X25825000Y-18145000D01*
G75*
G02*
X26095000Y-17875000I270000J0D01*
G01*
G37*
G36*
G01*
X26095000Y-15075000D02*
X27405000Y-15075000D01*
G75*
G02*
X27675000Y-15345000I0J-270000D01*
G01*
X27675000Y-16155000D01*
G75*
G02*
X27405000Y-16425000I-270000J0D01*
G01*
X26095000Y-16425000D01*
G75*
G02*
X25825000Y-16155000I0J270000D01*
G01*
X25825000Y-15345000D01*
G75*
G02*
X26095000Y-15075000I270000J0D01*
G01*
G37*
%TD*%
%TO.C,R5*%
G36*
G01*
X6950000Y-48718750D02*
X6950000Y-49281250D01*
G75*
G02*
X6706250Y-49525000I-243750J0D01*
G01*
X6218750Y-49525000D01*
G75*
G02*
X5975000Y-49281250I0J243750D01*
G01*
X5975000Y-48718750D01*
G75*
G02*
X6218750Y-48475000I243750J0D01*
G01*
X6706250Y-48475000D01*
G75*
G02*
X6950000Y-48718750I0J-243750D01*
G01*
G37*
G36*
G01*
X8525000Y-48718750D02*
X8525000Y-49281250D01*
G75*
G02*
X8281250Y-49525000I-243750J0D01*
G01*
X7793750Y-49525000D01*
G75*
G02*
X7550000Y-49281250I0J243750D01*
G01*
X7550000Y-48718750D01*
G75*
G02*
X7793750Y-48475000I243750J0D01*
G01*
X8281250Y-48475000D01*
G75*
G02*
X8525000Y-48718750I0J-243750D01*
G01*
G37*
%TD*%
%TO.C,R4*%
G36*
G01*
X87837500Y-9781250D02*
X87837500Y-9218750D01*
G75*
G02*
X88081250Y-8975000I243750J0D01*
G01*
X88568750Y-8975000D01*
G75*
G02*
X88812500Y-9218750I0J-243750D01*
G01*
X88812500Y-9781250D01*
G75*
G02*
X88568750Y-10025000I-243750J0D01*
G01*
X88081250Y-10025000D01*
G75*
G02*
X87837500Y-9781250I0J243750D01*
G01*
G37*
G36*
G01*
X86262500Y-9781250D02*
X86262500Y-9218750D01*
G75*
G02*
X86506250Y-8975000I243750J0D01*
G01*
X86993750Y-8975000D01*
G75*
G02*
X87237500Y-9218750I0J-243750D01*
G01*
X87237500Y-9781250D01*
G75*
G02*
X86993750Y-10025000I-243750J0D01*
G01*
X86506250Y-10025000D01*
G75*
G02*
X86262500Y-9781250I0J243750D01*
G01*
G37*
%TD*%
%TO.C,R3*%
G36*
G01*
X57031250Y-6950000D02*
X56468750Y-6950000D01*
G75*
G02*
X56225000Y-6706250I0J243750D01*
G01*
X56225000Y-6218750D01*
G75*
G02*
X56468750Y-5975000I243750J0D01*
G01*
X57031250Y-5975000D01*
G75*
G02*
X57275000Y-6218750I0J-243750D01*
G01*
X57275000Y-6706250D01*
G75*
G02*
X57031250Y-6950000I-243750J0D01*
G01*
G37*
G36*
G01*
X57031250Y-8525000D02*
X56468750Y-8525000D01*
G75*
G02*
X56225000Y-8281250I0J243750D01*
G01*
X56225000Y-7793750D01*
G75*
G02*
X56468750Y-7550000I243750J0D01*
G01*
X57031250Y-7550000D01*
G75*
G02*
X57275000Y-7793750I0J-243750D01*
G01*
X57275000Y-8281250D01*
G75*
G02*
X57031250Y-8525000I-243750J0D01*
G01*
G37*
%TD*%
%TO.C,R2*%
G36*
G01*
X59031250Y-6950000D02*
X58468750Y-6950000D01*
G75*
G02*
X58225000Y-6706250I0J243750D01*
G01*
X58225000Y-6218750D01*
G75*
G02*
X58468750Y-5975000I243750J0D01*
G01*
X59031250Y-5975000D01*
G75*
G02*
X59275000Y-6218750I0J-243750D01*
G01*
X59275000Y-6706250D01*
G75*
G02*
X59031250Y-6950000I-243750J0D01*
G01*
G37*
G36*
G01*
X59031250Y-8525000D02*
X58468750Y-8525000D01*
G75*
G02*
X58225000Y-8281250I0J243750D01*
G01*
X58225000Y-7793750D01*
G75*
G02*
X58468750Y-7550000I243750J0D01*
G01*
X59031250Y-7550000D01*
G75*
G02*
X59275000Y-7793750I0J-243750D01*
G01*
X59275000Y-8281250D01*
G75*
G02*
X59031250Y-8525000I-243750J0D01*
G01*
G37*
%TD*%
%TO.C,R1*%
G36*
G01*
X61031250Y-6950000D02*
X60468750Y-6950000D01*
G75*
G02*
X60225000Y-6706250I0J243750D01*
G01*
X60225000Y-6218750D01*
G75*
G02*
X60468750Y-5975000I243750J0D01*
G01*
X61031250Y-5975000D01*
G75*
G02*
X61275000Y-6218750I0J-243750D01*
G01*
X61275000Y-6706250D01*
G75*
G02*
X61031250Y-6950000I-243750J0D01*
G01*
G37*
G36*
G01*
X61031250Y-8525000D02*
X60468750Y-8525000D01*
G75*
G02*
X60225000Y-8281250I0J243750D01*
G01*
X60225000Y-7793750D01*
G75*
G02*
X60468750Y-7550000I243750J0D01*
G01*
X61031250Y-7550000D01*
G75*
G02*
X61275000Y-7793750I0J-243750D01*
G01*
X61275000Y-8281250D01*
G75*
G02*
X61031250Y-8525000I-243750J0D01*
G01*
G37*
%TD*%
D18*
%TO.C,Q2*%
X31250000Y-19450000D03*
X29250000Y-20400000D03*
X29250000Y-18500000D03*
%TD*%
D15*
%TO.C,Q1*%
X35750000Y-12250000D03*
X35750000Y-14790000D03*
D16*
X35750000Y-17330000D03*
%TD*%
D19*
%TO.C,J5*%
X90000000Y-52620000D03*
X90000000Y-50080000D03*
X90000000Y-47540000D03*
X90000000Y-45000000D03*
X90000000Y-42460000D03*
X90000000Y-39920000D03*
D20*
X90000000Y-37380000D03*
%TD*%
D21*
%TO.C,J3*%
X29740000Y-60000000D03*
D22*
X14500000Y-60000000D03*
D21*
X24660000Y-60000000D03*
X19580000Y-60000000D03*
%TD*%
%TO.C,J2*%
X5500000Y-34750000D03*
X5500000Y-39830000D03*
D22*
X5500000Y-44910000D03*
%TD*%
D21*
%TO.C,J1*%
X5500000Y-12170000D03*
D22*
X5500000Y-17250000D03*
%TD*%
%TO.C,D5*%
G36*
G01*
X4150000Y-49481250D02*
X4150000Y-48518750D01*
G75*
G02*
X4418750Y-48250000I268750J0D01*
G01*
X4956250Y-48250000D01*
G75*
G02*
X5225000Y-48518750I0J-268750D01*
G01*
X5225000Y-49481250D01*
G75*
G02*
X4956250Y-49750000I-268750J0D01*
G01*
X4418750Y-49750000D01*
G75*
G02*
X4150000Y-49481250I0J268750D01*
G01*
G37*
G36*
G01*
X2275000Y-49481250D02*
X2275000Y-48518750D01*
G75*
G02*
X2543750Y-48250000I268750J0D01*
G01*
X3081250Y-48250000D01*
G75*
G02*
X3350000Y-48518750I0J-268750D01*
G01*
X3350000Y-49481250D01*
G75*
G02*
X3081250Y-49750000I-268750J0D01*
G01*
X2543750Y-49750000D01*
G75*
G02*
X2275000Y-49481250I0J268750D01*
G01*
G37*
%TD*%
%TO.C,D4*%
G36*
G01*
X90537500Y-9018750D02*
X90537500Y-9981250D01*
G75*
G02*
X90268750Y-10250000I-268750J0D01*
G01*
X89731250Y-10250000D01*
G75*
G02*
X89462500Y-9981250I0J268750D01*
G01*
X89462500Y-9018750D01*
G75*
G02*
X89731250Y-8750000I268750J0D01*
G01*
X90268750Y-8750000D01*
G75*
G02*
X90537500Y-9018750I0J-268750D01*
G01*
G37*
G36*
G01*
X92412500Y-9018750D02*
X92412500Y-9981250D01*
G75*
G02*
X92143750Y-10250000I-268750J0D01*
G01*
X91606250Y-10250000D01*
G75*
G02*
X91337500Y-9981250I0J268750D01*
G01*
X91337500Y-9018750D01*
G75*
G02*
X91606250Y-8750000I268750J0D01*
G01*
X92143750Y-8750000D01*
G75*
G02*
X92412500Y-9018750I0J-268750D01*
G01*
G37*
%TD*%
%TO.C,D3*%
G36*
G01*
X56268750Y-4212500D02*
X57231250Y-4212500D01*
G75*
G02*
X57500000Y-4481250I0J-268750D01*
G01*
X57500000Y-5018750D01*
G75*
G02*
X57231250Y-5287500I-268750J0D01*
G01*
X56268750Y-5287500D01*
G75*
G02*
X56000000Y-5018750I0J268750D01*
G01*
X56000000Y-4481250D01*
G75*
G02*
X56268750Y-4212500I268750J0D01*
G01*
G37*
G36*
G01*
X56268750Y-2337500D02*
X57231250Y-2337500D01*
G75*
G02*
X57500000Y-2606250I0J-268750D01*
G01*
X57500000Y-3143750D01*
G75*
G02*
X57231250Y-3412500I-268750J0D01*
G01*
X56268750Y-3412500D01*
G75*
G02*
X56000000Y-3143750I0J268750D01*
G01*
X56000000Y-2606250D01*
G75*
G02*
X56268750Y-2337500I268750J0D01*
G01*
G37*
%TD*%
%TO.C,D2*%
G36*
G01*
X58268750Y-4212500D02*
X59231250Y-4212500D01*
G75*
G02*
X59500000Y-4481250I0J-268750D01*
G01*
X59500000Y-5018750D01*
G75*
G02*
X59231250Y-5287500I-268750J0D01*
G01*
X58268750Y-5287500D01*
G75*
G02*
X58000000Y-5018750I0J268750D01*
G01*
X58000000Y-4481250D01*
G75*
G02*
X58268750Y-4212500I268750J0D01*
G01*
G37*
G36*
G01*
X58268750Y-2337500D02*
X59231250Y-2337500D01*
G75*
G02*
X59500000Y-2606250I0J-268750D01*
G01*
X59500000Y-3143750D01*
G75*
G02*
X59231250Y-3412500I-268750J0D01*
G01*
X58268750Y-3412500D01*
G75*
G02*
X58000000Y-3143750I0J268750D01*
G01*
X58000000Y-2606250D01*
G75*
G02*
X58268750Y-2337500I268750J0D01*
G01*
G37*
%TD*%
%TO.C,D1*%
G36*
G01*
X60268750Y-4212500D02*
X61231250Y-4212500D01*
G75*
G02*
X61500000Y-4481250I0J-268750D01*
G01*
X61500000Y-5018750D01*
G75*
G02*
X61231250Y-5287500I-268750J0D01*
G01*
X60268750Y-5287500D01*
G75*
G02*
X60000000Y-5018750I0J268750D01*
G01*
X60000000Y-4481250D01*
G75*
G02*
X60268750Y-4212500I268750J0D01*
G01*
G37*
G36*
G01*
X60268750Y-2337500D02*
X61231250Y-2337500D01*
G75*
G02*
X61500000Y-2606250I0J-268750D01*
G01*
X61500000Y-3143750D01*
G75*
G02*
X61231250Y-3412500I-268750J0D01*
G01*
X60268750Y-3412500D01*
G75*
G02*
X60000000Y-3143750I0J268750D01*
G01*
X60000000Y-2606250D01*
G75*
G02*
X60268750Y-2337500I268750J0D01*
G01*
G37*
%TD*%
%TO.C,C22*%
G36*
G01*
X38987500Y-39218750D02*
X38987500Y-39781250D01*
G75*
G02*
X38743750Y-40025000I-243750J0D01*
G01*
X38256250Y-40025000D01*
G75*
G02*
X38012500Y-39781250I0J243750D01*
G01*
X38012500Y-39218750D01*
G75*
G02*
X38256250Y-38975000I243750J0D01*
G01*
X38743750Y-38975000D01*
G75*
G02*
X38987500Y-39218750I0J-243750D01*
G01*
G37*
G36*
G01*
X40562500Y-39218750D02*
X40562500Y-39781250D01*
G75*
G02*
X40318750Y-40025000I-243750J0D01*
G01*
X39831250Y-40025000D01*
G75*
G02*
X39587500Y-39781250I0J243750D01*
G01*
X39587500Y-39218750D01*
G75*
G02*
X39831250Y-38975000I243750J0D01*
G01*
X40318750Y-38975000D01*
G75*
G02*
X40562500Y-39218750I0J-243750D01*
G01*
G37*
%TD*%
%TO.C,C21*%
G36*
G01*
X34718750Y-42262500D02*
X35281250Y-42262500D01*
G75*
G02*
X35525000Y-42506250I0J-243750D01*
G01*
X35525000Y-42993750D01*
G75*
G02*
X35281250Y-43237500I-243750J0D01*
G01*
X34718750Y-43237500D01*
G75*
G02*
X34475000Y-42993750I0J243750D01*
G01*
X34475000Y-42506250D01*
G75*
G02*
X34718750Y-42262500I243750J0D01*
G01*
G37*
G36*
G01*
X34718750Y-40687500D02*
X35281250Y-40687500D01*
G75*
G02*
X35525000Y-40931250I0J-243750D01*
G01*
X35525000Y-41418750D01*
G75*
G02*
X35281250Y-41662500I-243750J0D01*
G01*
X34718750Y-41662500D01*
G75*
G02*
X34475000Y-41418750I0J243750D01*
G01*
X34475000Y-40931250D01*
G75*
G02*
X34718750Y-40687500I243750J0D01*
G01*
G37*
%TD*%
%TO.C,C20*%
G36*
G01*
X43718750Y-42300000D02*
X44281250Y-42300000D01*
G75*
G02*
X44525000Y-42543750I0J-243750D01*
G01*
X44525000Y-43031250D01*
G75*
G02*
X44281250Y-43275000I-243750J0D01*
G01*
X43718750Y-43275000D01*
G75*
G02*
X43475000Y-43031250I0J243750D01*
G01*
X43475000Y-42543750D01*
G75*
G02*
X43718750Y-42300000I243750J0D01*
G01*
G37*
G36*
G01*
X43718750Y-40725000D02*
X44281250Y-40725000D01*
G75*
G02*
X44525000Y-40968750I0J-243750D01*
G01*
X44525000Y-41456250D01*
G75*
G02*
X44281250Y-41700000I-243750J0D01*
G01*
X43718750Y-41700000D01*
G75*
G02*
X43475000Y-41456250I0J243750D01*
G01*
X43475000Y-40968750D01*
G75*
G02*
X43718750Y-40725000I243750J0D01*
G01*
G37*
%TD*%
%TO.C,C10*%
G36*
G01*
X34718750Y-45300000D02*
X35281250Y-45300000D01*
G75*
G02*
X35525000Y-45543750I0J-243750D01*
G01*
X35525000Y-46031250D01*
G75*
G02*
X35281250Y-46275000I-243750J0D01*
G01*
X34718750Y-46275000D01*
G75*
G02*
X34475000Y-46031250I0J243750D01*
G01*
X34475000Y-45543750D01*
G75*
G02*
X34718750Y-45300000I243750J0D01*
G01*
G37*
G36*
G01*
X34718750Y-43725000D02*
X35281250Y-43725000D01*
G75*
G02*
X35525000Y-43968750I0J-243750D01*
G01*
X35525000Y-44456250D01*
G75*
G02*
X35281250Y-44700000I-243750J0D01*
G01*
X34718750Y-44700000D01*
G75*
G02*
X34475000Y-44456250I0J243750D01*
G01*
X34475000Y-43968750D01*
G75*
G02*
X34718750Y-43725000I243750J0D01*
G01*
G37*
%TD*%
D14*
%TO.C,C5*%
X19000000Y-47500000D03*
D23*
X14000000Y-47500000D03*
%TD*%
%TO.C,C4*%
G36*
G01*
X21031250Y-41412500D02*
X20468750Y-41412500D01*
G75*
G02*
X20225000Y-41168750I0J243750D01*
G01*
X20225000Y-40681250D01*
G75*
G02*
X20468750Y-40437500I243750J0D01*
G01*
X21031250Y-40437500D01*
G75*
G02*
X21275000Y-40681250I0J-243750D01*
G01*
X21275000Y-41168750D01*
G75*
G02*
X21031250Y-41412500I-243750J0D01*
G01*
G37*
G36*
G01*
X21031250Y-42987500D02*
X20468750Y-42987500D01*
G75*
G02*
X20225000Y-42743750I0J243750D01*
G01*
X20225000Y-42256250D01*
G75*
G02*
X20468750Y-42012500I243750J0D01*
G01*
X21031250Y-42012500D01*
G75*
G02*
X21275000Y-42256250I0J-243750D01*
G01*
X21275000Y-42743750D01*
G75*
G02*
X21031250Y-42987500I-243750J0D01*
G01*
G37*
%TD*%
%TO.C,C3*%
G36*
G01*
X37468750Y-27300000D02*
X38031250Y-27300000D01*
G75*
G02*
X38275000Y-27543750I0J-243750D01*
G01*
X38275000Y-28031250D01*
G75*
G02*
X38031250Y-28275000I-243750J0D01*
G01*
X37468750Y-28275000D01*
G75*
G02*
X37225000Y-28031250I0J243750D01*
G01*
X37225000Y-27543750D01*
G75*
G02*
X37468750Y-27300000I243750J0D01*
G01*
G37*
G36*
G01*
X37468750Y-25725000D02*
X38031250Y-25725000D01*
G75*
G02*
X38275000Y-25968750I0J-243750D01*
G01*
X38275000Y-26456250D01*
G75*
G02*
X38031250Y-26700000I-243750J0D01*
G01*
X37468750Y-26700000D01*
G75*
G02*
X37225000Y-26456250I0J243750D01*
G01*
X37225000Y-25968750D01*
G75*
G02*
X37468750Y-25725000I243750J0D01*
G01*
G37*
%TD*%
D14*
%TO.C,C2*%
X44250000Y-29750000D03*
D23*
X44250000Y-24750000D03*
%TD*%
D14*
%TO.C,C1*%
X15250000Y-17250000D03*
D23*
X15250000Y-12250000D03*
%TD*%
D24*
%TO.C,BZ1*%
X59750000Y-35750000D03*
X54750000Y-35750000D03*
%TD*%
M02*
