M48
; DRILL file {KiCad (5.1.6)-1} date 03/23/22 15:28:15
; FORMAT={-:-/ absolute / inch / decimal}
; #@! TF.CreationDate,2022-03-23T15:28:15-04:00
; #@! TF.GenerationSoftware,Kicad,Pcbnew,(5.1.6)-1
FMAT,2
INCH
T1C0.0157
T2C0.0276
T3C0.0299
T4C0.0394
T5C0.0433
T6C0.0598
T7C0.1260
%
G90
G05
T1
X0.8268Y-1.1516
X0.8268Y-1.1909
X0.8661Y-1.1516
X0.8661Y-1.1909
X0.9055Y-1.1516
X0.9055Y-1.1909
X1.1024Y-0.7972
X1.2303Y-0.9252
X1.2303Y-0.9646
X1.2303Y-1.0039
X1.2402Y-0.8071
X1.2697Y-0.9252
X1.2697Y-0.9646
X1.2697Y-1.0039
X1.3189Y-1.2894
X1.3189Y-1.4567
X1.3287Y-1.7421
X1.378Y-1.8602
X1.4469Y-1.8012
X1.4719Y-1.6336
X1.5256Y-1.998
X1.5453Y-1.7126
X1.5551Y-1.9685
X1.6437Y-1.4833
X1.6437Y-1.811
X1.6831Y-1.7323
X1.7859Y-1.5497
X1.9247Y-1.5497
X2.4508Y-0.187
X2.7333Y-0.6132
X2.8091Y-1.0787
X2.8642Y-0.8071
X2.8929Y-1.3787
X2.9262Y-0.8071
X2.9626Y-0.128
X2.9799Y-1.4787
X3.0285Y-1.1742
T2
X2.1555Y-1.4075
X2.3524Y-1.4075
T3
X2.6083Y-0.0787
X2.6083Y-0.1787
X2.6083Y-0.2787
X2.6083Y-0.3787
X2.6083Y-0.4787
X2.6083Y-0.5787
X2.6083Y-0.6787
X2.6083Y-0.7787
X2.6083Y-0.8787
X2.6083Y-0.9787
X2.6083Y-1.0787
X2.6083Y-1.1787
X2.6083Y-1.2787
X2.6083Y-1.3787
X2.6083Y-1.4787
X2.6083Y-1.5787
X2.6083Y-1.6787
X2.6083Y-1.7787
X2.6083Y-1.8787
X2.6083Y-1.9787
X2.8583Y-1.9602
X2.9583Y-1.9602
X3.0583Y-1.9602
X3.3083Y-0.0787
X3.3083Y-0.1787
X3.3083Y-0.2787
X3.3083Y-0.3787
X3.3083Y-0.4787
X3.3083Y-0.5787
X3.3083Y-0.6787
X3.3083Y-0.7787
X3.3083Y-0.8787
X3.3083Y-0.9787
X3.3083Y-1.0787
X3.3083Y-1.1787
X3.3083Y-1.2787
X3.3083Y-1.3787
X3.3083Y-1.4787
X3.3083Y-1.5787
X3.3083Y-1.6787
X3.3083Y-1.7787
X3.3083Y-1.8787
X3.3083Y-1.9787
T4
X1.7421Y-0.9744
X1.7421Y-1.1713
X3.5433Y-1.4717
X3.5433Y-1.5717
X3.5433Y-1.6717
X3.5433Y-1.7717
X3.5433Y-1.8717
X3.5433Y-1.9717
X3.5433Y-2.0717
X0.6004Y-0.4823
X0.6004Y-0.6791
X0.5512Y-1.8701
X0.748Y-1.8701
T5
X0.9252Y-1.5945
X0.9252Y-1.6945
X0.9252Y-1.7945
X1.4075Y-0.4823
X1.4075Y-0.5823
X1.4075Y-0.6823
X3.4449Y-0.6594
X3.4449Y-0.9154
X3.622Y-0.6594
X3.622Y-0.9154
T6
X0.2165Y-1.3681
X0.2165Y-1.5681
X0.2165Y-1.7681
X0.2165Y-0.4791
X0.2165Y-0.6791
X0.5709Y-2.3622
X0.7709Y-2.3622
X0.9709Y-2.3622
X1.1709Y-2.3622
T7
X0.1969Y-0.1969
X0.1969Y-2.3622
X3.5433Y-0.1969
X3.5433Y-2.3622
T0
M30
